<?xml version="1.0" encoding="UTF-8"?>
<svg width="447px" height="302px" viewBox="0 0 447 302" version="1.1" xmlns="http://www.w3.org/2000/svg" xmlns:xlink="http://www.w3.org/1999/xlink">
    <!-- Generator: Sketch 48.2 (47327) - http://www.bohemiancoding.com/sketch -->
    <title>academy-icon</title>
    <desc>Created with Sketch.</desc>
    <defs></defs>
    <g id="Academy" stroke="none" stroke-width="1" fill="none" fill-rule="evenodd" transform="translate(-497.000000, -461.000000)">
        <g id="academy-icon" transform="translate(497.000000, 461.000000)">
            <polygon id="Fill-1" fill="#D17466" points="5.602 173.292 155.158 173.292 155.158 90.202 5.602 90.202"></polygon>
            <polygon id="Fill-2" fill="#E58171" points="155.156 173.29 223.008 173.29 223.008 58.814 155.156 58.814"></polygon>
            <polygon id="Fill-3" fill="#F8E9D5" points="160.762 51.77 223.008 51.77 223.008 44.728 160.762 44.728"></polygon>
            <polygon id="Fill-4" fill="#F8E9D5" points="164.014 58.814 223.008 58.814 223.008 51.772 164.014 51.772"></polygon>
            <polygon id="Fill-5" fill="#EBDCC9" points="0 137.98 155.156 137.98 155.156 130.934 0 130.934"></polygon>
            <polygon id="Fill-6" fill="#EBDCC9" points="0 90.202 155.156 90.202 155.156 83.158 0 83.158"></polygon>
            <polygon id="Fill-7" fill="#EBDCC9" points="0 187.02 155.156 187.02 155.156 173.292 0 173.292"></polygon>
            <polygon id="Fill-8" fill="#E48171" points="155.158 173.292 182.49 173.292 182.49 141.502 155.158 141.502"></polygon>
            <polygon id="Fill-9" fill="#F8E9D5" points="155.158 187.02 182.576 187.02 182.576 173.292 155.158 173.292"></polygon>
            <polygon id="Fill-10" fill="#F8E9D5" points="155.158 146.198 182.49 146.198 182.49 141.502 155.158 141.502"></polygon>
            <polygon id="Fill-11" fill="#CC7465" points="155.156 147.684 182.49 147.684 182.49 146.198 155.156 146.198"></polygon>
            <polygon id="Fill-12" fill="#CC7465" points="155.156 173.292 182.49 173.292 182.49 171.808 155.156 171.808"></polygon>
            <polygon id="Fill-13" fill="#BF6D5F" points="5.6 173.292 155.156 173.292 155.156 171.808 5.6 171.808"></polygon>
            <polygon id="Fill-14" fill="#BF6D5F" points="5.6 130.934 155.156 130.934 155.156 129.448 5.6 129.448"></polygon>
            <polygon id="Fill-15" fill="#BF6D5F" points="5.6 139.462 155.156 139.462 155.156 137.978 5.6 137.978"></polygon>
            <polygon id="Fill-16" fill="#BF6D5F" points="5.6 91.688 155.156 91.688 155.156 90.202 5.6 90.202"></polygon>
            <polygon id="Fill-17" fill="#C47061" points="182.578 173.292 184.25 173.292 184.25 141.502 182.578 141.502"></polygon>
            <polygon id="Fill-18" fill="#C47061" points="182.49 142.99 223.01 142.99 223.01 141.502 182.49 141.502"></polygon>
            <polygon id="Fill-19" fill="#C47061" points="155.156 134.456 223.008 134.456 223.008 132.97 155.156 132.97"></polygon>
            <polygon id="Fill-20" fill="#C47061" points="164.014 60.298 223.01 60.298 223.01 58.814 164.014 58.814"></polygon>
            <polygon id="Fill-21" fill="#E3D5C3" points="164.014 53.256 223.01 53.256 223.01 51.772 164.014 51.772"></polygon>
            <polygon id="Fill-22" fill="#E3D5C3" points="155.156 142.99 182.49 142.99 182.49 141.502 155.156 141.502"></polygon>
            <polygon id="Fill-23" fill="#6D5148" points="21.676 124.702 43.89 124.702 43.89 97.61 21.676 97.61"></polygon>
            <polygon id="Fill-24" fill="#6D5148" points="167.742 124.702 189.956 124.702 189.956 73.134 167.742 73.134"></polygon>
            <polygon id="Fill-25" fill="#6D5148" points="197.246 124.702 219.462 124.702 219.462 73.134 197.246 73.134"></polygon>
            <polygon id="Fill-26" fill="#6D5148" points="54.912 124.702 77.128 124.702 77.128 97.61 54.912 97.61"></polygon>
            <polygon id="Fill-27" fill="#6D5148" points="88.148 124.702 110.364 124.702 110.364 97.61 88.148 97.61"></polygon>
            <polygon id="Fill-28" fill="#6D5148" points="121.382 124.702 143.598 124.702 143.598 97.61 121.382 97.61"></polygon>
            <polygon id="Fill-29" fill="#6D5148" points="21.676 167.51 43.89 167.51 43.89 144.574 21.676 144.574"></polygon>
            <polygon id="Fill-30" fill="#6D5148" points="54.912 167.51 77.128 167.51 77.128 144.574 54.912 144.574"></polygon>
            <polygon id="Fill-31" fill="#6D5148" points="88.148 167.51 110.364 167.51 110.364 144.574 88.148 144.574"></polygon>
            <polygon id="Fill-32" fill="#6D5148" points="121.382 167.51 143.598 167.51 143.598 144.574 121.382 144.574"></polygon>
            <polygon id="Fill-33" fill="#6D5148" points="196.258 173.292 223.008 173.292 223.008 150.354 196.258 150.354"></polygon>
            <polygon id="Fill-34" fill="#F8E9D5" points="150.466 141.502 223.008 141.502 223.008 134.456 150.466 134.456"></polygon>
            <polygon id="Fill-35" fill="#D1C4B3" points="182.488 177.846 223.008 177.846 223.008 173.292 182.488 173.292"></polygon>
            <polygon id="Fill-36" fill="#EBDCC9" points="182.488 182.436 223.008 182.436 223.008 177.878 182.488 177.878"></polygon>
            <polygon id="Fill-37" fill="#C4B8A9" points="182.576 177.846 223.01 177.846 223.01 176.764 182.576 176.764"></polygon>
            <polygon id="Fill-38" fill="#DED0BF" points="182.578 182.436 223.01 182.436 223.01 181.352 182.578 181.352"></polygon>
            <polygon id="Fill-39" fill="#F8E9D5" points="182.488 186.99 223.008 186.99 223.008 182.436 182.488 182.436"></polygon>
            <polygon id="Fill-40" fill="#C4B8A9" points="182.576 177.686 184.248 177.686 184.248 173.292 182.576 173.292"></polygon>
            <polygon id="Fill-41" fill="#DED0BF" points="182.578 182.244 184.25 182.244 184.25 177.844 182.578 177.844"></polygon>
            <polygon id="Fill-42" fill="#F0E1CE" points="182.576 186.83 184.248 186.83 184.248 182.436 182.576 182.436"></polygon>
            <polygon id="Fill-43" fill="#745A51" points="43.8896 97.6094 21.6756 97.6094 21.6756 124.7014"></polygon>
            <polygon id="Fill-44" fill="#745A51" points="189.9562 73.1328 167.7422 73.1328 167.7422 124.4268"></polygon>
            <polygon id="Fill-45" fill="#745A51" points="219.462 73.1328 197.246 73.1328 197.246 124.4268"></polygon>
            <polygon id="Fill-46" fill="#745A51" points="77.128 97.6094 54.912 97.6094 54.912 124.7014"></polygon>
            <polygon id="Fill-47" fill="#745A51" points="110.3642 97.6094 88.1482 97.6094 88.1482 124.7014"></polygon>
            <polygon id="Fill-48" fill="#745A51" points="143.5986 97.6094 121.3826 97.6094 121.3826 124.7014"></polygon>
            <polygon id="Fill-49" fill="#745A51" points="43.8896 144.5742 21.6756 144.5742 21.6756 167.3702"></polygon>
            <polygon id="Fill-50" fill="#745A51" points="77.128 144.5742 54.912 144.5742 54.912 167.3702"></polygon>
            <polygon id="Fill-51" fill="#745A51" points="110.3642 144.5742 88.1482 144.5742 88.1482 167.3702"></polygon>
            <polygon id="Fill-52" fill="#745A51" points="143.5986 144.5742 121.3826 144.5742 121.3826 167.3702"></polygon>
            <polygon id="Fill-53" fill="#D17466" points="290.86 173.292 440.416 173.292 440.416 90.202 290.86 90.202"></polygon>
            <polygon id="Fill-54" fill="#E58171" points="223.008 173.29 290.86 173.29 290.86 58.814 223.008 58.814"></polygon>
            <polygon id="Fill-55" fill="#F8E9D5" points="223.008 51.77 285.254 51.77 285.254 44.728 223.008 44.728"></polygon>
            <polygon id="Fill-56" fill="#F8E9D5" points="223.008 58.814 282.002 58.814 282.002 51.772 223.008 51.772"></polygon>
            <polygon id="Fill-57" fill="#EBDCC9" points="290.86 137.98 446.016 137.98 446.016 130.934 290.86 130.934"></polygon>
            <polygon id="Fill-58" fill="#EBDCC9" points="290.86 90.202 446.016 90.202 446.016 83.158 290.86 83.158"></polygon>
            <polygon id="Fill-59" fill="#EBDCC9" points="290.86 187.02 446.016 187.02 446.016 173.292 290.86 173.292"></polygon>
            <polygon id="Fill-60" fill="#E48171" points="263.528 173.292 290.86 173.292 290.86 141.502 263.528 141.502"></polygon>
            <polygon id="Fill-61" fill="#F8E9D5" points="263.442 187.02 290.86 187.02 290.86 173.292 263.442 173.292"></polygon>
            <polygon id="Fill-62" fill="#F8E9D5" points="263.528 146.198 290.86 146.198 290.86 141.502 263.528 141.502"></polygon>
            <polygon id="Fill-63" fill="#CC7465" points="263.528 147.684 290.86 147.684 290.86 146.198 263.528 146.198"></polygon>
            <polygon id="Fill-64" fill="#CC7465" points="263.528 173.292 290.86 173.292 290.86 171.808 263.528 171.808"></polygon>
            <polygon id="Fill-65" fill="#BF6D5F" points="290.86 173.292 440.416 173.292 440.416 171.808 290.86 171.808"></polygon>
            <polygon id="Fill-66" fill="#BF6D5F" points="290.86 130.934 440.416 130.934 440.416 129.448 290.86 129.448"></polygon>
            <polygon id="Fill-67" fill="#BF6D5F" points="290.86 139.462 440.416 139.462 440.416 137.978 290.86 137.978"></polygon>
            <polygon id="Fill-68" fill="#BF6D5F" points="290.86 91.688 440.416 91.688 440.416 90.202 290.86 90.202"></polygon>
            <polygon id="Fill-69" fill="#C47061" points="261.768 173.292 263.44 173.292 263.44 141.502 261.768 141.502"></polygon>
            <polygon id="Fill-70" fill="#C47061" points="223.01 142.99 263.53 142.99 263.53 141.502 223.01 141.502"></polygon>
            <polygon id="Fill-71" fill="#C47061" points="223.01 134.456 290.862 134.456 290.862 132.97 223.01 132.97"></polygon>
            <polygon id="Fill-72" fill="#C47061" points="223.01 60.298 282.004 60.298 282.004 58.814 223.01 58.814"></polygon>
            <polygon id="Fill-73" fill="#E3D5C3" points="223.01 53.256 282.004 53.256 282.004 51.772 223.01 51.772"></polygon>
            <polygon id="Fill-74" fill="#E3D5C3" points="263.528 142.99 290.86 142.99 290.86 141.502 263.528 141.502"></polygon>
            <polygon id="Fill-75" fill="#6D5148" points="402.126 124.702 424.342 124.702 424.342 97.61 402.126 97.61"></polygon>
            <polygon id="Fill-76" fill="#6D5148" points="256.062 124.702 278.276 124.702 278.276 73.134 256.062 73.134"></polygon>
            <polygon id="Fill-77" fill="#6D5148" points="226.556 124.702 248.772 124.702 248.772 73.134 226.556 73.134"></polygon>
            <polygon id="Fill-78" fill="#6D5148" points="368.89 124.702 391.108 124.702 391.108 97.61 368.89 97.61"></polygon>
            <polygon id="Fill-79" fill="#6D5148" points="335.654 124.702 357.87 124.702 357.87 97.61 335.654 97.61"></polygon>
            <polygon id="Fill-80" fill="#6D5148" points="302.418 124.702 324.634 124.702 324.634 97.61 302.418 97.61"></polygon>
            <polygon id="Fill-81" fill="#6D5148" points="402.126 167.51 424.342 167.51 424.342 144.574 402.126 144.574"></polygon>
            <polygon id="Fill-82" fill="#6D5148" points="368.89 167.51 391.108 167.51 391.108 144.574 368.89 144.574"></polygon>
            <polygon id="Fill-83" fill="#6D5148" points="335.654 167.51 357.87 167.51 357.87 144.574 335.654 144.574"></polygon>
            <polygon id="Fill-84" fill="#6D5148" points="302.418 167.51 324.634 167.51 324.634 144.574 302.418 144.574"></polygon>
            <polygon id="Fill-85" fill="#6D5148" points="223.008 173.292 249.758 173.292 249.758 150.354 223.008 150.354"></polygon>
            <polygon id="Fill-86" fill="#F8E9D5" points="223.008 141.502 295.55 141.502 295.55 134.456 223.008 134.456"></polygon>
            <polygon id="Fill-87" fill="#D1C4B3" points="223.008 177.846 263.528 177.846 263.528 173.292 223.008 173.292"></polygon>
            <polygon id="Fill-88" fill="#EBDCC9" points="223.008 182.436 263.528 182.436 263.528 177.878 223.008 177.878"></polygon>
            <polygon id="Fill-89" fill="#C4B8A9" points="223.01 177.846 263.444 177.846 263.444 176.764 223.01 176.764"></polygon>
            <polygon id="Fill-90" fill="#DED0BF" points="223.01 182.436 263.442 182.436 263.442 181.352 223.01 181.352"></polygon>
            <polygon id="Fill-91" fill="#F8E9D5" points="223.008 186.99 263.528 186.99 263.528 182.436 223.008 182.436"></polygon>
            <polygon id="Fill-92" fill="#C4B8A9" points="261.77 177.686 263.442 177.686 263.442 173.292 261.77 173.292"></polygon>
            <polygon id="Fill-93" fill="#DED0BF" points="261.768 182.244 263.44 182.244 263.44 177.844 261.768 177.844"></polygon>
            <polygon id="Fill-94" fill="#F0E1CE" points="261.77 186.83 263.442 186.83 263.442 182.436 261.77 182.436"></polygon>
            <path d="M248.7726,73.1326 L248.7726,73.1366 L248.7746,73.1326 L248.7726,73.1326 Z M226.5566,73.1326 L248.7726,73.1326 L226.5566,73.1326 Z" id="Fill-95" fill="#E68778"></path>
            <polygon id="Fill-96" fill="#745A51" points="248.7726 73.1328 226.5586 73.1328 226.5586 124.4268 248.7726 73.1368"></polygon>
            <polygon id="Fill-97" fill="#E68778" points="278.2764 73.1328 256.0604 73.1328 256.0604 124.4268 256.0624 124.4228 256.0624 73.1328"></polygon>
            <polygon id="Fill-98" fill="#745A51" points="278.2764 73.1328 256.0624 73.1328 256.0624 124.4228"></polygon>
            <path d="M324.6354,97.609 L324.6354,97.611 L324.6374,97.609 L324.6354,97.609 Z M302.4214,97.609 L324.6354,97.609 L302.4214,97.609 Z" id="Fill-99" fill="#D37B6E"></path>
            <polygon id="Fill-100" fill="#745A51" points="324.6358 97.6094 302.4218 97.6094 302.4218 124.7014 324.6358 97.6114"></polygon>
            <polygon id="Fill-101" fill="#745A51" points="357.8702 97.6094 335.6542 97.6094 335.6542 124.7014"></polygon>
            <polygon id="Fill-102" fill="#D37B6E" points="391.1026 97.6094 368.8866 97.6094 368.8866 124.7014 368.8906 124.6974 368.8906 97.6094"></polygon>
            <polygon id="Fill-103" fill="#745A51" points="391.1026 97.6094 368.8906 97.6094 368.8906 124.6974"></polygon>
            <polygon id="Fill-104" fill="#D37B6E" points="424.335 97.6094 402.119 97.6094 402.119 124.7014 402.127 124.6914 402.127 97.6094"></polygon>
            <polygon id="Fill-105" fill="#745A51" points="424.335 97.6094 402.127 97.6094 402.127 124.6914"></polygon>
            <path d="M324.6354,144.5746 L324.6354,144.5766 L324.6374,144.5746 L324.6354,144.5746 Z M302.4214,144.5746 L324.6354,144.5746 L302.4214,144.5746 Z" id="Fill-106" fill="#D37B6E"></path>
            <polygon id="Fill-107" fill="#745A51" points="324.6358 144.5742 302.4218 144.5742 302.4218 167.3682 324.6358 144.5762"></polygon>
            <polygon id="Fill-108" fill="#745A51" points="357.8702 144.5742 335.6542 144.5742 335.6542 167.3682"></polygon>
            <polygon id="Fill-109" fill="#D37B6E" points="391.1026 144.5742 368.8866 144.5742 368.8866 167.3682 368.8906 167.3662 368.8906 144.5742"></polygon>
            <polygon id="Fill-110" fill="#745A51" points="391.1026 144.5742 368.8906 144.5742 368.8906 167.3662"></polygon>
            <polygon id="Fill-111" fill="#D37B6E" points="424.335 144.5742 402.119 144.5742 402.119 167.3682 402.127 167.3622 402.127 144.5742"></polygon>
            <polygon id="Fill-112" fill="#745A51" points="424.335 144.5742 402.127 144.5742 402.127 167.3622"></polygon>
            <polygon id="Fill-113" fill="#CCD5CE" points="69.2298 302 223.8158 301.995781 378.3998 301.995781 262.4638 187.080322 223.8158 187.020197 185.1638 186.8298"></polygon>
            <polyline id="Fill-114" fill="#A4CF25" points="207.4152 4.5352 220.5932 3.1112 214.0032 14.1352 220.1012 26.1752 193.9832 28.3392"></polyline>
            <polygon id="Fill-115" fill="#C8EF37" points="208.1952 0.0004 173.4712 4.5324 172.6732 26.8064 208.5432 22.5444"></polygon>
            <polyline id="Fill-116" fill="#5B7830" points="193.9834 28.34 196.3554 23.992 208.5414 22.546"></polyline>
            <polygon id="Fill-117" fill="#CCD5CE" points="171.926 193.046 173.426 193.046 173.426 1.214 171.926 1.214"></polygon>
        </g>
    </g>
</svg>