<?xml version="1.0" encoding="utf-8"?>
<!-- Generator: Adobe Illustrator 16.0.0, SVG Export Plug-In . SVG Version: 6.00 Build 0)  -->
<!DOCTYPE svg PUBLIC "-//W3C//DTD SVG 1.1//EN" "http://www.w3.org/Graphics/SVG/1.1/DTD/svg11.dtd">
<svg version="1.1" id="Layer_1" xmlns="http://www.w3.org/2000/svg" xmlns:xlink="http://www.w3.org/1999/xlink" x="0px" y="0px"
	 width="1152px" height="300px" viewBox="0 0 1152 300" enable-background="new 0 0 1152 300" xml:space="preserve">
<g>
	<g>
		<path fill="#384E61" d="M296.459,219.923V94.934c0-6.182,2.64-9.269,7.95-9.269l37.549-0.2c9.851,0.384,18.371,2.717,25.523,7.028
			c7.117,4.297,11.538,12.245,13.195,23.891c1.61,11.633-2.735,21.348-13.092,29.205c15.04,4.787,23.756,14.332,26.164,28.527
			c2.396,14.24-0.167,26.792-7.656,37.657c-7.55,10.864-19.778,16.25-36.721,16.11h-45.13
			C298.93,227.884,296.324,225.232,296.459,219.923 M341.221,105.399H317.13v37.352l23.526-0.202
			c12.628-2.024,18.843-8.593,18.675-19.731C359.133,111.707,353.084,105.891,341.221,105.399 M344.429,160.949h-26.927
			l0.195,44.578h31.306c10.096,0.632,17.219-2.545,21.329-9.496c4.094-6.953,4.13-14.595,0.093-22.943
			C366.386,164.728,357.73,160.706,344.429,160.949"/>
		<path fill="#384E61" d="M435.073,190.154c0.663,9.865,4.711,15.806,12.156,17.828c6.46,3.915,8.026,8.764,4.739,14.501
			c-3.3,5.757-8.776,7.199-16.494,4.269c-14.304-6.2-21.314-16.422-21.056-30.722l0.172-100.896
			c-0.737-6.83,2.777-10.174,10.523-10.052c7.782,0.141,11.19,3.468,10.16,10.052L435.073,190.154z"/>
		<path fill="#384E61" d="M515.316,125.764c7.316,0.2,14.272,1.919,20.747,5.216c6.523,3.3,12.43,8.795,17.739,16.513
			c5.322,7.716,7.916,18.552,7.792,32.501c-0.136,13.995-3.48,24.86-10.058,32.625c-6.574,7.793-13.063,12.813-19.511,15.081
			c-6.477,2.274-12.66,3.411-18.614,3.411c-5.936,0-12.457-1.09-19.639-3.303c-7.12-2.225-13.8-7.211-19.98-15.006
			c-6.215-7.75-9.423-18.505-9.684-32.225c-0.233-13.705,2.838-24.968,9.285-33.761c6.439-8.778,13.228-14.53,20.285-17.248
			C500.753,126.838,507.963,125.58,515.316,125.764 M492.378,153.065c-5.957,6.152-8.89,14.698-8.827,25.716
			c0.064,11.006,3.103,19.245,9.085,24.754c6.013,5.491,12.798,8.193,20.286,8.052c7.55-0.118,14.302-2.834,20.303-8.145
			c6.015-5.311,8.933-13.689,8.824-25.151c-0.093-11.417-3.27-20.102-9.392-26.057c-6.141-5.938-12.888-8.825-20.272-8.639
			C504.972,143.778,498.313,146.941,492.378,153.065"/>
		<path fill="#384E61" d="M649.556,141.417c4.714,6.32,4.99,11.479,0.88,15.469c-4.085,3.972-8.626,4.14-13.57,0.459
			c-6.316-7.074-13.164-10.528-20.574-10.328c-7.384,0.168-13.629,3.285-18.784,9.299c-5.111,5.988-7.414,14.289-6.909,24.921
			c0.522,10.618,4.102,18.199,10.821,22.773c6.677,4.544,13.656,6.245,20.944,5.126c7.293-1.153,12.233-4.05,14.871-8.764
			c3.673-5.399,7.953-6.813,12.829-4.143c4.851,2.639,6.153,7.029,3.881,13.075c-3.679,6.585-9.497,11.785-17.447,15.668
			c-7.947,3.836-17.845,4.755-29.662,2.729c-11.831-1.995-20.855-7.259-27.07-15.727c-6.181-8.487-9.249-19.273-9.193-32.441
			c0.081-13.15,3.782-24.706,11.205-34.708c7.411-9.993,18.278-15.456,32.611-16.41
			C628.751,127.484,640.474,131.809,649.556,141.417"/>
		<path fill="#384E61" d="M751.018,226.384c-5.797,4.035-10.217,3.666-13.257-1.152l-31.839-43.227l-11.757,11.386v27.868
			c-0.134,5.307-3.8,7.963-11.032,7.963c-7.182,0-10.789-2.656-10.789-7.963V93.232c0.108-6.047,3.686-9.086,10.696-9.086
			c7.018,0,10.532,3.039,10.532,9.086v73.028l38.513-34.711c4.147-4.419,8.654-4.342,13.456,0.292
			c4.819,4.602,5.313,9.331,1.506,14.133l-25.383,21.606l32.397,45.33C757.877,217.853,756.839,222.333,751.018,226.384"/>
		<path fill="#A1CC3A" d="M791.263,190.154c0.623,9.865,4.659,15.806,12.119,17.828c6.444,3.915,8.056,8.764,4.739,14.501
			c-3.298,5.757-8.774,7.199-16.492,4.269c-14.271-6.2-21.316-16.422-21.057-30.722l0.199-100.896
			c-0.766-6.83,2.749-10.174,10.495-10.052c7.811,0.141,11.192,3.468,10.188,10.052L791.263,190.154z"/>
		<path fill="#A1CC3A" d="M825.005,98.557c0-3.422,1.302-6.492,3.894-9.193c2.584-2.73,5.622-4.082,9.165-4.082
			c3.438,0,6.308,1.213,8.654,3.699c2.334,2.454,3.502,5.663,3.502,9.576c0,3.913-1.23,7.136-3.7,9.681
			c-2.443,2.533-5.385,3.791-8.828,3.791c-3.546,0-6.553-1.396-8.992-4.097C826.235,105.216,825.005,102.084,825.005,98.557
			 M837.784,127.668c-7.138,0.06-10.619,2.298-10.511,6.719v87.054c-0.279,5.081,3.329,7.568,10.79,7.505
			c7.488-0.078,10.817-2.562,10.08-7.505v-87.054C848.389,129.843,844.936,127.604,837.784,127.668"/>
		<path fill="#A1CC3A" d="M892.69,135.526v5.891c9.981-7.841,20.612-12.446,31.793-13.843c11.161-1.396,19.124,3.744,23.765,15.358
			c7.625-6.842,15.092-11.383,22.521-13.656c7.383-2.286,15.156-2.102,23.383,0.567c8.248,2.643,12.021,11.267,11.392,25.797v66.015
			c-1.032,4.512-4.575,6.813-10.725,6.813c-6.116,0-9.457-2.346-9.916-7.028v-63.345c-0.278-15.547-11.971-16.925-35.124-4.158
			v68.256c-0.094,4.19-3.701,6.275-10.682,6.275c-7.061,0-10.526-2.208-10.526-6.646v-62.946c0-15.699-11.726-17.707-35.115-6.074
			v69.02c-0.272,4.437-3.772,6.646-10.526,6.646c-6.751,0-10.186-2.301-10.321-6.813v-85.72c-0.403-5.324,2.864-8.021,9.758-8.072
			C889.237,127.787,892.69,130.352,892.69,135.526"/>
		<path fill="#A1CC3A" d="M1069.19,230.081c-11.198-0.428-21.449-4.818-30.735-13.104c-9.299-8.257-14.205-20.134-14.67-35.541
			c-0.537-15.438,3.639-28.434,12.467-38.978c8.883-10.557,20.144-15.991,33.862-16.311c13.71-0.308,24.974,3.038,33.687,10.051
			c8.713,7.016,13.328,19.69,13.824,38.026c-0.124,6.306-3.044,10.19-8.713,11.584h-64.313c0.629,7.324,3.853,13.229,9.587,17.728
			c5.784,4.496,12.857,6.737,21.347,6.737c8.456,0,15.545-3.238,21.224-9.683c3.434-4.93,7.888-5.817,13.393-2.656
			c5.478,3.177,5.908,8.408,1.234,15.745c-4.684,5.691-10.09,9.958-16.239,12.797C1089.037,229.315,1080.353,230.51,1069.19,230.081
			 M1060.57,146.16c-8.254,2.897-13.365,9.912-15.408,21.038h52.194c-1.141-11.126-5.514-18.14-13.108-21.038
			C1076.636,143.242,1068.748,143.242,1060.57,146.16"/>
	</g>
	<g>
		<path fill="#A1CC3A" d="M256.373,109.913c0,2.096-0.207,4.247-0.669,6.372l-5.18,23.929l-1.106,5.065l-4.398,20.287l-0.118,0.555
			l-1.947,8.996l-4.335,20.026l-0.44,2.01l-1.658,7.71l-0.869,3.992l-1.84,8.412l-0.927,4.366c-0.731,3.345-2.886,6.229-5.914,7.827
			l-1.626,0.875l-5.184,2.737l-35.339,18.802h-0.027l-6.082,3.229l-17.004,9.026c-2.066,1.108-4.274,1.808-6.547,2.124l-0.083,0.034
			c-0.44,0.087-0.905,0.143-1.37,0.171c-1.024,0.058-2.07,0.058-3.091,0c-0.434-0.028-0.874-0.083-1.307-0.143h-0.035
			c-2.318-0.353-4.564-1.078-6.686-2.186l-65.234-34.669c-3.025-1.599-5.183-4.482-5.911-7.827l-0.93-4.308v-0.058L59.425,166.12
			l-0.057-0.321l-10.742-49.514c-0.465-2.125-0.666-4.276-0.666-6.372v-0.204c0-0.292,0-0.585,0.053-0.9v-0.093
			c0.499-10.999,7.25-21.015,17.788-25.441l78.479-32.949c5.032-2.095,10.706-2.095,15.746,0l78.507,32.949
			c10.563,4.426,17.315,14.5,17.78,25.534C256.373,109.183,256.373,109.536,256.373,109.913"/>
		<path fill="#5C7936" d="M48.11,111.256l20.958,101.582c1.246,6.053,5.052,11.216,10.382,14.093l69.718,39.339
			c1.357,0.738,2.997-0.279,2.997-1.854v-99.53c0-8.794-4.947-16.793-12.692-20.534L58.04,103.17
			C52.752,100.615,46.896,105.38,48.11,111.256"/>
		<path fill="#C6D93F" d="M256.373,109.913c0,0.437-0.061,0.875-0.148,1.337l-5.908,28.704l-1.077,5.09l-4.22,20.521l-0.118,0.555
			l-1.833,8.877l-4.164,20.174l-0.406,2.04l-1.658,7.974l-0.809,4.017v0.028l-0.763,3.614c-0.319,1.542-0.788,3.024-1.457,4.422
			c-1.801,4.047-4.857,7.393-8.731,9.545l-0.201,0.118l-4.604,2.592l-37.722,21.271l-5.821,3.297l-21.57,12.161l-0.083,0.034
			c-0.44,0.229-0.938,0.263-1.37,0.171c-0.847-0.234-1.544-1.017-1.544-2.036v-99.522c0-8.822,4.95-16.797,12.689-20.551
			l81.445-41.19c4.516-2.182,9.466,0.992,10.013,5.65C256.373,109.183,256.373,109.536,256.373,109.913"/>
		<path fill="#E6EDB5" d="M249.418,145.279L249.418,145.279l-4.398,20.29l-0.118,0.552l-1.833,8.877l-4.159,20.174l-0.411,2.04
			l-1.655,7.974l-0.812,4.017v0.028l-0.763,3.607c-0.319,1.548-0.788,3.031-1.457,4.422l-0.927,4.367
			c-0.731,3.351-2.886,6.234-5.911,7.838l-1.629,0.87l0.061,0.643l-5.272,2.764l-34.96,18.252l-23.907,14.508l17.447-11.399
			c-0.381-0.14-18.756,10.817-19.686,10.267c-6.084-3.61-1.404-28.563-4.446-70.169c-3.687-50.417,32.39-56.405,42.98-63.346
			c6.706-3.267,52.025-28.448,58.663-20.603C252.512,126.82,249.354,145.189,249.418,145.279"/>
		<path fill="#A1CC3A" d="M249.709,145.352c0.902-3.639,1.843-7.263,2.827-10.89c0.609-2.26,1.579-4.41,2.145-6.676
			c0.648-2.626,0.76-5.355,0.67-8.054c-0.028-1.011-0.108-2.066-0.617-2.935c-1.148-1.965-3.897-2.15-6.152-1.865
			c-7.994,0.999-15.315,4.843-22.435,8.616c-1.897,1.005-3.825,2.04-5.295,3.603c-2.91,3.116-1.484,7.465-1.184,11.342
			c0.325,4.206,0.651,8.405,0.974,12.613c0.908,11.666,1.819,23.34,2.721,35.012c0.174,2.272,3.403,3.082,4.833,1.224l16.824-21.774
			C246.495,158.762,248.04,152.044,249.709,145.352"/>
		<path fill="#A1CC3A" d="M209.148,132.038c-12.358,2.741-23.573,11.449-30.011,18.138c-1.383,1.435-1.314,3.583,0.193,4.917
			l37.694,33.325c1.61,1.431,4.316,0.246,4.071-1.779l-6.215-51.827C214.582,132.322,211.842,131.438,209.148,132.038"/>
		<path fill="#A1CC3A" d="M170.974,158.512c-7.052,7.114-12.157,26.062-12.491,39.316c-0.057,2.129,2.139,3.732,4.46,3.356
			l50.886-7.871c1.602-0.257,2.198-2.043,1.029-3.053l-37.843-32.776C175.143,155.855,172.706,156.767,170.974,158.512"/>
		<path fill="#A1CC3A" d="M215.784,196.034l-54.472,11.622c-1.259,0.273-2.127,1.399-2.042,2.677
			c0.312,4.714,0.594,12.763,1.356,20.451c0.391,3.953-0.124,12.774,9.011,5.027l47.678-36.747
			C218.763,197.888,217.595,195.588,215.784,196.034"/>
		<path fill="#A1CC3A" d="M218.411,201.65c-8.606,6.883-17.223,14.493-25.827,21.383l-13.61,10.883
			c-5.013,4.008-8.521,5.795-13.421,9.957c-0.619,0.518-3.181,2.653-3.55,3.362c-0.471,0.907-0.466,1.955-0.431,2.966
			c0.161,4.481,0.766,8.956,1.807,13.336c0.057,0.234,14.513-5.671,15.787-6.292c2.606-1.267,5.145-2.649,7.654-4.086
			c2.091-1.207,4.753-3.065,6.895-4.047c6.693-3.076,11.934-6.021,19.674-10.218c1.797-0.976,6.713-2.499,6.766-4.35l0.965-31.833
			C221.149,201.474,219.452,200.813,218.411,201.65"/>
		<path fill="#A1CC3A" d="M243.068,174.998l-0.114,0.119l-14.232,13.623c-1.748,1.661-0.788,4.424,1.718,4.891l8.18,1.513
			l0.29,0.029L243.068,174.998z"/>
		<path fill="#A1CC3A" d="M238.498,197.211l-1.655,7.974l-0.322-0.322l-8.409-8.15c-0.673-0.667,0-1.716,0.958-1.513l9.109,1.953
			L238.498,197.211z"/>
		<path fill="#A1CC3A" d="M236.031,209.202v0.028l-0.763,3.614c-0.319,1.534-0.788,3.024-1.457,4.422l-0.927,4.366
			c-0.731,3.345-2.886,6.229-5.911,7.827l-1.629,0.875l-0.265-3.519l-1.897-24.92c-0.082-2.443,2.162-3.204,3.849-1.312l8.62,8.271
			L236.031,209.202z"/>
		<path fill="#E6EDB5" d="M217.479,209.293c0,0-9.536,25.452-8.18,26.416C210.657,236.674,217.479,209.293,217.479,209.293"/>
		<path fill="#E6EDB5" d="M225.714,205.185c0,0,4.518,20.752,5.326,20.666C231.853,225.762,225.714,205.185,225.714,205.185"/>
		<path fill="#384E61" d="M256.373,109.913h-4.381c0,1.808-0.179,3.653-0.572,5.434l-5.184,23.939l-1.099,5.055l-4.408,20.326
			l-0.12,0.546l0.015-0.022l-1.952,8.996l-4.338,20.033l-0.44,1.996l-0.008,0.052l-1.648,7.677l-0.868,3.973l-1.848,8.412
			l-0.927,4.389l0.003-0.017c-0.457,2.1-1.813,3.9-3.676,4.887l-0.018,0.004l-1.635,0.88l0.021-0.017l-5.173,2.74l-35.354,18.804
			l2.058,3.872v-4.381h-0.027h-1.092l-7.048,3.743l-17.029,9.042l0.009-0.013c-1.593,0.858-3.296,1.4-5.083,1.652l-0.433,0.062
			l-0.494,0.169l1.454,4.139l-0.862-4.298c-0.22,0.046-0.499,0.081-0.777,0.097l0.019-0.005c-0.432,0.026-0.859,0.039-1.296,0.039
			c-0.431,0-0.868-0.013-1.293-0.039l0.036,0.005c-0.237-0.016-0.577-0.057-1.017-0.118l-0.287-0.034h-0.325v4.382l0.658-4.337
			c-1.854-0.283-3.618-0.85-5.326-1.734l0.035,0.014L79.414,225.59h-0.006c-1.862-0.981-3.224-2.787-3.676-4.887l-0.934-4.303
			l-4.283,0.924h4.386v-0.058v-0.472l-11.174-51.527l-0.047-0.238l-0.009-0.081L52.91,115.356l-0.003-0.009
			c-0.391-1.781-0.566-3.623-0.566-5.434v-0.204l0.005-0.227l-0.871-0.043l0.853,0.157l0.019-0.114l-0.871-0.043l0.853,0.157
			l0.071-0.39v-0.49h-4.386l4.383,0.201c0.418-9.334,6.144-17.838,15.101-21.595l78.476-32.954l-0.019,0.009
			c1.984-0.828,4.089-1.24,6.193-1.24c2.109,0,4.219,0.412,6.196,1.24l-0.013-0.009l78.504,32.954
			c8.973,3.75,14.701,12.308,15.095,21.671l0.017,0.252l0.044,0.247l0.093-0.014l-0.093,0.007v0.007l0.093-0.014l-0.093,0.007
			c0,0.016,0.003,0.142,0.003,0.428H256.373h4.383c-0.008-0.371,0.007-0.991-0.111-1.793l-4.332,0.688l4.376-0.186
			c-0.527-12.704-8.311-24.292-20.467-29.388l-78.513-32.953l-0.007-0.004c-3.05-1.267-6.304-1.908-9.556-1.908
			c-3.245,0-6.5,0.641-9.556,1.908l-0.038,0.016l-78.448,32.94C51.986,84.328,44.2,95.85,43.639,108.524l-0.006,0.095v0.189h4.38
			l-4.306-0.79c-0.147,0.79-0.13,1.403-0.133,1.69v0.204c0,2.379,0.229,4.84,0.77,7.313l10.725,49.423l0.044,0.239l0.011,0.083
			L66.235,218.2l4.28-0.933h-4.383v0.058v0.469l1.029,4.766v0.005c0.998,4.59,3.952,8.554,8.146,10.77l65.24,34.677l0.016,0.011
			c2.542,1.325,5.263,2.208,8.071,2.628l0.319,0.05h0.357v-4.385l-0.579,4.344c0.433,0.055,0.97,0.13,1.604,0.177h0.015h0.017
			c0.596,0.036,1.193,0.052,1.795,0.052c0.598,0,1.194-0.016,1.796-0.052h0.011c0.654-0.04,1.314-0.122,1.962-0.25l0.304-0.063
			l0.376-0.131l-1.448-4.139l0.611,4.344c2.752-0.389,5.467-1.244,8-2.597l-0.007,0.007l17.002-9.024l6.078-3.236l-2.052-3.872
			v4.385h0.027h1.096l36.301-19.316l5.189-2.742l1.63-0.879l-0.016,0.012c4.194-2.215,7.137-6.18,8.146-10.77l0.932-4.391v0.029
			l1.829-8.414l0.882-4.017l1.652-7.7l0.437-1.998l4.336-20.032l1.953-9.022l0.119-0.546l-0.008,0.021l4.396-20.29l1.106-5.056
			l5.185-23.936v0.013c0.537-2.47,0.77-4.931,0.77-7.313H256.373z"/>
		<path fill="#E6EDB5" d="M225.728,181.502c0.329-2.535,0.713-10.476,0.834-15.489c0.118-4.953,0.576-10.85-0.186-15.654
			c-1.618,2.45-0.895,11.633-0.941,14.99C225.374,170.743,225.474,176.133,225.728,181.502"/>
		<path fill="#E6EDB5" d="M215.418,180.688l-10.95-21.524c-0.766-1.504-1.553-3.163-1.185-4.815c0.388-0.301,0.874,0.249,1.058,0.71
			C207.351,162.36,212.404,173.387,215.418,180.688"/>
		<path fill="#E6EDB5" d="M215.651,182.993c-2.837-3.277-5.666-6.554-8.49-9.828c-0.592-0.689-1.218-1.452-1.106-2.318l0.713,0.254
			C209.207,174.504,213.205,179.589,215.651,182.993"/>
		<path fill="#E6EDB5" d="M228.789,180.688c0,0,2.304-22.026,3.279-23.063C233.03,156.593,228.789,180.688,228.789,180.688"/>
		<path fill="#E6EDB5" d="M178.146,178.426l27.896,11.158C206.042,189.583,177.47,175.391,178.146,178.426"/>
		<path fill="#E6EDB5" d="M203.188,190.435c0,0-25.256,0.238-25.048,0.85C178.337,191.892,203.188,190.435,203.188,190.435"/>
		<path fill="#E6EDB5" d="M211.324,199.522c0,0-23.012,8.863-20.667,9.221C193.005,209.111,211.324,199.522,211.324,199.522"/>
		<path fill="#E6EDB5" d="M213.389,212.991c0,0-7.036,11.947-6.432,12.219C207.564,225.48,213.389,212.991,213.389,212.991"/>
		<path fill="#E6EDB5" d="M214.681,208.992c0,0-22.98,21.848-22.98,22.723C191.7,232.593,214.681,208.992,214.681,208.992"/>
	</g>
</g>
</svg>
