<?xml version="1.0" encoding="UTF-8"?>
<svg width="314px" height="328px" viewBox="0 0 314 328" version="1.1" xmlns="http://www.w3.org/2000/svg" xmlns:xlink="http://www.w3.org/1999/xlink">
    <!-- Generator: Sketch 48.2 (47327) - http://www.bohemiancoding.com/sketch -->
    <title>bl-icon</title>
    <desc>Created with Sketch.</desc>
    <defs></defs>
    <g id="Homepage" stroke="none" stroke-width="1" fill="none" fill-rule="evenodd" transform="translate(-563.000000, -817.000000)">
        <g id="bl-icon" transform="translate(567.000000, 821.000000)">
            <path d="M305.3012,89.9204 C305.3072,93.0584 304.9742,96.1844 304.3112,99.2504 L296.7212,134.2304 L295.1012,141.6404 L288.6812,171.3104 L288.5012,172.1204 L285.5012,185.2604 L279.1712,214.5404 L278.5412,217.5404 L276.1112,228.8204 L275.0012,234.6104 L272.3312,246.9104 L270.9812,253.3004 C269.9282,258.2084 266.7662,262.3994 262.3412,264.7604 L260.0012,265.9904 L252.4112,269.9804 L200.7512,297.4904 L191.7512,302.2004 L167.0012,315.4604 C164.0102,317.0114 160.7732,318.0284 157.4312,318.4604 C156.7682,318.5954 156.0962,318.6854 155.4212,318.7304 C153.9212,318.8144 152.4212,318.8144 150.9212,318.7304 L149.0012,318.5204 C145.5872,318.0104 142.2812,316.9364 139.2212,315.3404 L44.0012,264.6404 C39.4652,262.3844 36.1652,258.2324 35.0012,253.3004 L33.6512,247.0004 L17.2712,172.0004 L17.2712,171.5204 L1.5212,99.2504 C0.8582,96.1844 0.5252,93.0584 0.5312,89.9204 L0.5312,89.6204 C0.4892,89.1824 0.4892,88.7384 0.5312,88.3004 C1.2782,71.9144 11.4092,57.4304 26.5412,51.1004 L141.3812,2.8004 C148.7552,-0.2656 157.0472,-0.2656 164.4212,2.8004 L279.2312,50.9804 C294.4022,57.3284 304.5392,71.8694 305.2412,88.3004 C305.3012,88.8404 305.3222,89.3774 305.3012,89.9204" id="Fill-1" fill="#A4CF25"></path>
            <path d="M0.7706,91.9916 L31.4006,240.4316 C33.1706,249.2036 38.7266,256.7456 46.5806,261.0416 L148.5806,318.5786 C150.0506,319.3436 151.8626,318.7706 152.6246,317.2976 C152.8556,316.8506 152.9726,316.3526 152.9606,315.8486 L152.9606,170.3186 C153.0206,157.5896 145.8116,145.9436 134.3906,140.3186 L15.2906,79.9916 C10.0586,77.5646 3.8516,79.8386 1.4276,85.0706 C0.4256,87.2336 0.1946,89.6786 0.7706,91.9916" id="Fill-3" fill="#5B7830"></path>
            <path d="M305.3012,89.9204 C305.2682,90.6164 305.1692,91.3124 305.0012,91.9904 L296.3612,133.9904 L294.8012,141.4304 L288.6212,171.4304 L288.4412,172.2404 L285.8612,184.9904 L279.8612,214.4804 L279.2612,217.4804 L276.8312,229.1504 L275.6312,235.1504 L274.5212,240.4304 C274.0772,242.6684 273.3602,244.8464 272.3912,246.9104 C269.7452,252.8174 265.2632,257.7104 259.6112,260.8604 L259.3112,261.0404 L252.5312,264.8204 L197.3612,295.9904 L188.8412,300.7904 L157.3112,318.5804 C155.8052,319.2764 154.0232,318.6194 153.3272,317.1164 C153.1442,316.7204 153.0512,316.2884 153.0512,315.8504 L153.0512,170.3204 C152.9912,157.5914 160.2002,145.9454 171.6212,140.3204 L290.5712,79.9904 C295.8782,77.6534 302.0732,80.0594 304.4132,85.3634 C305.0372,86.7794 305.3402,88.3154 305.3012,89.8604 L305.3012,89.9204 Z" id="Fill-5" fill="#C8EF37"></path>
            <path d="M295.1309,141.641 L288.7109,171.311 L288.5309,172.121 L285.8609,184.991 L279.8609,214.478 L279.2609,217.478 L276.8309,229.151 L275.6309,235.151 L274.5209,240.431 C274.0769,242.669 273.3599,244.844 272.3909,246.911 L271.0409,253.301 C269.9879,258.206 266.8259,262.4 262.4009,264.761 L260.0009,265.991 L260.0009,266.921 L252.2909,270.968 L201.2909,297.671 L166.3409,318.881 C166.3409,318.881 192.1109,302.348 191.8409,302.201 C191.5709,302.051 164.4209,318.011 163.0409,317.201 C154.0409,311.921 161.0009,275.441 156.5309,214.598 C151.1309,140.861 203.9009,132.098 219.5309,121.958 C229.1309,117.251 295.4009,80.411 305.0009,91.991 C299.6609,114.641 295.0409,141.521 295.1309,141.641" id="Fill-7" fill="#E9FAB5"></path>
            <path d="M295.5512,141.7613 C296.8712,136.4423 298.2512,131.1293 299.6912,125.8283 C300.5912,122.5313 302.0012,119.3813 302.6912,116.0513 C303.5582,112.1963 303.8912,108.2363 303.6812,104.2913 C303.7382,102.8093 303.4292,101.3333 302.7812,100.0013 C301.1012,97.0013 297.0812,97.0013 293.7812,97.2713 C282.0812,98.7413 271.3712,104.3483 260.9612,109.8713 C258.1082,111.1913 255.4922,112.9733 253.2212,115.1513 C248.9612,119.7083 251.0312,126.0713 251.4812,131.7413 L252.9212,150.1913 L257.0012,201.3713 C257.3642,203.5463 259.4192,205.0133 261.5942,204.6503 C262.5782,204.4853 263.4662,203.9573 264.0812,203.1713 L288.6812,171.3383 C290.8712,161.3483 293.0012,151.5413 295.5512,141.7613" id="Fill-9" fill="#A4CF25"></path>
            <path d="M236.2412,122.2904 C218.2412,126.3104 201.7712,139.0304 192.3512,148.8104 C190.4552,150.7094 190.4552,153.7814 192.3512,155.6804 L192.7112,156.0104 L247.7612,204.7274 C249.1652,206.0894 251.4062,206.0504 252.7652,204.6464 C253.4192,203.9714 253.7792,203.0624 253.7612,202.1204 L244.7612,126.3404 C244.1912,122.7104 240.2012,121.3904 236.2412,122.2904" id="Fill-11" fill="#A4CF25"></path>
            <path d="M180.4409,160.9916 C170.0009,171.4016 162.6509,199.0886 162.1709,218.5016 C162.3479,221.4596 164.8889,223.7186 167.8499,223.5416 L167.8709,223.5416 L168.6809,223.5416 L243.1109,211.9916 C244.5149,211.8956 245.5769,210.6776 245.4839,209.2766 C245.4389,208.5956 245.1239,207.9656 244.6109,207.5216 L189.2909,159.5216 C186.5309,157.1216 182.9609,158.4386 180.4409,160.9916" id="Fill-13" fill="#A4CF25"></path>
            <path d="M245.9606,215.8619 L166.3106,232.9919 C164.4656,233.3639 163.1846,235.0439 163.3106,236.9219 C163.7606,243.8189 164.1806,255.5789 165.2906,266.9219 C165.8606,272.7089 165.1106,285.6119 178.4606,274.2719 L248.2106,220.2719 C249.2966,219.3749 249.4556,217.7699 248.5586,216.6809 C247.9316,215.9189 246.9176,215.5859 245.9606,215.8289 L245.9606,215.8619 Z" id="Fill-15" fill="#A4CF25"></path>
            <path d="M249.8012,223.9916 C237.2012,234.1616 224.6312,245.2616 212.0012,255.3386 L192.1112,271.2416 C184.7912,277.2416 179.6312,279.7286 172.4912,285.7916 C170.6102,287.2646 168.8732,288.9116 167.3012,290.7086 C166.7252,292.0706 166.5062,293.5586 166.6712,295.0316 C166.9052,301.6016 167.7902,308.1326 169.3112,314.5316 C169.3112,314.8616 190.5212,306.2516 192.3812,305.3186 C196.1912,303.4586 199.9112,301.4486 203.5712,299.3186 C206.5712,297.9686 209.5712,293.8616 212.5712,293.3186 C224.9012,289.2716 235.2512,280.1816 246.5612,274.0586 C249.0812,272.8016 252.1112,275.1986 252.2912,272.3816 L253.7012,225.8186 C253.6772,224.4956 252.5822,223.4396 251.2562,223.4636 C250.7282,223.4726 250.2152,223.6586 249.8012,223.9916" id="Fill-17" fill="#A4CF25"></path>
            <path d="M285.8615,184.9916 L285.6815,185.1716 L264.8615,205.0886 C263.2115,206.6966 263.1755,209.3366 264.7805,210.9866 C265.4735,211.6976 266.3945,212.1386 267.3815,212.2286 L279.3815,214.4486 L279.8015,214.4486 L285.8615,184.9916 Z" id="Fill-19" fill="#A4CF25"></path>
            <path d="M279.17,217.5698 L276.74,229.2428 L276.26,228.7598 L263.96,216.7598 C263.438,216.2288 263.447,215.3738 263.978,214.8518 C264.344,214.4918 264.884,214.3718 265.37,214.5398 L278.69,217.5398 L279.17,217.5698 Z" id="Fill-21" fill="#A4CF25"></path>
            <path d="M275.5709,235.1216 L274.4609,240.4016 C274.0169,242.6396 273.3029,244.8146 272.3309,246.8816 L270.9809,253.2716 C269.9279,258.1766 266.7659,262.3676 262.3409,264.7286 L260.0009,265.9916 L259.6109,260.8286 L257.0009,224.3816 C257.0009,220.8086 260.0009,219.6986 262.6109,222.4586 L275.2109,234.4586 L275.5709,235.1216 Z" id="Fill-23" fill="#A4CF25"></path>
            <path d="M248.4509,235.2416 C248.4509,235.2416 234.5009,272.4686 236.4509,273.8816 C238.4009,275.2916 248.4509,235.2416 248.4509,235.2416" id="Fill-25" fill="#E9FAB5"></path>
            <path d="M260.48,229.2416 C260.48,229.2416 267.11,259.5986 268.28,259.4486 C269.45,259.3016 260.48,229.2416 260.48,229.2416" id="Fill-27" fill="#E9FAB5"></path>
            <path d="M305.3012,89.9204 C305.3072,93.0584 304.9742,96.1844 304.3112,99.2504 L296.7212,134.2304 L295.1012,141.6404 L288.6812,171.3104 L288.5012,172.1204 L285.5012,185.2604 L279.1712,214.5404 L278.5412,217.5404 L276.1112,228.8204 L275.0012,234.6104 L272.3312,246.9104 L270.9812,253.3004 C269.9282,258.2084 266.7662,262.3994 262.3412,264.7604 L260.0012,265.9904 L252.4112,269.9804 L200.7512,297.4904 L191.7512,302.2004 L167.0012,315.4604 C164.0102,317.0114 160.7732,318.0284 157.4312,318.4604 C156.7682,318.5954 156.0962,318.6854 155.4212,318.7304 C153.9212,318.8144 152.4212,318.8144 150.9212,318.7304 L149.0012,318.5204 C145.5872,318.0104 142.2812,316.9364 139.2212,315.3404 L44.0012,264.6404 C39.4652,262.3844 36.1652,258.2324 35.0012,253.3004 L33.6512,247.0004 L17.2712,172.0004 L17.2712,171.5204 L1.5212,99.2504 C0.8582,96.1844 0.5252,93.0584 0.5312,89.9204 L0.5312,89.6204 C0.4892,89.1824 0.4892,88.7384 0.5312,88.3004 C1.2782,71.9144 11.4092,57.4304 26.5412,51.1004 L141.3812,2.8004 C148.7552,-0.2656 157.0472,-0.2656 164.4212,2.8004 L279.2312,50.9804 C294.4022,57.3284 304.5392,71.8694 305.2412,88.3004 C305.3012,88.8404 305.3222,89.3774 305.3012,89.9204 Z" id="Stroke-29" stroke="#374D61" stroke-width="9"></path>
            <path d="M245.7512,72.521 C242.7512,75.848 243.4112,82.301 247.7012,83.348 C248.9702,83.546 250.2692,83.423 251.4812,82.991 L252.4412,82.718 C257.9312,81.098 280.7312,76.181 275.2712,69.458 C269.8112,62.741 250.0712,67.571 245.7512,72.521" id="Fill-31" fill="#E9FAB5"></path>
            <path d="M231.6812,61.9916 C230.8952,62.4866 230.4452,63.3746 230.5112,64.3016 C230.5532,64.4816 230.6222,64.6526 230.7212,64.8086 L231.0512,65.2616 C233.6012,68.2616 240.0512,69.0686 240.0512,64.0016 C240.0512,58.9286 234.7112,59.4116 231.6812,61.9916" id="Fill-33" fill="#E9FAB5"></path>
            <path d="M260.5109,194.6216 C260.9909,190.9316 261.5609,179.2916 261.7409,171.9686 C262.2869,164.3156 262.1879,156.6296 261.4409,148.9916 C259.0709,152.5586 260.1209,166.0016 260.0609,170.9216 C260.0189,178.8596 260.1719,186.7616 260.5109,194.6216" id="Fill-35" fill="#E9FAB5"></path>
            <path d="M245.42,193.4204 L229.4,161.9504 C228.047,159.8924 227.435,157.4414 227.66,154.9904 C228.23,154.5404 228.92,155.3504 229.22,156.0104 C233.63,166.6904 241.01,182.8304 245.42,193.5104" id="Fill-37" fill="#E9FAB5"></path>
            <path d="M245.7512,196.7807 L233.3312,182.4107 C232.3502,181.5407 231.7742,180.3017 231.7412,178.9907 C232.0712,178.7177 232.5512,178.9907 232.7912,179.3477 C236.3612,184.3307 242.2112,191.7707 245.7812,196.7507" id="Fill-39" fill="#E9FAB5"></path>
            <path d="M264.98,193.4204 C264.98,193.4204 268.34,161.2004 269.78,159.7004 C271.22,158.2004 264.98,193.4204 264.98,193.4204" id="Fill-41" fill="#E9FAB5"></path>
            <path d="M191.0012,190.1216 L231.8012,206.4386 C231.8012,206.4386 189.9212,185.6816 191.0012,190.1216" id="Fill-43" fill="#E9FAB5"></path>
            <path d="M227.54,207.6704 C227.54,207.6704 190.61,208.0304 191,208.9904 C191.39,209.9504 227.54,207.6704 227.54,207.6704" id="Fill-45" fill="#E9FAB5"></path>
            <path d="M239.4509,220.9916 C239.4509,220.9916 205.7909,233.9486 209.2409,234.4916 C212.6909,235.0316 239.4509,220.9916 239.4509,220.9916" id="Fill-47" fill="#E9FAB5"></path>
            <path d="M242.4509,240.6704 C242.4509,240.6704 232.1609,258.1304 233.0609,258.6704 C233.9609,259.2104 242.4509,240.6704 242.4509,240.6704" id="Fill-49" fill="#E9FAB5"></path>
            <path d="M244.3403,234.8198 C244.3403,234.8198 210.7403,266.7698 210.7403,268.0598 C210.7403,269.3498 244.3403,234.8198 244.3403,234.8198" id="Fill-51" fill="#E9FAB5"></path>
        </g>
    </g>
</svg>