<?xml version="1.0" encoding="utf-8"?>
<!-- Generator: Adobe Illustrator 16.0.0, SVG Export Plug-In . SVG Version: 6.00 Build 0)  -->
<!DOCTYPE svg PUBLIC "-//W3C//DTD SVG 1.1//EN" "http://www.w3.org/Graphics/SVG/1.1/DTD/svg11.dtd">
<svg version="1.1" id="Layer_1" xmlns="http://www.w3.org/2000/svg" xmlns:xlink="http://www.w3.org/1999/xlink" x="0px" y="0px"
	 width="103px" height="103px" viewBox="0 0 103 103" enable-background="new 0 0 103 103" xml:space="preserve">
<title>bw-bitcoin</title>
<desc>Created with Sketch.</desc>
<g id="Homepage" transform="translate(-859.000000, -1892.000000)">
	<g id="bw-bitcoin" transform="translate(860.000000, 1893.000000)">
		<circle id="Oval-Copy-5" fill="none" stroke="#8295A5" stroke-width="0.9" cx="50.5" cy="50.5" r="50.5"/>
		<g>
			<circle fill-rule="evenodd" clip-rule="evenodd" fill="#F89F34" cx="51" cy="51" r="27"/>
			<path fill-rule="evenodd" clip-rule="evenodd" fill="#FFFFFF" d="M62.166,49.619c0.7-1.298,0.983-2.679,0.824-4.147
				c0.114-0.394-0.009-0.746-0.17-1.102c-0.454-1.012-1.214-1.754-2.098-2.385c-0.898-0.641-1.897-1.091-2.922-1.49
				c-0.461-0.179-0.507-0.274-0.399-0.729c0.166-0.691,0.337-1.38,0.518-2.068c0.088-0.337,0.163-0.671,0.063-1.019
				c0.063-0.267,0.113-0.538,0.191-0.8c0.073-0.249,0.005-0.356-0.254-0.416c-0.742-0.168-1.483-0.347-2.216-0.556
				c-0.343-0.098-0.45,0.006-0.527,0.333c-0.311,1.324-0.655,2.642-0.977,3.964c-0.063,0.258-0.155,0.352-0.437,0.272
				c-0.528-0.149-1.063-0.28-1.604-0.376c-0.339-0.061-0.426-0.178-0.335-0.522c0.348-1.315,0.659-2.64,1.002-3.957
				c0.08-0.305-0.001-0.429-0.299-0.497c-0.73-0.166-1.46-0.343-2.181-0.544c-0.313-0.087-0.418,0.014-0.488,0.306
				c-0.318,1.323-0.653,2.643-0.983,3.962c-0.128,0.509-0.13,0.513-0.65,0.384c-1.696-0.421-3.392-0.843-5.087-1.269
				c-0.195-0.048-0.366-0.099-0.431,0.175c-0.229,0.972-0.465,1.941-0.698,2.912c0.203,0.121,0.425,0.174,0.662,0.159
				c0.081,0.021,0.159,0.042,0.239,0.064c0.483,0.069,0.951,0.204,1.414,0.358c0.972,0.324,1.353,1.021,1.107,2.01
				c-0.47,1.891-0.939,3.782-1.411,5.672c-0.593,2.375-1.185,4.75-1.781,7.125c-0.184,0.727-0.66,1.039-1.393,0.889
				c-0.575-0.119-1.147-0.254-1.708-0.424c-0.337-0.102-0.502-0.051-0.644,0.299c-0.354,0.881-0.757,1.74-1.14,2.607
				c-0.211,0.008-0.282,0.143-0.27,0.326c0.013,0.176,0.136,0.254,0.298,0.289c0.329,0.072,0.656,0.156,0.982,0.242
				c1.367,0.352,2.745,0.66,4.104,1.045c0.381,0.109,0.437,0.215,0.355,0.602c-0.022,0.109-0.052,0.219-0.078,0.328
				c-0.293,1.188-0.605,2.373-0.884,3.564c-0.103,0.434-0.048,0.551,0.327,0.654c0.769,0.219,1.545,0.412,2.326,0.582
				c0.42,0.094,0.555-0.006,0.676-0.434c0.138-0.482,0.247-0.971,0.371-1.455c0.197-0.773,0.379-1.553,0.587-2.324
				c0.107-0.393,0.234-0.467,0.628-0.381c0.269,0.057,0.536,0.123,0.799,0.203c0.618,0.184,0.662,0.26,0.509,0.877
				c-0.292,1.189-0.604,2.373-0.882,3.566c-0.112,0.477-0.027,0.605,0.437,0.734c0.687,0.191,1.386,0.328,2.077,0.502
				c0.595,0.148,0.683,0.094,0.837-0.506c0.31-1.211,0.604-2.424,0.913-3.637c0.132-0.516,0.237-0.584,0.77-0.494
				c1.56,0.262,3.134,0.379,4.699,0.158c2.572-0.363,4.256-1.828,5.066-4.293c0.144-0.439,0.259-0.887,0.471-1.301
				c0.025-0.104,0.044-0.209,0.05-0.314c-0.019-0.898,0.029-1.799-0.132-2.688c0.002-0.146-0.092-0.254-0.142-0.381
				c-0.187-0.469-0.554-0.797-0.903-1.139c-0.333-0.328-0.63-0.699-1.053-0.926l0.006,0.004c-0.244-0.248-0.582-0.359-0.879-0.596
				c0.527-0.229,1.051-0.367,1.479-0.702l-0.006,0.003C61.412,50.579,61.858,50.168,62.166,49.619z M54.506,58.596
				c-0.644,0.236-1.311,0.311-1.755,0.295c-2.018-0.012-3.719-0.48-5.427-0.912c-0.274-0.07-0.19-0.242-0.149-0.406
				c0.389-1.566,0.779-3.129,1.168-4.693c0.1-0.4,0.207-0.797,0.297-1.199c0.044-0.191,0.117-0.282,0.333-0.232
				c1.727,0.404,3.468,0.766,5.065,1.586c0.594,0.305,1.137,0.68,1.579,1.186C56.898,55.684,56.329,57.924,54.506,58.596z
				 M55.513,48.958c-0.188,0.067-0.382,0.118-0.577,0.156c-0.369,0.072-0.742,0.107-1.118,0.087
				c-1.413-0.019-2.766-0.374-4.118-0.735c-0.169-0.045-0.223-0.136-0.182-0.3c0.45-1.805,0.902-3.61,1.351-5.415
				c0.044-0.178,0.135-0.248,0.325-0.204c1.435,0.333,2.885,0.623,4.194,1.345c0.866,0.479,1.588,1.089,1.79,2.132
				C57.42,47.277,56.713,48.528,55.513,48.958z"/>
		</g>
	</g>
</g>
</svg>
