<?xml version="1.0" encoding="utf-8"?>
<!-- Generator: Adobe Illustrator 16.0.0, SVG Export Plug-In . SVG Version: 6.00 Build 0)  -->
<!DOCTYPE svg PUBLIC "-//W3C//DTD SVG 1.1//EN" "http://www.w3.org/Graphics/SVG/1.1/DTD/svg11.dtd">
<svg version="1.1" id="Layer_1" xmlns="http://www.w3.org/2000/svg" xmlns:xlink="http://www.w3.org/1999/xlink" x="0px" y="0px"
	 width="103px" height="103px" viewBox="0 0 103 103" enable-background="new 0 0 103 103" xml:space="preserve">
<title>bw-hyperledger</title>
<desc>Created with Sketch.</desc>
<g id="Homepage" transform="translate(-859.000000, -2072.000000)">
	<g id="bw-hyperledger" transform="translate(860.000000, 2073.000000)">
		<circle id="Oval-Copy-5" fill="none" stroke="#8295A5" stroke-width="0.9" cx="50.5" cy="50.5" r="50.5"/>
	</g>
</g>
<g>
	<polygon fill="none" stroke="#5D5D5D" stroke-width="0.5" stroke-miterlimit="10" points="32.087,26.253 64.91,23.074 
		83.936,50.377 70.14,80.295 37.171,83.635 18,56.187 	"/>
	<polygon fill="none" stroke="#5D5D5D" stroke-width="0.5" stroke-miterlimit="10" points="64.91,23.074 70.574,49.215 
		70.14,80.295 45.303,71.726 18,56.187 38.042,37.888 	"/>
	<polyline fill="none" stroke="#5D5D5D" stroke-width="0.5" stroke-miterlimit="10" points="83.936,50.377 64.183,67.896 
		37.171,83.635 44.789,71.433 38.042,37.888 32.087,26.253 57.648,33.821 83.936,50.377 70.574,49.215 44.789,71.433 	"/>
	<line fill="none" stroke="#5D5D5D" stroke-width="0.5" stroke-miterlimit="10" x1="38.042" y1="37.888" x2="70.574" y2="49.215"/>
	<polyline fill="none" stroke="#5D5D5D" stroke-width="0.5" stroke-miterlimit="10" points="37.171,83.635 31.507,56.332 
		32.087,26.253 	"/>
	<polygon fill="none" stroke="#5D5D5D" stroke-width="0.25" stroke-miterlimit="10" points="57.648,33.821 64.183,67.896 
		31.507,56.332 	"/>
	<circle fill="#2F3134" cx="83.936" cy="50.424" r="2.291"/>
	<circle fill="#2F3134" cx="58.013" cy="33.821" r="2.291"/>
	<circle fill="#2F3134" cx="64.183" cy="67.896" r="2.291"/>
	<circle fill="#2F3134" cx="37.171" cy="83.635" r="2.291"/>
	<circle fill="#2F3134" cx="31.507" cy="56.332" r="2.291"/>
	<circle fill="#2F3134" cx="31.507" cy="26.253" r="2.291"/>
</g>
</svg>
