<?xml version="1.0" encoding="utf-8"?>
<!-- Generator: Adobe Illustrator 16.0.0, SVG Export Plug-In . SVG Version: 6.00 Build 0)  -->
<!DOCTYPE svg PUBLIC "-//W3C//DTD SVG 1.1//EN" "http://www.w3.org/Graphics/SVG/1.1/DTD/svg11.dtd">
<svg version="1.1" id="Layer_1" xmlns="http://www.w3.org/2000/svg" xmlns:xlink="http://www.w3.org/1999/xlink" x="0px" y="0px"
	 width="103px" height="103px" viewBox="0 0 103 103" enable-background="new 0 0 103 103" xml:space="preserve">
<title>bw-tier</title>
<desc>Created with Sketch.</desc>
<g id="Homepage" transform="translate(-669.000000, -2072.000000)">
	<g id="bw-tier" transform="translate(670.000000, 2073.000000)">
		<circle id="Oval-Copy-4" fill="none" stroke="#8295A5" stroke-width="0.9" cx="50.733" cy="50.513" r="50.5"/>
	</g>
	<g>
		<path fill-rule="evenodd" clip-rule="evenodd" fill="#58BF00" d="M747.654,2126.159c0.015-0.438,0.067-0.874,0.139-1.306
			c0.137-0.813,0.354-1.604,0.695-2.357c0.527-1.166,1.292-2.136,2.372-2.84c0.789-0.516,1.653-0.834,2.584-0.981
			c0.687-0.106,1.375-0.132,2.067-0.082c1.388,0.099,2.655,0.524,3.756,1.397c0.825,0.653,1.432,1.478,1.873,2.429
			c0.36,0.777,0.59,1.594,0.729,2.437c0.067,0.403,0.124,0.809,0.125,1.219c0.001,0.087,0.037,0.171,0.024,0.26
			c0,0.01,0,0.019,0,0.029c-0.521,0-1.043,0-1.564,0c-0.029-0.314-0.053-0.63-0.101-0.943c-0.104-0.699-0.258-1.386-0.525-2.043
			c-0.366-0.903-0.885-1.699-1.645-2.323c-0.695-0.574-1.483-0.939-2.379-1.066c-0.488-0.07-0.978-0.09-1.471-0.054
			c-0.566,0.041-1.12,0.144-1.643,0.372c-0.976,0.423-1.735,1.101-2.306,1.994c-0.613,0.958-0.919,2.022-1.079,3.136
			c-0.034,0.24-0.06,0.482-0.089,0.725C748.697,2126.159,748.176,2126.159,747.654,2126.159z"/>
		<path fill-rule="evenodd" clip-rule="evenodd" fill="#50BE00" d="M760.455,2126.363c0.521,0,1.043,0,1.564,0
			c0,0.486,0,0.974,0,1.461c-0.044,0.045-0.024,0.101-0.025,0.152c-0.006,0.253-0.029,0.505-0.071,0.753
			c-0.53,0-1.06,0.001-1.59,0.001c0-0.014-0.003-0.029,0-0.043c0.089-0.548,0.134-1.1,0.134-1.654
			C760.467,2126.811,760.459,2126.586,760.455,2126.363z"/>
		<path fill-rule="evenodd" clip-rule="evenodd" fill="#58BF00" d="M708.747,2119.583c0.002,0.053,0.006,0.107,0.006,0.161
			c0,5.41,0,10.82,0,16.231c0,0.053,0,0.106,0,0.166c-0.073-0.006-0.125-0.043-0.181-0.068c-3.053-1.439-6.104-2.879-9.157-4.317
			c-0.924-0.436-1.847-0.872-2.772-1.304c-0.103-0.048-0.138-0.103-0.138-0.217c0.004-4.267,0.003-8.533,0.003-12.799
			c0-0.024,0.003-0.049,0-0.073c-0.01-0.066,0.024-0.094,0.082-0.114c0.188-0.065,0.375-0.134,0.563-0.202
			c2.782-0.999,5.563-1.996,8.345-2.995c0.05-0.018,0.097-0.044,0.152-0.046c-0.05,0.072-0.022,0.135,0.017,0.202
			c0.189,0.328,0.377,0.656,0.563,0.984c0.152,0.271,0.3,0.543,0.452,0.814c0.202,0.358,0.407,0.715,0.608,1.075
			c0.15,0.265,0.297,0.534,0.447,0.8c0.161,0.286,0.325,0.573,0.486,0.86c0.138,0.245,0.273,0.492,0.414,0.734
			C708.663,2119.519,708.681,2119.578,708.747,2119.583z"/>
		<path fill-rule="evenodd" clip-rule="evenodd" fill="#58BF00" d="M705.066,2113.582c-0.544,0.196-1.087,0.396-1.631,0.591
			c-4.007,1.439-8.015,2.877-12.022,4.319c-0.125,0.045-0.225,0.038-0.343-0.019c-1.309-0.621-2.62-1.239-3.93-1.857
			c-0.035-0.017-0.069-0.035-0.103-0.053c0.011-0.084-0.035-0.149-0.073-0.217c-0.112-0.199-0.227-0.396-0.338-0.595
			c-0.15-0.266-0.296-0.535-0.447-0.801c-0.187-0.33-0.378-0.656-0.563-0.985c-0.203-0.359-0.398-0.723-0.602-1.082
			c-0.268-0.474-0.539-0.944-0.809-1.416c-0.034-0.059-0.046-0.118-0.003-0.177c0.374-0.137,0.747-0.275,1.122-0.411
			c3.761-1.351,7.521-2.7,11.28-4.053c0.129-0.047,0.232-0.041,0.356,0.018c2.039,0.966,4.08,1.928,6.119,2.892
			c0.048,0.022,0.096,0.048,0.144,0.072c-0.104,0.116-0.103,0.116-0.03,0.246c0.153,0.275,0.305,0.552,0.458,0.827
			c0.143,0.259,0.287,0.517,0.432,0.774c0.202,0.358,0.405,0.717,0.608,1.075c0.105,0.186,0.205,0.374,0.317,0.555
			C705.069,2113.38,705.107,2113.471,705.066,2113.582z"/>
		<path fill-rule="evenodd" clip-rule="evenodd" fill="#8DD600" d="M678.99,2121.745c-0.003-0.048-0.009-0.096-0.009-0.145
			c0-1.394,0-2.787,0-4.181c0-0.048-0.007-0.097,0.009-0.145c0.053-0.005,0.09,0.011,0.118,0.063
			c0.075,0.141,0.158,0.278,0.237,0.418c0.107,0.191,0.211,0.382,0.319,0.573c0.195,0.346,0.393,0.691,0.589,1.038
			c0.107,0.19,0.212,0.383,0.319,0.572c0.153,0.271,0.307,0.541,0.459,0.81c0.147,0.263,0.292,0.526,0.44,0.789
			c0.197,0.351,0.398,0.699,0.596,1.051c0.153,0.27,0.301,0.542,0.453,0.813c0.153,0.271,0.309,0.54,0.46,0.81
			c0.15,0.267,0.297,0.535,0.448,0.802c0.159,0.283,0.321,0.564,0.48,0.848c0.105,0.187,0.207,0.374,0.312,0.561
			c0.198,0.351,0.398,0.7,0.596,1.051c0.105,0.187,0.208,0.372,0.313,0.559c0.15,0.267,0.303,0.532,0.453,0.798
			c0.15,0.267,0.297,0.534,0.447,0.801c0.161,0.288,0.324,0.574,0.486,0.861c0.103,0.183,0.203,0.365,0.306,0.546
			c0.198,0.351,0.398,0.701,0.596,1.052c0.104,0.186,0.207,0.373,0.312,0.56c0.15,0.266,0.303,0.53,0.453,0.797
			c0.15,0.267,0.297,0.535,0.447,0.801c0.234,0.414,0.472,0.826,0.705,1.239c0.202,0.36,0.395,0.725,0.602,1.082
			c0.301,0.521,0.595,1.047,0.887,1.572c0.023,0.043,0.043,0.089,0.104,0.088c0.002,0.044,0.007,0.088,0.007,0.131
			c0,1.234,0,2.469,0,3.703c0,0.043,0.007,0.087-0.016,0.145c-0.179-0.068-0.351-0.151-0.519-0.242
			c0.005-0.047-0.014-0.086-0.035-0.125c-0.072-0.132-0.142-0.265-0.216-0.396c-0.195-0.348-0.393-0.692-0.589-1.039
			c-0.107-0.189-0.212-0.382-0.319-0.572c-0.15-0.267-0.302-0.531-0.452-0.798c-0.15-0.267-0.298-0.535-0.448-0.801
			c-0.159-0.283-0.321-0.566-0.48-0.85c-0.105-0.185-0.208-0.372-0.313-0.559c-0.196-0.347-0.393-0.692-0.589-1.039
			c-0.108-0.189-0.212-0.381-0.32-0.572c-0.152-0.27-0.307-0.539-0.458-0.81c-0.148-0.264-0.293-0.526-0.441-0.789
			c-0.198-0.351-0.399-0.699-0.596-1.051c-0.152-0.271-0.301-0.544-0.453-0.814s-0.308-0.539-0.46-0.811
			c-0.15-0.266-0.297-0.533-0.447-0.801c-0.16-0.283-0.321-0.564-0.48-0.849c-0.105-0.186-0.208-0.373-0.313-0.56
			c-0.196-0.346-0.393-0.691-0.588-1.038c-0.108-0.19-0.213-0.382-0.32-0.571c-0.152-0.271-0.307-0.541-0.459-0.812
			c-0.147-0.262-0.292-0.526-0.44-0.788c-0.198-0.351-0.398-0.7-0.596-1.052c-0.153-0.271-0.301-0.543-0.453-0.814
			c-0.187-0.328-0.378-0.656-0.564-0.985c-0.153-0.271-0.299-0.543-0.454-0.814C679.085,2121.808,679.065,2121.743,678.99,2121.745z
			"/>
		<path fill-rule="evenodd" clip-rule="evenodd" fill="#9CDC00" d="M678.99,2121.745c0.075-0.002,0.096,0.063,0.122,0.109
			c0.154,0.271,0.301,0.544,0.454,0.814c0.186,0.33,0.377,0.657,0.564,0.985c0.152,0.271,0.3,0.544,0.453,0.814
			c0.197,0.352,0.398,0.701,0.596,1.052c0.148,0.262,0.293,0.526,0.44,0.788c0.153,0.271,0.307,0.54,0.459,0.812
			c0.107,0.189,0.212,0.381,0.32,0.571c0.196,0.347,0.393,0.692,0.588,1.038c0.105,0.187,0.208,0.374,0.313,0.56
			c0.159,0.284,0.321,0.565,0.48,0.849c0.15,0.268,0.297,0.535,0.447,0.801c0.152,0.271,0.308,0.54,0.46,0.811
			s0.301,0.544,0.453,0.814c0.197,0.352,0.398,0.7,0.596,1.051c0.148,0.263,0.293,0.525,0.441,0.789
			c0.152,0.271,0.306,0.54,0.458,0.81c0.108,0.191,0.212,0.383,0.32,0.572c0.196,0.347,0.393,0.692,0.589,1.039
			c0.105,0.187,0.208,0.374,0.313,0.559c0.16,0.283,0.321,0.566,0.48,0.85c0.15,0.266,0.297,0.534,0.448,0.801
			c0.15,0.267,0.302,0.531,0.452,0.798c0.107,0.19,0.212,0.383,0.319,0.572c0.196,0.347,0.394,0.691,0.589,1.039
			c0.074,0.131,0.145,0.264,0.216,0.396c0.021,0.039,0.041,0.078,0.035,0.125c-0.235-0.093-0.458-0.21-0.686-0.316
			c-1.102-0.519-2.203-1.038-3.303-1.557c-0.035-0.017-0.068-0.038-0.102-0.056c0.019-0.11-0.061-0.181-0.105-0.265
			c-0.115-0.214-0.232-0.426-0.351-0.638c-0.186-0.329-0.376-0.655-0.562-0.985c-0.152-0.271-0.301-0.544-0.453-0.814
			c-0.202-0.359-0.406-0.717-0.608-1.076c-0.15-0.267-0.297-0.533-0.447-0.8c-0.148-0.262-0.3-0.521-0.448-0.783
			c-0.152-0.27-0.3-0.544-0.452-0.813c-0.204-0.364-0.411-0.726-0.616-1.09c-0.148-0.262-0.292-0.525-0.44-0.788
			c-0.153-0.27-0.308-0.538-0.46-0.809c-0.15-0.267-0.297-0.533-0.447-0.8c-0.16-0.284-0.321-0.566-0.48-0.849
			c-0.105-0.186-0.207-0.373-0.312-0.56c-0.189-0.333-0.38-0.664-0.568-0.998c-0.148-0.263-0.292-0.526-0.439-0.788
			c-0.029-0.052-0.066-0.097-0.126-0.114c-0.003-0.049-0.009-0.097-0.009-0.146c0-1.677,0-3.352,0-5.029
			C678.98,2121.841,678.974,2121.792,678.99,2121.745z"/>
		<path fill-rule="evenodd" clip-rule="evenodd" fill="#ABE300" d="M678.99,2127.064c0.061,0.018,0.098,0.063,0.126,0.114
			c0.147,0.262,0.291,0.525,0.439,0.788c0.188,0.334,0.379,0.665,0.568,0.998c0.105,0.187,0.207,0.374,0.312,0.56
			c0.159,0.282,0.321,0.564,0.48,0.849c0.15,0.267,0.297,0.533,0.447,0.8c0.152,0.271,0.308,0.539,0.46,0.809
			c0.147,0.263,0.292,0.526,0.44,0.788c0.205,0.364,0.412,0.726,0.616,1.09c0.152,0.27,0.3,0.544,0.452,0.813
			c0.147,0.262,0.299,0.521,0.448,0.783c0.15,0.267,0.297,0.533,0.447,0.8c0.202,0.359,0.406,0.717,0.608,1.076
			c0.152,0.271,0.3,0.544,0.453,0.814c0.186,0.33,0.376,0.656,0.562,0.985c0.119,0.212,0.236,0.424,0.351,0.638
			c0.045,0.084,0.125,0.154,0.105,0.265c-0.444-0.208-0.89-0.414-1.333-0.623c-0.928-0.436-1.855-0.874-2.783-1.312
			c-1.032-0.486-2.063-0.975-3.098-1.457c-0.102-0.048-0.113-0.111-0.113-0.205c0.002-2.871,0.001-5.744,0.001-8.615
			c-0.001-0.204-0.001-0.408,0-0.614C678.98,2127.161,678.974,2127.112,678.99,2127.064z"/>
		<path fill-rule="evenodd" clip-rule="evenodd" fill="#83D200" d="M690.925,2138.227c-0.061,0.001-0.08-0.045-0.104-0.088
			c-0.292-0.525-0.586-1.051-0.887-1.572c-0.207-0.357-0.399-0.722-0.602-1.082c-0.233-0.413-0.471-0.825-0.705-1.239
			c-0.15-0.266-0.297-0.534-0.447-0.801c-0.149-0.267-0.302-0.531-0.453-0.797c-0.105-0.187-0.208-0.374-0.312-0.56
			c-0.198-0.351-0.398-0.701-0.596-1.052c-0.103-0.181-0.203-0.363-0.306-0.546c-0.162-0.287-0.325-0.573-0.486-0.861
			c-0.15-0.267-0.297-0.534-0.447-0.801c-0.15-0.266-0.302-0.531-0.453-0.798c-0.105-0.187-0.208-0.372-0.313-0.559
			c-0.198-0.351-0.397-0.7-0.596-1.051c-0.105-0.187-0.207-0.374-0.312-0.561c-0.16-0.283-0.321-0.564-0.48-0.848
			c-0.15-0.267-0.297-0.535-0.448-0.802c-0.152-0.27-0.308-0.539-0.46-0.81c-0.152-0.271-0.3-0.543-0.453-0.813
			c-0.197-0.352-0.398-0.7-0.596-1.051c-0.148-0.263-0.293-0.526-0.44-0.789c-0.153-0.27-0.307-0.54-0.459-0.81
			c-0.107-0.189-0.212-0.382-0.319-0.572c-0.196-0.347-0.394-0.691-0.589-1.038c-0.107-0.191-0.212-0.382-0.319-0.573
			c-0.079-0.14-0.162-0.277-0.237-0.418c-0.028-0.051-0.064-0.068-0.118-0.063c-0.003-0.039-0.009-0.076-0.009-0.115
			c0-0.868,0-1.735,0-2.603c0-0.039,0.006-0.078,0.009-0.115c0.077-0.008,0.095,0.053,0.123,0.103
			c0.114,0.208,0.228,0.418,0.344,0.626c0.195,0.346,0.393,0.691,0.589,1.038c0.108,0.19,0.212,0.382,0.32,0.572
			c0.152,0.271,0.307,0.541,0.459,0.811c0.109,0.194,0.215,0.392,0.325,0.586c0.187,0.33,0.377,0.657,0.563,0.985
			c0.153,0.271,0.301,0.544,0.453,0.815c0.204,0.364,0.412,0.726,0.616,1.089c0.147,0.262,0.293,0.526,0.44,0.789
			c0.159,0.283,0.321,0.565,0.48,0.848c0.105,0.187,0.208,0.374,0.313,0.561c0.196,0.346,0.393,0.691,0.589,1.039
			c0.108,0.189,0.212,0.382,0.32,0.571c0.15,0.267,0.302,0.531,0.452,0.798c0.15,0.268,0.297,0.535,0.448,0.801
			c0.148,0.262,0.3,0.521,0.448,0.785c0.152,0.271,0.3,0.543,0.453,0.814c0.204,0.363,0.412,0.726,0.616,1.089
			c0.147,0.262,0.292,0.526,0.44,0.788c0.148,0.262,0.3,0.521,0.448,0.784c0.153,0.271,0.301,0.544,0.453,0.814
			c0.204,0.364,0.412,0.727,0.617,1.09c0.145,0.259,0.287,0.519,0.433,0.775c0.185,0.325,0.374,0.648,0.558,0.974
			c0.189,0.334,0.375,0.669,0.562,1.004c0.017,0.031,0.034,0.06,0.075,0.06c0.002,0.033,0.007,0.066,0.007,0.102
			c0,0.857,0,1.715,0,2.573C690.932,2138.16,690.927,2138.193,690.925,2138.227z"/>
		<path fill-rule="evenodd" clip-rule="evenodd" fill="#76CC00" d="M680.324,2114.058c0.17,0.059,0.328,0.146,0.491,0.222
			c0.696,0.326,1.39,0.655,2.084,0.983c0.047,0.022,0.094,0.05,0.14,0.074c-0.054,0.061-0.063,0.121-0.017,0.195
			c0.071,0.116,0.13,0.239,0.196,0.357c0.203,0.358,0.407,0.717,0.609,1.076c0.15,0.267,0.297,0.534,0.447,0.801
			c0.2,0.354,0.401,0.708,0.602,1.063c0.102,0.182,0.203,0.365,0.305,0.547c0.149,0.261,0.3,0.521,0.448,0.782
			c0.153,0.271,0.3,0.544,0.453,0.814c0.202,0.359,0.407,0.718,0.609,1.078c0.15,0.266,0.297,0.534,0.447,0.8
			c0.2,0.355,0.402,0.709,0.602,1.064c0.103,0.183,0.203,0.365,0.305,0.546c0.158,0.279,0.317,0.558,0.474,0.836
			c0.145,0.258,0.289,0.517,0.434,0.774c0.15,0.267,0.303,0.53,0.453,0.797c0.15,0.266,0.297,0.534,0.447,0.801
			c0.2,0.355,0.401,0.709,0.603,1.064c0.116,0.201,0.231,0.403,0.347,0.605c0.028,0.048,0.059,0.09,0.121,0.092
			c0.002,0.039,0.007,0.078,0.007,0.117c0,1.101,0,2.202,0,3.304c0,0.038-0.004,0.077-0.007,0.115
			c-0.066-0.004-0.085-0.063-0.11-0.105c-0.179-0.312-0.354-0.624-0.53-0.938c-0.151-0.271-0.3-0.544-0.452-0.814
			c-0.203-0.359-0.407-0.717-0.61-1.076c-0.15-0.267-0.296-0.535-0.447-0.801c-0.186-0.33-0.377-0.656-0.563-0.985
			c-0.153-0.271-0.3-0.544-0.453-0.815c-0.204-0.363-0.411-0.726-0.616-1.089c-0.148-0.263-0.292-0.525-0.44-0.789
			c-0.162-0.287-0.325-0.573-0.487-0.861c-0.102-0.182-0.203-0.364-0.305-0.547c-0.199-0.35-0.397-0.7-0.596-1.05
			c-0.105-0.187-0.207-0.374-0.313-0.559c-0.15-0.267-0.303-0.532-0.453-0.798c-0.15-0.267-0.297-0.534-0.447-0.801
			c-0.161-0.288-0.325-0.574-0.486-0.861c-0.103-0.182-0.203-0.365-0.306-0.547c-0.198-0.351-0.398-0.7-0.596-1.051
			c-0.104-0.185-0.208-0.373-0.312-0.559c-0.155-0.275-0.312-0.548-0.467-0.823c-0.147-0.262-0.294-0.525-0.441-0.787
			c-0.153-0.271-0.307-0.541-0.459-0.811c-0.155-0.274-0.313-0.547-0.467-0.822c-0.085-0.153-0.167-0.308-0.249-0.463
			C680.293,2114.162,680.257,2114.106,680.324,2114.058z"/>
		<path fill-rule="evenodd" clip-rule="evenodd" fill="#7ECF00" d="M680.324,2114.058c-0.067,0.049-0.03,0.104-0.004,0.154
			c0.081,0.155,0.163,0.31,0.249,0.463c0.154,0.275,0.312,0.548,0.467,0.822c0.153,0.271,0.307,0.54,0.459,0.811
			c0.147,0.262,0.294,0.525,0.441,0.787c0.155,0.275,0.312,0.548,0.467,0.823c0.104,0.187,0.208,0.374,0.312,0.559
			c0.198,0.351,0.398,0.7,0.596,1.051c0.103,0.182,0.203,0.365,0.306,0.547c0.162,0.287,0.325,0.573,0.486,0.861
			c0.15,0.268,0.297,0.535,0.447,0.801c0.15,0.266,0.303,0.531,0.453,0.798c0.105,0.185,0.208,0.373,0.313,0.559
			c0.199,0.351,0.397,0.7,0.596,1.05c0.103,0.183,0.203,0.365,0.305,0.547c0.162,0.288,0.326,0.574,0.487,0.861
			c0.147,0.264,0.292,0.526,0.44,0.789c0.205,0.363,0.412,0.726,0.616,1.089c0.152,0.271,0.3,0.545,0.453,0.815
			c0.186,0.329,0.377,0.655,0.563,0.985c0.151,0.266,0.297,0.534,0.447,0.801c0.203,0.359,0.407,0.717,0.61,1.076
			c0.152,0.271,0.301,0.544,0.452,0.814c0.175,0.314,0.351,0.627,0.53,0.938c0.025,0.043,0.044,0.102,0.11,0.105
			c0.002,0.033,0.007,0.068,0.007,0.102c0,0.761,0,1.521,0,2.281c0,0.034-0.004,0.067-0.007,0.102c-0.041,0-0.058-0.028-0.075-0.06
			c-0.187-0.335-0.373-0.67-0.562-1.004c-0.184-0.325-0.373-0.648-0.558-0.974c-0.146-0.257-0.288-0.517-0.433-0.775
			c-0.205-0.363-0.413-0.726-0.617-1.09c-0.152-0.271-0.3-0.543-0.453-0.814c-0.147-0.263-0.299-0.522-0.448-0.784
			c-0.148-0.262-0.293-0.526-0.44-0.788c-0.205-0.363-0.412-0.726-0.616-1.089c-0.153-0.271-0.3-0.544-0.453-0.814
			c-0.148-0.264-0.3-0.523-0.448-0.785c-0.15-0.266-0.298-0.533-0.448-0.801c-0.15-0.267-0.302-0.531-0.452-0.798
			c-0.108-0.189-0.212-0.382-0.32-0.571c-0.196-0.348-0.393-0.692-0.589-1.039c-0.105-0.187-0.208-0.374-0.313-0.561
			c-0.159-0.283-0.321-0.565-0.48-0.848c-0.147-0.263-0.293-0.527-0.44-0.789c-0.205-0.364-0.412-0.726-0.616-1.089
			c-0.152-0.271-0.3-0.545-0.453-0.815c-0.186-0.329-0.376-0.656-0.563-0.985c-0.11-0.194-0.216-0.392-0.325-0.586
			c-0.152-0.271-0.307-0.541-0.459-0.811c-0.108-0.19-0.212-0.382-0.32-0.572c-0.196-0.347-0.394-0.692-0.589-1.038
			c-0.117-0.208-0.23-0.417-0.344-0.626c-0.028-0.05-0.046-0.111-0.123-0.103c-0.014-0.332-0.019-0.663,0.002-0.993
			c0.014-0.001,0.027-0.001,0.041-0.002c0.356,0.149,0.699,0.325,1.048,0.487C680.163,2113.972,680.25,2114.001,680.324,2114.058z"
			/>
		<path fill-rule="evenodd" clip-rule="evenodd" fill="#6AC700" d="M690.925,2129.431c-0.062-0.002-0.093-0.044-0.121-0.092
			c-0.115-0.202-0.231-0.404-0.347-0.605c-0.201-0.355-0.403-0.709-0.603-1.064c-0.15-0.267-0.297-0.535-0.447-0.801
			c-0.149-0.267-0.302-0.53-0.453-0.797c-0.145-0.258-0.289-0.517-0.434-0.774c-0.157-0.278-0.316-0.557-0.474-0.836
			c-0.103-0.181-0.202-0.363-0.305-0.546c-0.2-0.355-0.402-0.709-0.602-1.064c-0.15-0.266-0.297-0.534-0.447-0.8
			c-0.202-0.36-0.407-0.718-0.609-1.078c-0.152-0.271-0.3-0.543-0.453-0.814c-0.147-0.262-0.299-0.521-0.448-0.782
			c-0.103-0.182-0.203-0.365-0.305-0.547c-0.201-0.355-0.402-0.709-0.602-1.063c-0.15-0.268-0.297-0.535-0.447-0.801
			c-0.202-0.359-0.407-0.718-0.609-1.076c-0.066-0.119-0.125-0.242-0.196-0.357c-0.046-0.074-0.038-0.134,0.017-0.195
			c0.221,0.087,0.432,0.198,0.647,0.299c0.874,0.41,1.747,0.822,2.62,1.235c0.052,0.024,0.11,0.039,0.152,0.082
			c-0.074,0.052-0.079,0.065-0.033,0.146c0.064,0.114,0.134,0.225,0.198,0.339c0.151,0.271,0.3,0.545,0.452,0.816
			c0.205,0.364,0.412,0.726,0.616,1.089c0.148,0.262,0.293,0.526,0.44,0.789c0.16,0.283,0.321,0.564,0.481,0.849
			c0.144,0.253,0.285,0.508,0.428,0.762c0.157,0.279,0.316,0.556,0.474,0.835c0.107,0.19,0.212,0.382,0.319,0.573
			c0.193,0.342,0.388,0.684,0.582,1.026c0.141,0.249,0.28,0.5,0.419,0.75c0.021,0.037,0.046,0.062,0.09,0.062
			c0.002,0.044,0.007,0.088,0.007,0.131c0,1.394,0,2.787,0,4.181C690.932,2129.345,690.927,2129.388,690.925,2129.431z"/>
		<path fill-rule="evenodd" clip-rule="evenodd" fill="#5AC004" d="M734.299,2125.955c-0.002-0.054-0.007-0.108-0.007-0.161
			c0-2.235,0-4.47,0.001-6.704c0-0.207-0.029-0.185,0.188-0.185c3.072-0.001,6.145-0.001,9.218,0c0.058,0,0.115-0.011,0.171,0.01
			c0.016,0.052-0.019,0.087-0.035,0.126c-0.164,0.364-0.334,0.725-0.492,1.091c-0.042,0.095-0.097,0.122-0.197,0.122
			c-2.4-0.002-4.801-0.002-7.201-0.001c-0.224,0-0.191-0.028-0.191,0.194c-0.001,1.782,0,3.564-0.001,5.346
			c0,0.053-0.004,0.107-0.006,0.161C735.263,2125.955,734.781,2125.955,734.299,2125.955z"/>
		<path fill-rule="evenodd" clip-rule="evenodd" fill="#5AC004" d="M722.274,2126.372c-0.123-0.159-0.218-0.334-0.324-0.503
			c-0.971-1.55-1.939-3.103-2.909-4.653c-0.023-0.037-0.041-0.077-0.076-0.104c-0.046,0.006-0.035,0.041-0.037,0.068
			c-0.002,0.039-0.001,0.078-0.001,0.117c0,1.567,0,3.135,0,4.703c0,0.053,0.009,0.106-0.009,0.159c-0.479,0-0.959,0-1.438,0
			c-0.02-0.053-0.011-0.106-0.011-0.16c0-2.302,0-4.604,0-6.906c0-0.215-0.021-0.188,0.186-0.188
			c0.451-0.001,0.904,0.002,1.357-0.002c0.09-0.001,0.139,0.03,0.185,0.104c1.507,2.408,3.016,4.814,4.523,7.221
			c0.016,0.024,0.027,0.051,0.04,0.077c-0.083,0.01-0.162-0.027-0.243-0.028c-0.367-0.003-0.735-0.002-1.103-0.001
			C722.349,2126.276,722.289,2126.292,722.274,2126.372z"/>
		<path fill-rule="evenodd" clip-rule="evenodd" fill="#5AC004" d="M690.925,2124.989c-0.044,0-0.07-0.024-0.09-0.062
			c-0.139-0.25-0.279-0.501-0.419-0.75c-0.193-0.342-0.388-0.684-0.582-1.026c-0.107-0.191-0.212-0.383-0.319-0.573
			c-0.158-0.279-0.317-0.557-0.474-0.835c-0.143-0.254-0.284-0.509-0.428-0.762c-0.16-0.284-0.321-0.566-0.481-0.849
			c-0.147-0.263-0.292-0.527-0.44-0.789c-0.205-0.364-0.412-0.726-0.616-1.089c-0.152-0.271-0.301-0.545-0.452-0.816
			c-0.064-0.114-0.134-0.225-0.198-0.339c-0.045-0.081-0.041-0.094,0.033-0.146c0.178,0.074,0.36,0.138,0.516,0.257
			c0.033,0.025,0.076,0.042,0.122,0.04c0.013,0.021,0.032,0.027,0.055,0.027c0.154,0.11,0.34,0.149,0.508,0.229
			c1.049,0.5,2.1,0.995,3.153,1.487c0.096,0.045,0.124,0.097,0.123,0.197c-0.002,1.89-0.002,3.779-0.002,5.668
			C690.932,2124.902,690.927,2124.946,690.925,2124.989z"/>
		<path fill-rule="evenodd" clip-rule="evenodd" fill="#50BE00" d="M734.299,2125.955c0.482,0,0.964,0,1.446,0
			c0.002,0.026,0.004,0.053,0.006,0.079c0.047,0.067,0.116,0.036,0.176,0.036c2.339,0.001,4.679,0.001,7.019,0.001
			c0.204,0,0.408,0.001,0.612,0.002c-0.011,0.031-0.02,0.064-0.033,0.096c-0.168,0.371-0.34,0.742-0.505,1.116
			c-0.034,0.08-0.078,0.105-0.164,0.104c-0.32-0.006-0.643-0.003-0.964-0.003c-1.972,0-3.943,0-5.915,0c-0.024,0-0.049,0-0.073,0
			c-0.164,0.002-0.151-0.016-0.152,0.146c0,0.233,0.001,0.468,0,0.7c0,0.049-0.004,0.098-0.007,0.146c-0.481,0-0.963,0-1.445,0
			c-0.002-0.033-0.006-0.066-0.006-0.101c-0.001-0.74-0.001-1.481,0-2.223C734.293,2126.021,734.297,2125.988,734.299,2125.955z"/>
		<path fill-rule="evenodd" clip-rule="evenodd" fill="#2BB801" d="M735.788,2133.725c0.049-0.003,0.098-0.008,0.145-0.008
			c2.709,0,5.416,0,8.125,0c0.048,0,0.097,0,0.137,0c0.03,0.031,0.012,0.054,0.003,0.072c-0.184,0.404-0.367,0.807-0.551,1.21
			c-0.008,0.017-0.013,0.036-0.033,0.044c-0.068,0-0.136-0.001-0.204-0.001c-3.034,0-6.07,0-9.104,0
			c-0.004-0.028-0.012-0.057-0.012-0.085c-0.001-0.497,0-0.996,0-1.494c0-0.019,0.005-0.037,0.006-0.058c0.482,0,0.964,0,1.445,0
			c0.003,0.098,0.004,0.195,0.005,0.292C735.756,2133.715,735.769,2133.724,735.788,2133.725z"/>
		<path fill-rule="evenodd" clip-rule="evenodd" fill="#2BB801" d="M759.943,2133.342c-0.097,0.144-0.242,0.235-0.365,0.351
			c-0.13,0.122-0.271,0.234-0.413,0.346c-0.244,0.189-0.505,0.351-0.769,0.508c-0.475,0.285-0.988,0.474-1.522,0.61
			c-0.895,0.229-1.804,0.278-2.723,0.215c-0.792-0.055-1.558-0.221-2.293-0.527c-0.57-0.237-1.092-0.554-1.566-0.944
			c-0.141-0.116-0.286-0.234-0.399-0.382c-0.004-0.105,0.073-0.082,0.132-0.082c0.601-0.001,1.201-0.001,1.802,0
			c0.087,0,0.174-0.009,0.259,0.022c0.04,0.014,0.088,0.017,0.119-0.028c0.009,0.005,0.018,0.009,0.026,0.014
			c0.01,0.007,0.02,0.013,0.03,0.02c0.146,0.07,0.292,0.14,0.437,0.21c0.014,0.021,0.033,0.025,0.057,0.025
			c0.035-0.003,0.063,0.015,0.089,0.033c0.015,0.021,0.037,0.025,0.061,0.023c0.01,0.002,0.019,0.006,0.028,0.008
			c0.015,0.021,0.035,0.023,0.058,0.022c0.15,0.039,0.3,0.082,0.451,0.116c0.646,0.146,1.298,0.179,1.956,0.125
			c0.562-0.045,1.104-0.167,1.623-0.388c0.232-0.099,0.446-0.233,0.668-0.354c0.693,0.002,1.387,0.003,2.08,0.004
			c0.039,0,0.078,0,0.117,0.001C759.919,2133.29,759.938,2133.309,759.943,2133.342z"/>
		<path fill-rule="evenodd" clip-rule="evenodd" fill="#5AC004" d="M728.081,2126.392c-0.016-0.046-0.01-0.097-0.01-0.144
			c0-2.391,0-4.782,0-7.172c0-0.014,0-0.029,0-0.043c0.003-0.126,0.003-0.126,0.129-0.128c0.381-0.004,0.761-0.01,1.14-0.011
			c0.217-0.001,0.189-0.025,0.189,0.182c0,1.479,0,2.959,0,4.439c0,0.906,0,1.811,0,2.717c0,0.053-0.004,0.107-0.006,0.16
			C729.043,2126.393,728.563,2126.393,728.081,2126.392z"/>
		<path fill-rule="evenodd" clip-rule="evenodd" fill="#50BE00" d="M708.747,2119.583c-0.066-0.005-0.084-0.064-0.108-0.108
			c-0.141-0.243-0.276-0.489-0.414-0.734c-0.162-0.287-0.325-0.574-0.486-0.86c-0.15-0.266-0.297-0.535-0.447-0.8
			c-0.202-0.36-0.407-0.717-0.608-1.075c-0.151-0.271-0.3-0.544-0.452-0.814c-0.186-0.329-0.374-0.657-0.563-0.984
			c-0.039-0.066-0.067-0.13-0.017-0.202c0.054-0.034,0.111-0.056,0.174-0.063c0.023,0.001,0.044-0.002,0.059-0.023
			c0.837-0.303,1.674-0.606,2.511-0.91c0.113-0.041,0.227-0.08,0.339-0.12c0.027,0.051,0.018,0.095,0.018,0.139
			c0,2.146,0,4.292,0,6.439C708.753,2119.507,708.749,2119.544,708.747,2119.583z"/>
		<path fill-rule="evenodd" clip-rule="evenodd" fill="#6AC700" d="M684.203,2111.29c-0.043,0.06-0.031,0.119,0.003,0.177
			c0.27,0.472,0.541,0.942,0.809,1.416c0.203,0.358,0.399,0.722,0.602,1.082c0.185,0.33,0.376,0.656,0.563,0.985
			c0.15,0.267,0.297,0.535,0.447,0.801c0.111,0.199,0.226,0.396,0.338,0.595c0.038,0.068,0.084,0.133,0.073,0.217
			c-0.384-0.18-0.767-0.357-1.15-0.538c-0.743-0.349-1.485-0.701-2.229-1.052c-0.044-0.021-0.086-0.045-0.128-0.068
			c0.004-0.04-0.009-0.076-0.027-0.111c-0.085-0.158-0.167-0.317-0.256-0.473c-0.188-0.333-0.378-0.665-0.566-0.997
			c-0.16-0.282-0.326-0.56-0.477-0.848c-0.068-0.128-0.182-0.244-0.166-0.409c0.32-0.135,0.651-0.241,0.978-0.359
			C683.411,2111.567,683.808,2111.429,684.203,2111.29z"/>
		<path fill-rule="evenodd" clip-rule="evenodd" fill="#50BE00" d="M705.066,2113.582c0.041-0.111,0.003-0.202-0.057-0.298
			c-0.113-0.181-0.212-0.369-0.317-0.555c-0.203-0.358-0.406-0.717-0.608-1.075c-0.146-0.257-0.289-0.516-0.432-0.774
			c-0.153-0.275-0.305-0.551-0.458-0.827c-0.073-0.13-0.074-0.13,0.03-0.246c0.121,0.065,0.236,0.146,0.367,0.192
			c0.216,0.075,0.414,0.188,0.62,0.285c0.232,0.107,0.459,0.229,0.695,0.326c0.324,0.133,0.636,0.287,0.952,0.435
			c0.854,0.399,1.707,0.803,2.559,1.206c0.044,0.02,0.086,0.043,0.13,0.065c-0.024,0.037-0.058,0.041-0.089,0.052
			c-1.102,0.396-2.204,0.792-3.306,1.188C705.123,2113.567,705.094,2113.573,705.066,2113.582z"/>
		<path fill-rule="evenodd" clip-rule="evenodd" fill="#2BB801" d="M726.376,2132.939c-0.005-0.01-0.011-0.019-0.016-0.027
			c0.07-0.019,0.139-0.034,0.214-0.034c0.436,0.003,0.872,0.002,1.307,0.003c0.064,0.065,0.09,0.158,0.159,0.222
			c0.002,0.002,0.009-0.001,0.021-0.002c0.029-0.08-0.005-0.168,0.021-0.25c0.48,0,0.961,0,1.441,0
			c0.002,0.039,0.005,0.078,0.005,0.115c0.001,0.651,0.001,1.303,0.001,1.954c0,0.159,0.006,0.146-0.139,0.146
			c-0.529,0-1.059-0.001-1.589,0.001c-0.068,0-0.115-0.014-0.154-0.078c-0.41-0.661-0.823-1.32-1.234-1.979
			c-0.008-0.013-0.012-0.027-0.016-0.041C726.39,2132.959,726.383,2132.949,726.376,2132.939z"/>
		<path fill-rule="evenodd" clip-rule="evenodd" fill="#35BA01" d="M752.204,2133.43c-0.031,0.045-0.079,0.042-0.119,0.028
			c-0.085-0.031-0.172-0.022-0.259-0.022c-0.601-0.001-1.201-0.001-1.802,0c-0.059,0-0.136-0.023-0.132,0.082
			c-0.138-0.108-0.247-0.246-0.359-0.379c-0.467-0.549-0.839-1.158-1.112-1.825c-0.01-0.021-0.014-0.045-0.021-0.068
			c0.018-0.089,0.09-0.059,0.141-0.059c0.52-0.003,1.039-0.003,1.557-0.003c0.04,0.038,0.057,0.09,0.082,0.137
			c0.354,0.643,0.805,1.203,1.38,1.661C751.765,2133.145,751.988,2133.281,752.204,2133.43z"/>
		<path fill-rule="evenodd" clip-rule="evenodd" fill="#76CC00" d="M682.038,2112.068c-0.016,0.165,0.098,0.281,0.166,0.409
			c0.151,0.288,0.317,0.566,0.477,0.848c0.188,0.332,0.379,0.664,0.566,0.997c0.088,0.155,0.17,0.315,0.256,0.473
			c0.019,0.035,0.031,0.071,0.027,0.111c-0.169-0.061-0.327-0.147-0.489-0.223c-1.146-0.54-2.292-1.08-3.438-1.621
			c-0.042-0.02-0.09-0.032-0.132-0.079c0.151-0.054,0.296-0.106,0.442-0.159c0.671-0.242,1.342-0.482,2.013-0.723
			C681.963,2112.087,681.998,2112.068,682.038,2112.068z"/>
		<path fill-rule="evenodd" clip-rule="evenodd" fill="#41BC01" d="M750.098,2131.184c-0.518,0-1.037,0-1.557,0.003
			c-0.051,0-0.123-0.03-0.141,0.059c-0.129-0.261-0.213-0.538-0.3-0.814c-0.174-0.562-0.287-1.135-0.366-1.716
			c-0.008-0.053-0.007-0.106-0.009-0.159c0.524,0,1.052,0,1.578,0c0.01,0.052,0.021,0.103,0.031,0.156
			c0.088,0.546,0.213,1.082,0.396,1.604C749.835,2130.613,749.973,2130.896,750.098,2131.184z"/>
		<path fill-rule="evenodd" clip-rule="evenodd" fill="#35BA01" d="M759.943,2133.342c-0.006-0.033-0.024-0.052-0.059-0.052
			c-0.039-0.001-0.078-0.001-0.117-0.001c-0.693-0.001-1.387-0.002-2.08-0.004c0.03-0.041,0.075-0.059,0.115-0.086
			c0.465-0.317,0.868-0.699,1.208-1.146c0.216-0.283,0.394-0.588,0.566-0.896c0.105-0.006,0.207-0.038,0.316-0.032
			c0.17,0.008,0.341,0.002,0.51,0.002c0.258,0,0.516,0,0.772,0c0.047,0,0.103-0.012,0.113,0.06c-0.021,0.078-0.067,0.146-0.099,0.22
			c-0.133,0.299-0.293,0.583-0.452,0.869C760.521,2132.668,760.252,2133.019,759.943,2133.342z"/>
		<path fill-rule="evenodd" clip-rule="evenodd" fill="#41BC01" d="M734.299,2128.379c0.482,0,0.964,0,1.445,0
			c0.003,0.034,0.007,0.067,0.007,0.103c0,0.876,0,1.754,0,2.632c0,0.033-0.004,0.067-0.006,0.101c-0.482,0-0.964,0-1.446,0
			c-0.002-0.033-0.006-0.067-0.006-0.101c-0.001-0.878,0-1.756,0-2.632C734.293,2128.446,734.298,2128.413,734.299,2128.379z"/>
		<path fill-rule="evenodd" clip-rule="evenodd" fill="#41BC01" d="M761.289,2131.186c-0.011-0.071-0.066-0.06-0.113-0.06
			c-0.257,0-0.515,0-0.772,0c-0.169,0-0.34,0.006-0.51-0.002c-0.109-0.006-0.211,0.026-0.316,0.032
			c0.147-0.317,0.289-0.637,0.401-0.969c0.16-0.476,0.26-0.965,0.354-1.457c0.53,0,1.06-0.001,1.59-0.001
			c-0.069,0.61-0.204,1.205-0.387,1.79C761.466,2130.746,761.397,2130.974,761.289,2131.186z"/>
		<path fill-rule="evenodd" clip-rule="evenodd" fill="#50BE00" d="M749.304,2128.556c-0.526,0-1.054,0-1.578,0
			c-0.039-0.087-0.028-0.181-0.038-0.272c-0.067-0.706-0.08-1.415-0.033-2.124c0.521,0,1.043,0,1.564,0
			c-0.003,0.096-0.001,0.193-0.008,0.29c-0.033,0.505-0.015,1.009,0.032,1.513C749.262,2128.159,749.282,2128.356,749.304,2128.556z
			"/>
		<path fill-rule="evenodd" clip-rule="evenodd" fill="#50BE00" d="M722.274,2126.372c0.015-0.08,0.074-0.096,0.141-0.096
			c0.367-0.001,0.735-0.002,1.103,0.001c0.081,0.001,0.16,0.038,0.243,0.028c0.18,0.281,0.359,0.563,0.538,0.847
			c0.259,0.41,0.517,0.82,0.772,1.232c0.028,0.044,0.064,0.085,0.078,0.139c-0.117,0.015-0.228-0.034-0.345-0.029
			c-0.198,0.009-0.396,0-0.595,0.003c-0.196,0.002-0.395-0.019-0.59,0.028c-0.138-0.167-0.237-0.36-0.353-0.544
			c-0.326-0.517-0.647-1.038-0.97-1.558C722.287,2126.407,722.282,2126.389,722.274,2126.372z"/>
		<path fill-rule="evenodd" clip-rule="evenodd" fill="#35BA01" d="M727.881,2132.881c-0.435-0.001-0.871,0-1.307-0.003
			c-0.075,0-0.144,0.016-0.214,0.034c-0.036-0.027-0.052-0.07-0.075-0.105c-0.376-0.598-0.752-1.195-1.127-1.793
			c-0.048-0.078-0.089-0.16-0.134-0.24c-0.005-0.104,0.069-0.085,0.13-0.085c0.451,0,0.902,0,1.354,0.001
			c0.073,0.113,0.148,0.227,0.221,0.341c0.362,0.579,0.726,1.157,1.088,1.736C727.841,2132.803,727.859,2132.843,727.881,2132.881z"
			/>
		<path fill-rule="evenodd" clip-rule="evenodd" fill="#41BC01" d="M726.509,2130.689c-0.452-0.001-0.903-0.001-1.354-0.001
			c-0.061,0-0.135-0.019-0.13,0.085c-0.039-0.03-0.058-0.076-0.083-0.117c-0.414-0.658-0.827-1.317-1.241-1.978
			c-0.03-0.049-0.054-0.103-0.08-0.153c0.195-0.047,0.394-0.026,0.59-0.028c0.199-0.003,0.396,0.006,0.595-0.003
			c0.117-0.005,0.228,0.044,0.345,0.029c0.144,0.195,0.263,0.406,0.392,0.61c0.304,0.479,0.604,0.961,0.904,1.441
			C726.467,2130.611,726.487,2130.65,726.509,2130.689z"/>
		<path fill-rule="evenodd" clip-rule="evenodd" fill="#50BE00" d="M728.081,2126.392c0.481,0.001,0.962,0.001,1.442,0.001
			c0.002,0.126,0.005,0.251,0.006,0.377c0,0.581,0,1.162,0,1.742c0,0.054-0.004,0.107-0.006,0.16c-0.48,0-0.961,0-1.441,0
			c-0.004-0.034-0.011-0.067-0.011-0.101c0-0.692,0-1.386,0.002-2.078C728.073,2126.459,728.078,2126.426,728.081,2126.392z"/>
		<path fill-rule="evenodd" clip-rule="evenodd" fill="#2BB801" d="M718.919,2132.763c0.002,0.033,0.006,0.067,0.006,0.102
			c0.001,0.684,0.001,1.368,0.001,2.052c0,0.135,0.009,0.128-0.123,0.127c-0.151,0-0.301,0.001-0.452,0.001
			c-0.288,0-0.575,0.001-0.862,0.001c-0.028-0.027-0.019-0.063-0.019-0.096c0-0.705,0-1.409,0-2.114c0-0.023,0.007-0.048,0.01-0.071
			C717.96,2132.763,718.439,2132.763,718.919,2132.763z"/>
		<path fill-rule="evenodd" clip-rule="evenodd" fill="#41BC01" d="M717.481,2130.601c-0.017-0.038-0.011-0.077-0.011-0.115
			c0-0.673,0-1.347,0.001-2.019c0-0.039,0.007-0.076,0.01-0.115c0.479,0,0.958-0.001,1.438-0.001
			c0.002,0.038,0.006,0.076,0.006,0.115c0.001,0.673,0.001,1.346,0,2.02c0,0.038-0.004,0.076-0.006,0.115
			C718.439,2130.601,717.96,2130.601,717.481,2130.601z"/>
		<path fill-rule="evenodd" clip-rule="evenodd" fill="#35BA01" d="M734.299,2131.214c0.482,0,0.964,0,1.446,0
			c0.002,0.136,0.006,0.271,0.006,0.406c0.001,0.543,0,1.084,0,1.627c0,0.053-0.004,0.105-0.007,0.158c-0.481,0-0.963,0-1.445,0
			c-0.002-0.066-0.006-0.134-0.006-0.202c-0.001-0.61-0.001-1.22,0-1.83C734.293,2131.32,734.297,2131.268,734.299,2131.214z"/>
		<path fill-rule="evenodd" clip-rule="evenodd" fill="#50BE00" d="M718.919,2128.351c-0.479,0-0.959,0.001-1.438,0.001
			c-0.017-0.037-0.011-0.077-0.011-0.114c0-0.655,0-1.31,0.001-1.964c0-0.038,0.007-0.077,0.01-0.114c0.479,0,0.958,0,1.438,0
			c0.002,0.053,0.006,0.106,0.006,0.159c0.001,0.624,0.001,1.248,0,1.873C718.925,2128.244,718.921,2128.297,718.919,2128.351z"/>
		<path fill-rule="evenodd" clip-rule="evenodd" fill="#35BA01" d="M717.481,2130.601c0.479,0,0.958,0,1.438,0
			c0.002,0.048,0.006,0.097,0.006,0.145c0.001,0.624,0.001,1.249,0,1.874c0,0.047-0.004,0.095-0.006,0.144
			c-0.479,0-0.959,0-1.438,0.001c-0.003-0.033-0.01-0.067-0.01-0.101c-0.001-0.653-0.001-1.309,0-1.963
			C717.471,2130.667,717.478,2130.634,717.481,2130.601z"/>
		<path fill-rule="evenodd" clip-rule="evenodd" fill="#35BA01" d="M729.523,2132.851c-0.48,0-0.961,0-1.441,0
			c-0.004-0.033-0.009-0.066-0.009-0.1c-0.002-0.635-0.002-1.269,0-1.903c0-0.033,0.005-0.066,0.009-0.101c0.48,0,0.961,0,1.441,0
			c0.002,0.169,0.005,0.338,0.006,0.507c0,0.479,0,0.959,0,1.437C729.529,2132.744,729.525,2132.797,729.523,2132.851z"/>
		<path fill-rule="evenodd" clip-rule="evenodd" fill="#41BC01" d="M729.523,2130.747c-0.48,0-0.961,0-1.441,0
			c-0.004-0.033-0.009-0.066-0.009-0.1c-0.002-0.625-0.002-1.251,0-1.876c0-0.033,0.005-0.066,0.009-0.1c0.48,0,0.961,0,1.441,0
			c0.002,0.179,0.005,0.357,0.006,0.536c0,0.46,0,0.92,0,1.379C729.529,2130.641,729.525,2130.693,729.523,2130.747z"/>
		<path fill-rule="evenodd" clip-rule="evenodd" fill="#5AC004" d="M751.048,2138.257c-0.045,0.16-0.054,0.326-0.053,0.492
			c0,0.345,0,0.691,0,1.036c-0.001,0.127-0.045,0.16-0.171,0.13c-0.026-0.005-0.044-0.018-0.045-0.046
			c-0.002-0.033-0.004-0.068-0.004-0.103c0-0.384,0.002-0.769,0-1.154c0-0.126,0.002-0.253-0.035-0.376
			c-0.047-0.161-0.139-0.279-0.31-0.314c-0.178-0.038-0.34-0.013-0.469,0.127c-0.121,0.132-0.162,0.298-0.183,0.469
			c-0.009,0.076-0.009,0.155-0.009,0.232c0,0.351,0,0.701,0,1.052c-0.001,0.113-0.003,0.114-0.114,0.113
			c-0.104,0-0.106,0-0.106-0.105c-0.001-0.652,0.001-1.305-0.002-1.957c0-0.08,0.027-0.101,0.103-0.099
			c0.113,0.003,0.113,0,0.12,0.092c0.002,0.038-0.011,0.077,0.014,0.114c0.041,0,0.051-0.038,0.073-0.061
			c0.282-0.288,0.759-0.253,0.996,0.074c0.015,0.02,0.025,0.042,0.04,0.061c0.039,0.054,0.052-0.009,0.077-0.017
			C750.983,2138.102,750.939,2138.204,751.048,2138.257z"/>
		<path fill-rule="evenodd" clip-rule="evenodd" fill="#5AC004" d="M733.771,2138.846c-0.027,0.032-0.023,0.071-0.021,0.109
			c0.029,0.482,0.396,0.816,0.877,0.801c0.054-0.002,0.106-0.006,0.16-0.008c-0.024,0.029-0.06,0.026-0.093,0.029
			c-0.107,0.012-0.107,0.012-0.113,0.114c-0.001,0.02-0.002,0.038-0.002,0.057c-0.389,0.019-0.68-0.155-0.873-0.478
			c-0.236-0.396-0.242-0.815-0.027-1.226c0.246-0.473,0.763-0.61,1.103-0.514c-0.019,0.001-0.038,0.001-0.057,0.001
			c-0.2-0.004-0.169,0.003-0.174,0.169c-0.053,0.01-0.105,0.017-0.157,0.03c-0.297,0.077-0.501,0.262-0.607,0.549
			c-0.061,0.16-0.049,0.172,0.117,0.175c0.246,0.004,0.493-0.012,0.739,0.007c-0.003,0.059-0.01,0.116,0.006,0.174
			C734.355,2138.856,734.063,2138.841,733.771,2138.846z"/>
		<path fill-rule="evenodd" clip-rule="evenodd" fill="#5AC004" d="M754.477,2140.127c-0.12,0.333-0.275,0.652-0.406,0.981
			c-0.019,0.048-0.049,0.069-0.1,0.064c-0.043-0.006-0.087,0.012-0.128-0.017c-0.005-0.053,0.025-0.093,0.044-0.137
			c0.131-0.313,0.261-0.628,0.398-0.938c0.041-0.093,0.043-0.166-0.002-0.259c-0.303-0.631-0.601-1.264-0.897-1.897
			c-0.023-0.048-0.045-0.096-0.065-0.141c0.021-0.038,0.053-0.023,0.078-0.028c0.095-0.017,0.146,0.021,0.188,0.112
			c0.256,0.556,0.52,1.108,0.781,1.662c0.019,0.039,0.038,0.079,0.058,0.117c0.015,0.027,0.034,0.004,0.052,0.003
			c-0.074,0.127-0.054,0.268-0.056,0.404C754.421,2140.094,754.437,2140.121,754.477,2140.127z"/>
		<path fill-rule="evenodd" clip-rule="evenodd" fill="#5AC004" d="M721.281,2138.145c-0.079-0.123-0.179-0.214-0.332-0.234
			c-0.229-0.029-0.408,0.063-0.515,0.271c-0.089,0.175-0.102,0.363-0.103,0.555c-0.003,0.354,0,0.709-0.001,1.063
			c0,0.104-0.085,0.154-0.183,0.111c-0.02-0.009-0.029-0.023-0.03-0.044c-0.002-0.034-0.002-0.068-0.002-0.102
			c0-0.623,0-1.245,0-1.866c0-0.024,0.002-0.049,0-0.073c-0.002-0.049,0.017-0.072,0.067-0.07c0.029,0.001,0.058,0.001,0.088,0
			c0.043-0.002,0.058,0.021,0.061,0.062c0.002,0.046-0.015,0.097,0.022,0.153c0.158-0.188,0.353-0.29,0.598-0.262
			c0.156,0.019,0.304,0.062,0.401,0.202C721.34,2137.992,721.319,2138.071,721.281,2138.145z"/>
		<path fill-rule="evenodd" clip-rule="evenodd" fill="#0DAE2B" d="M725.608,2137.835c0.127,0.049,0.213,0.148,0.31,0.251
			c0.046-0.058,0.022-0.122,0.024-0.18c0.003-0.149,0.001-0.149,0.106-0.15c0.11,0,0.111,0,0.111,0.144c0,0.364,0,0.728,0,1.093
			c0,0.271,0.001,0.544-0.001,0.815c0,0.035,0.019,0.087-0.029,0.103c-0.05,0.018-0.105,0.016-0.157,0.001
			c-0.034-0.011-0.029-0.047-0.029-0.075c-0.001-0.085,0-0.169-0.013-0.259c-0.117,0.118-0.228,0.23-0.383,0.282
			c0.052-0.07,0.032-0.142,0.001-0.213c0.146-0.103,0.256-0.233,0.324-0.4c0.202-0.496,0.063-0.956-0.381-1.255
			c0.047,0.002,0.089-0.003,0.086-0.065C725.577,2137.892,725.583,2137.86,725.608,2137.835z"/>
		<path fill-rule="evenodd" clip-rule="evenodd" fill="#5AC004" d="M725.11,2139.948c-0.416,0.016-0.724-0.171-0.913-0.53
			c-0.2-0.379-0.202-0.776-0.017-1.164c0.198-0.411,0.68-0.633,1.108-0.523c-0.019,0-0.039,0.002-0.058,0.002
			c-0.144,0.003-0.144,0.002-0.148,0.141c0,0.01,0,0.02-0.002,0.028c-0.321,0.026-0.557,0.185-0.704,0.47
			c-0.138,0.266-0.146,0.541-0.047,0.819c0.114,0.323,0.422,0.604,0.857,0.562c0.035-0.003,0.068-0.002,0.103-0.003
			c-0.017,0.019-0.04,0.025-0.064,0.028c-0.108,0.016-0.108,0.016-0.113,0.128C725.111,2139.92,725.111,2139.935,725.11,2139.948z"
			/>
		<path fill-rule="evenodd" clip-rule="evenodd" fill="#5AC004" d="M747.144,2139.948c-0.446,0.023-0.885-0.282-1.05-0.733
			c-0.275-0.751,0.313-1.551,1.112-1.51c0.049,0.002,0.098,0.003,0.143,0.025c-0.015,0.001-0.029,0.002-0.044,0.002
			c-0.175-0.004-0.158,0.002-0.16,0.154c0,0.006,0,0.01,0,0.015c-0.015,0.002-0.029,0.006-0.044,0.006
			c-0.56,0.028-0.894,0.521-0.856,0.999c0.04,0.511,0.474,0.9,0.977,0.846c0.033-0.004,0.067-0.002,0.102-0.003
			c-0.018,0.019-0.039,0.024-0.063,0.027c-0.109,0.016-0.109,0.017-0.113,0.129C747.145,2139.92,747.145,2139.935,747.144,2139.948z
			"/>
		<path fill-rule="evenodd" clip-rule="evenodd" fill="#5AC004" d="M740.773,2139.948c-0.29,0.017-0.532-0.094-0.741-0.284
			c-0.345-0.309-0.461-0.797-0.299-1.228c0.16-0.428,0.56-0.716,1.017-0.731c0.077-0.002,0.156-0.008,0.229,0.025
			c-0.019,0.001-0.039,0.002-0.058,0.002c-0.143,0.002-0.143,0.002-0.147,0.141c0,0.01,0,0.02-0.001,0.028
			c-0.447,0.041-0.738,0.268-0.858,0.667c-0.184,0.617,0.307,1.25,0.936,1.184c0.034-0.003,0.067-0.002,0.103-0.002
			c-0.017,0.019-0.04,0.024-0.064,0.027c-0.109,0.016-0.109,0.017-0.113,0.128C740.774,2139.92,740.774,2139.935,740.773,2139.948z"
			/>
		<path fill-rule="evenodd" clip-rule="evenodd" fill="#5AC004" d="M730.025,2137.968c0.001,0.608,0.001,1.216,0.001,1.824
			c0,0.116-0.061,0.157-0.174,0.121c-0.027-0.009-0.036-0.029-0.036-0.054c-0.003-0.034-0.002-0.068-0.002-0.102
			c-0.001-0.54-0.001-1.08-0.001-1.62c0-0.034-0.002-0.067,0.001-0.102c0.005-0.057-0.02-0.081-0.075-0.078
			c-0.019,0.001-0.039,0.001-0.059-0.001c-0.032-0.002-0.076,0.016-0.092-0.022c-0.021-0.049-0.015-0.105-0.004-0.157
			c0.005-0.02,0.03-0.021,0.05-0.021c0.029,0,0.06-0.003,0.088,0c0.07,0.008,0.095-0.021,0.094-0.091
			c-0.005-0.189-0.003-0.38-0.002-0.569c0-0.036-0.018-0.086,0.026-0.105c0.049-0.021,0.106-0.017,0.157-0.003
			c0.04,0.012,0.028,0.057,0.028,0.09c0.002,0.185,0,0.369,0.002,0.554c0,0.112,0.001,0.112,0.115,0.131
			c-0.028,0.028-0.071,0.049-0.063,0.1C730.089,2137.911,730.045,2137.933,730.025,2137.968z"/>
		<path fill-rule="evenodd" clip-rule="evenodd" fill="#5AC004" d="M743.959,2137.902c-0.331,0.083-0.472,0.24-0.527,0.577
			c-0.021,0.131-0.03,0.261-0.029,0.393c0,0.311,0,0.623-0.001,0.934c0,0.036,0.02,0.088-0.028,0.103
			c-0.052,0.016-0.106,0.015-0.159-0.001c-0.02-0.007-0.021-0.029-0.023-0.049c-0.001-0.034-0.001-0.068-0.001-0.103
			c0-0.613,0-1.226,0-1.839c0-0.015,0-0.029,0-0.043c0.003-0.109,0.076-0.154,0.18-0.114c0.03,0.011,0.032,0.033,0.032,0.058
			c0.001,0.038,0.001,0.077,0.001,0.116c0,0.033,0,0.066,0,0.131c0.224-0.284,0.482-0.419,0.822-0.335
			c-0.032,0-0.065,0.002-0.099,0.002C743.963,2137.732,743.963,2137.731,743.959,2137.902z"/>
		<path fill-rule="evenodd" clip-rule="evenodd" fill="#5AC004" d="M737.589,2137.923c-0.369,0.107-0.598,0.348-0.681,0.722
			c-0.123,0.553,0.326,1.173,0.944,1.106c0.029-0.002,0.059,0,0.088-0.001c-0.049,0.044-0.108,0.025-0.163,0.027
			c-0.123,0.006-0.123,0.005-0.129,0.126c-0.001,0.015-0.001,0.028-0.002,0.043c-0.449-0.038-0.827-0.372-0.938-0.833
			c-0.127-0.521,0.099-1.043,0.554-1.28c0.103-0.054,0.209-0.104,0.33-0.102C737.591,2137.795,737.59,2137.859,737.589,2137.923z"/>
		<path fill-rule="evenodd" clip-rule="evenodd" fill="#5AC004" d="M728.226,2137.906c-0.198,0.041-0.287,0.183-0.336,0.361
			c-0.032,0.114-0.035,0.23-0.035,0.348c0,0.394,0.001,0.787,0,1.183c0,0.036,0.017,0.089-0.023,0.106
			c-0.052,0.024-0.114,0.017-0.171,0.003c-0.021-0.005-0.025-0.028-0.025-0.048c-0.001-0.034-0.001-0.068-0.001-0.103
			c0-0.612,0-1.226,0-1.839c0-0.015-0.001-0.028,0-0.043c0.004-0.038-0.019-0.089,0.021-0.107c0.054-0.026,0.116-0.017,0.173-0.005
			c0.028,0.007,0.026,0.037,0.026,0.062c0,0.049,0,0.098,0,0.172c0.105-0.117,0.175-0.247,0.328-0.264
			c-0.016,0.035-0.031,0.068-0.03,0.108C728.154,2137.892,728.183,2137.904,728.226,2137.906z"/>
		<path fill-rule="evenodd" clip-rule="evenodd" fill="#0DAE2B" d="M751.731,2137.73c0.237,0.027,0.368,0.178,0.438,0.392
			c0.042,0.131,0.05,0.268,0.051,0.404c0.003,0.424,0.002,0.847,0.001,1.271c0,0.111-0.066,0.154-0.179,0.118
			c-0.036-0.012-0.039-0.038-0.039-0.067c-0.001-0.059,0-0.117-0.001-0.176c0-0.403-0.001-0.808-0.002-1.211
			c-0.001-0.039-0.002-0.078-0.006-0.117c-0.021-0.285-0.162-0.421-0.444-0.436c-0.02-0.001-0.039-0.004-0.059-0.005
			c0.012-0.173,0.012-0.173,0.181-0.173C751.692,2137.73,751.711,2137.73,751.731,2137.73z"/>
		<path fill-rule="evenodd" clip-rule="evenodd" fill="#0DAE2B" d="M747.689,2137.85c0.349,0.165,0.524,0.458,0.586,0.826
			c0.078,0.482-0.184,0.968-0.626,1.175c-0.013,0.006-0.027,0.007-0.041,0.011c0.012-0.078-0.014-0.162,0.035-0.234
			c0.022-0.019,0.044-0.038,0.066-0.056c0.373-0.295,0.469-0.802,0.229-1.213c-0.082-0.142-0.201-0.245-0.332-0.337
			c0.002-0.038,0.004-0.076,0.005-0.113C747.613,2137.855,747.648,2137.847,747.689,2137.85z"/>
		<path fill-rule="evenodd" clip-rule="evenodd" fill="#0DAE2B" d="M722.302,2137.731c0.187,0.02,0.309,0.128,0.391,0.289
			c0.056,0.109,0.081,0.229,0.082,0.352c0.005,0.485,0.003,0.971,0.007,1.457c0.001,0.087-0.043,0.089-0.107,0.09
			c-0.069,0.002-0.106-0.011-0.105-0.094c0.003-0.418,0.001-0.835,0.001-1.254c0-0.097,0-0.194-0.019-0.289
			c-0.046-0.241-0.154-0.346-0.396-0.373c-0.019-0.002-0.038-0.005-0.058-0.007c0.011-0.174,0.011-0.174,0.19-0.172
			C722.292,2137.73,722.297,2137.731,722.302,2137.731z"/>
		<path fill-rule="evenodd" clip-rule="evenodd" fill="#0DAE2B" d="M741.329,2137.848c0.326,0.16,0.501,0.432,0.571,0.776
			c0.105,0.509-0.166,1.029-0.634,1.229c0.014-0.071,0.001-0.137-0.043-0.195c0.023-0.017,0.047-0.035,0.069-0.052
			c0.428-0.289,0.541-0.857,0.258-1.289c-0.093-0.142-0.223-0.242-0.366-0.326c0.04,0,0.053-0.026,0.063-0.061
			C741.26,2137.892,741.274,2137.848,741.329,2137.848z"/>
		<path fill-rule="evenodd" clip-rule="evenodd" fill="#0DAE2B" d="M744.344,2137.781c0.152,0.004,0.231,0.108,0.3,0.223
			c0.083,0.142,0.107,0.302,0.109,0.462c0.005,0.453,0.005,0.906,0.006,1.357c0,0.028,0.004,0.059-0.019,0.089
			c-0.021,0.001-0.044,0.006-0.068,0.006c-0.126,0.001-0.127,0.001-0.129-0.127c0-0.398,0.002-0.797,0-1.196
			c0-0.082-0.004-0.165-0.012-0.247c-0.016-0.163-0.083-0.299-0.225-0.39C744.311,2137.898,744.306,2137.835,744.344,2137.781z"/>
		<path fill-rule="evenodd" clip-rule="evenodd" fill="#41BC01" d="M721.281,2138.145c0.038-0.073,0.059-0.152,0.071-0.233
			c0.011,0,0.017,0.006,0.018,0.017c0.009,0.013,0.018,0.024,0.025,0.037c0.034,0.024,0.035,0.077,0.082,0.097
			c0.072-0.044,0.09-0.143,0.17-0.181c-0.031,0.087,0.011,0.172,0.017,0.258c-0.094,0.193-0.111,0.4-0.111,0.611
			c-0.001,0.35,0,0.7-0.001,1.051c0,0.037,0.017,0.089-0.024,0.106c-0.049,0.021-0.106,0.016-0.157,0
			c-0.032-0.009-0.026-0.048-0.026-0.076c0-0.092,0-0.185,0-0.277c0-0.312-0.003-0.623,0.001-0.935
			C721.346,2138.457,721.328,2138.3,721.281,2138.145z"/>
		<path fill-rule="evenodd" clip-rule="evenodd" fill="#0DAE2B" d="M733.771,2138.846c0.292-0.005,0.585,0.011,0.877-0.01
			c0.062,0.001,0.124,0.004,0.188,0.003c0.177,0,0.177-0.001,0.188-0.175c0.119-0.024,0.245,0.011,0.366-0.021
			c-0.034-0.27-0.152-0.449-0.404-0.624c-0.001-0.066,0.008-0.129,0.034-0.19c0.429,0.168,0.551,0.529,0.593,0.94
			c0.006,0.058-0.009,0.09-0.077,0.09C734.946,2138.853,734.358,2138.849,733.771,2138.846z"/>
		<path fill-rule="evenodd" clip-rule="evenodd" fill="#5AC004" d="M718.158,2137.902c-0.115,0.007-0.217,0.04-0.298,0.127
			c-0.139,0.148-0.119,0.339,0.044,0.461c0.084,0.064,0.193,0.08,0.275,0.148c-0.092,0.027-0.074,0.106-0.082,0.173
			c-0.106-0.021-0.201-0.069-0.291-0.126c-0.168-0.105-0.269-0.253-0.255-0.457c0.015-0.208,0.12-0.367,0.311-0.456
			c0.132-0.063,0.273-0.102,0.419-0.04c-0.115,0.013-0.115,0.013-0.121,0.114C718.159,2137.866,718.158,2137.884,718.158,2137.902z"
			/>
		<path fill-rule="evenodd" clip-rule="evenodd" fill="#0DAE2B" d="M754.831,2138.812c0.121-0.338,0.276-0.661,0.41-0.993
			c0.017-0.039,0.038-0.064,0.085-0.063c0.048,0.002,0.096,0.001,0.139,0.001c0.013,0.045-0.006,0.069-0.017,0.096
			c-0.177,0.42-0.354,0.839-0.531,1.259c-0.008,0.017-0.021,0.031-0.03,0.049C754.868,2139.043,754.85,2138.927,754.831,2138.812z"
			/>
		<path fill-rule="evenodd" clip-rule="evenodd" fill="#0DAE2B" d="M718.391,2139.682c0.098-0.077,0.172-0.17,0.199-0.295
			c0.042-0.199-0.031-0.351-0.203-0.457c0.018-0.065-0.028-0.165,0.093-0.176c0.453,0.185,0.406,0.797,0.12,1.031
			c-0.071,0.06-0.145,0.113-0.238,0.131C718.412,2139.843,718.385,2139.76,718.391,2139.682z"/>
		<path fill-rule="evenodd" clip-rule="evenodd" fill="#0DAE2B" d="M734.305,2135.042c3.034,0,6.07,0,9.104,0
			c0.068,0,0.136,0.001,0.204,0.001c-0.045,0.045-0.102,0.021-0.151,0.022c-1.124,0.001-2.248,0.001-3.372,0.001
			c-1.879,0-3.758,0-5.636-0.002C734.405,2135.064,734.348,2135.091,734.305,2135.042z"/>
		<path fill-rule="evenodd" clip-rule="evenodd" fill="#2BB801" d="M754.831,2138.812c0.019,0.115,0.037,0.231,0.056,0.349
			c-0.091,0.255-0.197,0.504-0.32,0.745c-0.038,0.073-0.036,0.159-0.09,0.222c-0.04-0.006-0.056-0.033-0.056-0.072
			c0.002-0.137-0.019-0.277,0.056-0.404C754.582,2139.366,754.699,2139.085,754.831,2138.812z"/>
		<path fill-rule="evenodd" clip-rule="evenodd" fill="#5AC004" d="M743.558,2126.073c-0.204-0.001-0.408-0.002-0.612-0.002
			c-2.34,0-4.68,0-7.019-0.001c-0.06,0-0.129,0.031-0.176-0.036c0.063,0.003,0.127,0.006,0.189,0.006c2.488,0,4.976,0,7.464,0.001
			c0.052,0,0.106-0.011,0.157,0.01c0.002,0,0.004,0.007,0.004,0.01C743.563,2126.064,743.561,2126.069,743.558,2126.073z"/>
		<path fill-rule="evenodd" clip-rule="evenodd" fill="#5AC004" d="M718.097,2139.948c-0.313,0.011-0.595-0.181-0.695-0.468
			c-0.031-0.09-0.031-0.09,0.06-0.121c0.113-0.039,0.113-0.039,0.162,0.06c0.13,0.267,0.278,0.351,0.58,0.33
			c0.015-0.001,0.029,0,0.043,0c-0.017,0.009-0.033,0.026-0.049,0.025c-0.085-0.003-0.106,0.043-0.099,0.117
			C718.101,2139.911,718.098,2139.93,718.097,2139.948z"/>
		<path fill-rule="evenodd" clip-rule="evenodd" fill="#0DAE2B" d="M737.976,2139.747c0.216-0.068,0.411-0.173,0.571-0.357
			c0.028,0.09,0.015,0.166,0.016,0.24c0.001,0.046-0.034,0.066-0.065,0.09c-0.158,0.117-0.33,0.202-0.529,0.221
			C738.013,2139.878,738.012,2139.813,737.976,2139.747z"/>
		<path fill-rule="evenodd" clip-rule="evenodd" fill="#0DAE2B" d="M735.019,2139.654c0.118-0.093,0.233-0.189,0.309-0.321
			c0.026-0.048,0.055-0.064,0.103-0.028c0.034,0.027,0.078,0.037,0.11,0.082c-0.127,0.228-0.298,0.41-0.555,0.497
			C734.995,2139.808,734.975,2139.727,735.019,2139.654z"/>
		<path fill-rule="evenodd" clip-rule="evenodd" fill="#35BA01" d="M751.731,2137.73c-0.021,0-0.039,0-0.059,0
			c-0.169,0-0.169,0-0.181,0.173c-0.216,0.032-0.364,0.15-0.444,0.354c-0.108-0.053-0.064-0.155-0.077-0.239
			c0-0.011,0.004-0.019,0.014-0.024c0.007-0.009,0.013-0.017,0.019-0.025C751.19,2137.721,751.442,2137.671,751.731,2137.73z"/>
		<path fill-rule="evenodd" clip-rule="evenodd" fill="#0DAE2B" d="M738.105,2137.761c0.091,0.041,0.191,0.049,0.281,0.102
			c0.109,0.065,0.183,0.138,0.155,0.275c-0.006,0.028,0,0.057,0,0.083c-0.053,0.018-0.065-0.023-0.088-0.044
			c-0.17-0.155-0.371-0.241-0.596-0.273c0.069,0.001,0.146,0.019,0.146-0.098C738.005,2137.745,738.066,2137.765,738.105,2137.761z"
			/>
		<path fill-rule="evenodd" clip-rule="evenodd" fill="#0DAE2B" d="M718.158,2137.902c0-0.019,0.001-0.036,0.002-0.056
			c0.005-0.102,0.005-0.102,0.121-0.114c0.16,0.031,0.279,0.123,0.374,0.252c0.039,0.052,0.031,0.08-0.028,0.11
			c-0.102,0.053-0.102,0.059-0.172-0.029C718.377,2137.968,718.274,2137.925,718.158,2137.902z"/>
		<path fill-rule="evenodd" clip-rule="evenodd" fill="#2BB801" d="M721.664,2138.139c-0.006-0.086-0.048-0.171-0.017-0.258
			c0.189-0.176,0.413-0.205,0.654-0.149c-0.005,0-0.01-0.001-0.015-0.001c-0.18-0.002-0.18-0.002-0.19,0.172
			C721.914,2137.91,721.771,2137.993,721.664,2138.139z"/>
		<path fill-rule="evenodd" clip-rule="evenodd" fill="#35BA01" d="M741.329,2137.848c-0.055,0-0.069,0.044-0.081,0.083
			c-0.011,0.034-0.023,0.061-0.063,0.061c-0.134-0.046-0.269-0.083-0.411-0.09c0.001-0.009,0.001-0.019,0.001-0.028
			c0.005-0.139,0.005-0.139,0.147-0.141c0.019,0,0.039-0.001,0.058-0.002C741.105,2137.74,741.224,2137.777,741.329,2137.848z"/>
		<path fill-rule="evenodd" clip-rule="evenodd" fill="#2BB801" d="M741.224,2139.658c0.044,0.059,0.057,0.124,0.043,0.195
			c-0.155,0.077-0.319,0.113-0.493,0.095c0.001-0.014,0.001-0.028,0.002-0.043c0.004-0.111,0.004-0.112,0.113-0.128
			c0.024-0.003,0.048-0.009,0.064-0.027C741.043,2139.719,741.134,2139.689,741.224,2139.658z"/>
		<path fill-rule="evenodd" clip-rule="evenodd" fill="#35BA01" d="M747.689,2137.85c-0.041-0.003-0.076,0.006-0.077,0.059
			c-0.001,0.037-0.003,0.075-0.004,0.113c-0.149-0.066-0.302-0.112-0.464-0.12c0-0.005,0-0.009,0-0.015
			c0.002-0.152-0.015-0.158,0.16-0.154c0.015,0,0.029-0.001,0.044-0.002C747.472,2137.743,747.588,2137.773,747.689,2137.85z"/>
		<path fill-rule="evenodd" clip-rule="evenodd" fill="#35BA01" d="M725.081,2137.901c0.002-0.009,0.002-0.019,0.002-0.028
			c0.005-0.139,0.005-0.138,0.148-0.141c0.019,0,0.039-0.002,0.058-0.002c0.116,0.004,0.222,0.045,0.319,0.104
			c-0.025,0.025-0.031,0.057-0.03,0.091c0.003,0.063-0.039,0.067-0.086,0.065C725.36,2137.94,725.225,2137.904,725.081,2137.901z"/>
		<path fill-rule="evenodd" clip-rule="evenodd" fill="#35BA01" d="M747.644,2139.627c-0.049,0.072-0.023,0.156-0.035,0.234
			c-0.146,0.075-0.301,0.104-0.465,0.087c0.001-0.014,0.001-0.028,0.002-0.043c0.004-0.112,0.004-0.113,0.113-0.129
			c0.024-0.003,0.046-0.009,0.063-0.027C747.433,2139.717,747.539,2139.674,747.644,2139.627z"/>
		<path fill-rule="evenodd" clip-rule="evenodd" fill="#2BB801" d="M725.11,2139.948c0.001-0.014,0.001-0.028,0.002-0.043
			c0.005-0.112,0.005-0.112,0.113-0.128c0.024-0.003,0.048-0.01,0.064-0.028c0.088-0.029,0.177-0.058,0.259-0.103
			c0.031,0.071,0.051,0.143-0.001,0.213C725.411,2139.935,725.266,2139.964,725.11,2139.948z"/>
		<path fill-rule="evenodd" clip-rule="evenodd" fill="#35BA01" d="M735.02,2137.829c-0.026,0.062-0.035,0.124-0.034,0.19
			c-0.134-0.081-0.28-0.115-0.436-0.118c0.005-0.166-0.026-0.173,0.174-0.169c0.019,0,0.038,0,0.057-0.001
			C734.868,2137.745,734.962,2137.743,735.02,2137.829z"/>
		<path fill-rule="evenodd" clip-rule="evenodd" fill="#35BA01" d="M738.105,2137.761c-0.039,0.004-0.101-0.016-0.102,0.045
			c0,0.116-0.076,0.099-0.146,0.098c-0.09,0.006-0.18,0.013-0.27,0.02c0.001-0.063,0.002-0.128,0.003-0.191
			C737.766,2137.686,737.938,2137.698,738.105,2137.761z"/>
		<path fill-rule="evenodd" clip-rule="evenodd" fill="#2BB801" d="M735.019,2139.654c-0.044,0.072-0.023,0.153-0.033,0.229
			c-0.131,0.057-0.267,0.081-0.407,0.064c0-0.019,0.001-0.037,0.002-0.057c0.006-0.103,0.006-0.103,0.113-0.114
			c0.033-0.003,0.068,0,0.093-0.029C734.863,2139.717,734.941,2139.686,735.019,2139.654z"/>
		<path fill-rule="evenodd" clip-rule="evenodd" fill="#35BA01" d="M744.344,2137.781c-0.038,0.054-0.033,0.117-0.037,0.177
			c-0.112-0.043-0.229-0.054-0.348-0.056c0.004-0.171,0.004-0.17,0.167-0.171c0.033,0,0.066-0.002,0.099-0.002
			C744.271,2137.732,744.325,2137.717,744.344,2137.781z"/>
		<path fill-rule="evenodd" clip-rule="evenodd" fill="#2BB801" d="M718.479,2138.754c-0.121,0.011-0.076,0.11-0.093,0.176
			c-0.099-0.034-0.197-0.067-0.29-0.118c0.008-0.066-0.01-0.146,0.082-0.173C718.282,2138.668,718.392,2138.683,718.479,2138.754z"
			/>
		<path fill-rule="evenodd" clip-rule="evenodd" fill="#0DAE2B" d="M728.226,2137.906c-0.043-0.002-0.071-0.015-0.073-0.065
			c-0.001-0.04,0.015-0.073,0.03-0.108l-0.003-0.001c0.085-0.002,0.171-0.003,0.256-0.005c0.039,0.003,0.077,0.008,0.104,0.043
			c-0.005,0.044-0.038,0.076-0.056,0.114c-0.022,0.047-0.051,0.068-0.102,0.042S728.278,2137.912,728.226,2137.906z"/>
		<path fill-rule="evenodd" clip-rule="evenodd" fill="#0DAE2B" d="M730.025,2137.968c0.02-0.035,0.063-0.057,0.055-0.106
			c-0.008-0.051,0.035-0.071,0.063-0.1c0.048-0.002,0.095-0.006,0.143-0.005c0.122,0,0.126,0.008,0.119,0.13
			c-0.002,0.058-0.025,0.073-0.079,0.073C730.227,2137.963,730.126,2137.949,730.025,2137.968z"/>
		<path fill-rule="evenodd" clip-rule="evenodd" fill="#2BB801" d="M737.976,2139.747c0.036,0.066,0.037,0.131-0.008,0.193
			c-0.107,0.022-0.214,0.019-0.321,0.006c0.001-0.015,0.001-0.028,0.002-0.043c0.006-0.121,0.006-0.12,0.129-0.126
			c0.055-0.002,0.114,0.017,0.163-0.027C737.951,2139.749,737.964,2139.748,737.976,2139.747z"/>
		<path fill-rule="evenodd" clip-rule="evenodd" fill="#2BB801" d="M718.097,2139.948c0.001-0.019,0.004-0.037,0.002-0.057
			c-0.007-0.074,0.014-0.12,0.099-0.117c0.016,0.001,0.032-0.017,0.049-0.025c0.047-0.022,0.096-0.045,0.144-0.067
			c-0.005,0.078,0.021,0.161-0.03,0.234C718.276,2139.956,718.188,2139.961,718.097,2139.948z"/>
		<path fill-rule="evenodd" clip-rule="evenodd" fill="#5AC004" d="M717.49,2135.045c0.288,0,0.575-0.001,0.862-0.001
			c-0.275,0.006-0.549,0.013-0.825,0.019C717.515,2135.063,717.502,2135.052,717.49,2135.045z"/>
		<path fill-rule="evenodd" clip-rule="evenodd" fill="#7ECF00" d="M728.436,2137.727c-0.085,0.002-0.171,0.003-0.256,0.005
			C728.265,2137.694,728.35,2137.688,728.436,2137.727z"/>
		<path fill-rule="evenodd" clip-rule="evenodd" fill="#76CC00" d="M687.15,2117.277c-0.022,0-0.042-0.006-0.055-0.027
			C687.12,2117.247,687.136,2117.261,687.15,2117.277z"/>
		<path fill-rule="evenodd" clip-rule="evenodd" fill="#58BF00" d="M705.885,2113.92c-0.015,0.021-0.036,0.024-0.059,0.023
			C705.841,2113.925,705.86,2113.917,705.885,2113.92z"/>
		<path fill-rule="evenodd" clip-rule="evenodd" fill="#ABE300" d="M679.032,2113.446c-0.014,0.001-0.027,0.001-0.041,0.002
			c-0.009-0.01-0.007-0.018,0.007-0.02C679.014,2113.426,679.025,2113.433,679.032,2113.446z"/>
		<path fill-rule="evenodd" clip-rule="evenodd" fill="#5AC004" d="M721.396,2137.965c-0.008-0.013-0.017-0.024-0.025-0.037
			C721.388,2137.935,721.398,2137.943,721.396,2137.965z"/>
		<path fill-rule="evenodd" clip-rule="evenodd" fill="#5AC004" d="M751.003,2137.968c-0.006,0.009-0.012,0.017-0.019,0.025
			C750.983,2137.979,750.99,2137.972,751.003,2137.968z"/>
		<path fill-rule="evenodd" clip-rule="evenodd" fill="#41BC01" d="M735.788,2133.725c-0.02-0.001-0.032-0.01-0.039-0.027
			C735.762,2133.706,735.775,2133.715,735.788,2133.725z"/>
		<path fill-rule="evenodd" clip-rule="evenodd" fill="#35BA01" d="M726.376,2132.939c0.007,0.01,0.014,0.02,0.021,0.029
			C726.383,2132.964,726.374,2132.955,726.376,2132.939z"/>
		<path fill-rule="evenodd" clip-rule="evenodd" fill="#35BA01" d="M752.697,2133.673c0.023-0.003,0.041,0.008,0.057,0.025
			C752.73,2133.698,752.711,2133.694,752.697,2133.673z"/>
		<path fill-rule="evenodd" clip-rule="evenodd" fill="#35BA01" d="M752.843,2133.731c0.024-0.003,0.045,0.005,0.061,0.023
			C752.88,2133.757,752.857,2133.753,752.843,2133.731z"/>
		<path fill-rule="evenodd" clip-rule="evenodd" fill="#35BA01" d="M752.932,2133.763c0.023-0.005,0.042,0.005,0.058,0.022
			C752.967,2133.786,752.946,2133.783,752.932,2133.763z"/>
		<path fill-rule="evenodd" clip-rule="evenodd" fill="#35BA01" d="M752.23,2133.443c0.016-0.002,0.025,0.006,0.03,0.02
			C752.25,2133.456,752.24,2133.45,752.23,2133.443z"/>
		<path fill-rule="evenodd" clip-rule="evenodd" fill="#2BB801" d="M734.642,2138.662c0.126-0.01,0.254-0.012,0.381,0.002
			c-0.011,0.174-0.011,0.175-0.188,0.175c-0.063,0.001-0.126-0.002-0.188-0.003C734.632,2138.778,734.639,2138.721,734.642,2138.662
			z"/>
	</g>
</g>
</svg>
