<?xml version="1.0" encoding="utf-8"?>
<!-- Generator: Adobe Illustrator 16.0.0, SVG Export Plug-In . SVG Version: 6.00 Build 0)  -->
<!DOCTYPE svg PUBLIC "-//W3C//DTD SVG 1.1//EN" "http://www.w3.org/Graphics/SVG/1.1/DTD/svg11.dtd">
<svg version="1.1" id="Layer_1" xmlns="http://www.w3.org/2000/svg" xmlns:xlink="http://www.w3.org/1999/xlink" x="0px" y="0px"
	 width="103px" height="103px" viewBox="0 0 103 103" enable-background="new 0 0 103 103" xml:space="preserve">
<title>bw-tier</title>
<desc>Created with Sketch.</desc>
<g id="Homepage" transform="translate(-669.000000, -2072.000000)">
	<g id="bw-tier" transform="translate(670.000000, 2073.000000)">
		<circle id="Oval-Copy-4" fill="none" stroke="#8295A5" stroke-width="0.9" cx="50.5" cy="50.5" r="50.5"/>
	</g>
</g>
<g>
	<path fill-rule="evenodd" clip-rule="evenodd" fill="#33A9DF" d="M51.556,69.808c-1.534,0.002-2.563-1.506-1.996-2.938
		c0.079-0.198,0.12-0.335-0.076-0.501c-1.118-0.943-2.229-1.896-3.329-2.86c-0.235-0.206-0.369-0.058-0.537,0.063
		c-2.02,1.461-4.041,2.922-6.061,4.382c-0.169,0.123-0.331,0.258-0.508,0.367c-0.447,0.273-0.772,0.544-0.673,1.193
		c0.094,0.605-0.471,1.167-1.115,1.325c-0.65,0.159-1.309-0.108-1.625-0.73c-0.142-0.278-0.305-0.335-0.584-0.333
		c-2.419,0.009-4.839,0.01-7.258-0.002c-0.287-0.001-0.445,0.076-0.592,0.338c-0.389,0.695-1.12,0.938-1.844,0.662
		c-0.647-0.247-1.038-0.935-0.895-1.666c0.045-0.23-0.027-0.321-0.185-0.435c-2.073-1.488-4.146-2.979-6.214-4.475
		c-0.186-0.135-0.326-0.123-0.524-0.025c-0.678,0.337-1.42,0.161-1.842-0.408c-0.467-0.629-0.446-1.337,0.11-1.91
		c0.217-0.223,0.221-0.406,0.134-0.672c-0.778-2.365-1.548-4.734-2.314-7.104c-0.065-0.202-0.145-0.308-0.383-0.351
		c-0.815-0.148-1.293-0.72-1.291-1.479c0.002-0.743,0.497-1.316,1.31-1.462c0.232-0.042,0.324-0.145,0.39-0.348
		c0.761-2.355,1.525-4.71,2.299-7.063c0.083-0.252,0.07-0.423-0.135-0.629c-0.562-0.565-0.591-1.277-0.126-1.905
		c0.438-0.593,1.183-0.772,1.871-0.406c0.231,0.123,0.375,0.08,0.559-0.054c2.042-1.482,4.084-2.961,6.131-4.438
		c0.169-0.122,0.259-0.217,0.21-0.467c-0.148-0.743,0.262-1.425,0.949-1.675c0.69-0.25,1.43,0.007,1.794,0.691
		c0.155,0.29,0.329,0.351,0.625,0.35c2.404-0.01,4.809-0.011,7.213,0c0.286,0.001,0.446-0.067,0.585-0.34
		c0.331-0.652,1.033-0.93,1.7-0.729c0.714,0.215,1.153,0.815,1.056,1.56c-0.047,0.36,0.08,0.533,0.347,0.724
		c2.004,1.433,3.999,2.877,5.992,4.325c0.19,0.138,0.33,0.167,0.558,0.047c0.702-0.371,1.452-0.177,1.898,0.451
		c0.441,0.62,0.382,1.337-0.196,1.904c-0.186,0.182-0.19,0.331-0.118,0.549c0.78,2.381,1.557,4.763,2.328,7.147
		c0.064,0.2,0.134,0.312,0.382,0.346c0.768,0.106,1.319,0.742,1.321,1.459c0.002,0.74-0.518,1.345-1.302,1.468
		c-0.234,0.036-0.326,0.142-0.394,0.349c-0.898,2.781-1.802,5.562-2.713,8.341c-0.077,0.236-0.023,0.384,0.162,0.539
		c1.104,0.936,2.208,1.873,3.296,2.829c0.225,0.197,0.362,0.077,0.545-0.021c0.945-0.507,2.031-0.318,2.683,0.461
		c0.716,0.854,0.73,1.909,0.023,2.786C52.779,69.557,52.227,69.813,51.556,69.808z M24.86,36.452
		c-0.042,0.017-0.087,0.026-0.122,0.051c-2.081,1.498-4.163,2.995-6.24,4.498c-0.33,0.24-0.237,0.928,0.139,1.097
		c0.557,0.25,1.128,0.471,1.677,0.736c0.313,0.151,0.561,0.202,0.826-0.088c0.111-0.122,0.321-0.245,0.469-0.228
		c0.679,0.075,0.828-0.407,1.013-0.878c0.098-0.249,0.219-0.489,0.327-0.735c0.65-1.47,1.301-2.94,1.951-4.41
		c0.034-0.029,0.059-0.059,0.01-0.093C24.907,36.398,24.877,36.434,24.86,36.452z M37.99,68.135
		c0.103-0.057,0.213-0.104,0.309-0.173c2.005-1.449,4.01-2.898,6.011-4.354c0.284-0.207,0.608-0.366,0.857-0.684
		c-0.998-0.431-1.967-0.848-2.935-1.27c-0.167-0.074-0.278-0.003-0.396,0.105c-0.275,0.249-0.604,0.396-0.973,0.388
		c-0.221-0.005-0.32,0.086-0.398,0.27c-0.169,0.397-0.354,0.788-0.529,1.184c-0.665,1.495-1.328,2.991-1.992,4.488
		c-0.018,0.021-0.053,0.052-0.048,0.059C37.931,68.207,37.961,68.167,37.99,68.135z M31.423,51.945c1.226,0,2.45,0.002,3.675-0.001
		c0.49-0.001,0.854-0.601,0.614-1.016c-1.247-2.159-2.494-4.316-3.746-6.473c-0.241-0.416-0.864-0.409-1.105,0.007
		c-1.241,2.145-2.481,4.29-3.721,6.435c-0.254,0.44,0.097,1.046,0.609,1.046C28.974,51.947,30.198,51.945,31.423,51.945z
		 M31.388,60.347c0.235,0.038,0.424,0.081,0.578-0.188c1.243-2.178,2.507-4.343,3.758-6.515c0.212-0.367-0.149-0.977-0.572-0.977
		c-2.479-0.004-4.958-0.004-7.437,0c-0.49,0-0.819,0.602-0.572,1.029c1.218,2.104,2.438,4.209,3.649,6.319
		C30.937,60.267,31.06,60.491,31.388,60.347z M26.012,53.778c-0.334-0.105-0.457,0.112-0.58,0.377
		c-0.708,1.529-1.412,3.06-2.148,4.576c-0.223,0.459-0.346,0.797,0,1.314c0.248,0.372,0.477,0.477,0.846,0.521
		c1.835,0.224,3.669,0.455,5.502,0.683c0.187,0.023,0.366,0.092,0.502-0.146c0.131-0.228,0.23-0.389,0.064-0.673
		c-1.246-2.122-2.469-4.258-3.692-6.394C26.391,53.837,26.278,53.689,26.012,53.778z M26.018,50.806
		c0.256,0.089,0.376-0.056,0.493-0.257c1.234-2.164,2.469-4.328,3.723-6.48c0.155-0.267,0.008-0.4-0.088-0.594
		c-0.106-0.211-0.262-0.192-0.45-0.168c-1.773,0.234-3.548,0.462-5.321,0.693c-0.485,0.063-1.046,0.009-1.137,0.712
		c-0.009,0.064-0.08,0.127-0.134,0.176c-0.167,0.145-0.144,0.291-0.056,0.477c0.813,1.711,1.624,3.422,2.418,5.141
		C25.589,50.772,25.749,50.866,26.018,50.806z M33.025,61.276c0.045-0.005,0.089-0.013,0.133-0.018
		c1.803-0.228,3.604-0.466,5.409-0.675c0.455-0.053,0.886-0.062,1.001-0.629c0.017-0.08,0.09-0.158,0.156-0.216
		c0.173-0.149,0.178-0.294,0.079-0.503c-0.816-1.706-1.62-3.419-2.427-5.131c-0.088-0.188-0.147-0.367-0.438-0.348
		c-0.262,0.019-0.468,0.005-0.621,0.293c-0.392,0.736-0.826,1.45-1.244,2.173c-0.819,1.419-1.643,2.837-2.458,4.259
		C32.421,60.821,32.669,61.286,33.025,61.276z M36.835,50.805c0.339,0.096,0.457-0.12,0.58-0.388
		c0.693-1.502,1.388-3.004,2.11-4.493c0.232-0.48,0.504-0.919-0.017-1.376c-0.051-0.044-0.075-0.132-0.086-0.203
		c-0.026-0.179-0.125-0.242-0.299-0.263c-2.011-0.242-4.022-0.486-6.032-0.745c-0.265-0.034-0.358,0.11-0.498,0.275
		c-0.156,0.185-0.083,0.319,0.01,0.479c1.245,2.156,2.492,4.311,3.73,6.471C36.453,50.769,36.583,50.889,36.835,50.805z
		 M31.408,69.025c1.224,0,2.448-0.007,3.672,0.005c0.266,0.003,0.42-0.06,0.556-0.314c0.139-0.259,0.049-0.401-0.091-0.592
		c-0.98-1.336-1.957-2.674-2.922-4.02c-0.342-0.477-0.591-1.009-1.372-0.841c-0.269,0.06-0.478,0.058-0.654,0.304
		c-1.096,1.528-2.206,3.047-3.309,4.567c-0.109,0.15-0.261,0.271-0.116,0.509c0.139,0.228,0.24,0.397,0.563,0.391
		C28.96,69.012,30.185,69.025,31.408,69.025z M31.409,35.56c-1.223,0-2.447,0.015-3.669-0.01c-0.323-0.007-0.422,0.156-0.563,0.384
		c-0.143,0.234-0.01,0.352,0.103,0.507c0.994,1.36,1.985,2.723,2.979,4.083c0.313,0.43,0.562,0.982,1.271,0.734
		c0.012-0.004,0.029,0.004,0.043,0.009c0.297,0.112,0.46-0.048,0.625-0.272c1.117-1.528,2.242-3.052,3.372-4.57
		c0.141-0.189,0.172-0.328,0.056-0.556c-0.118-0.235-0.244-0.318-0.504-0.315C33.884,35.567,32.646,35.56,31.409,35.56z
		 M23.661,61.233c-0.344-0.033-0.787,0.538-0.669,0.801c0.843,1.875,1.687,3.749,2.538,5.62c0.173,0.383,0.886,0.442,1.131,0.104
		c1.14-1.566,2.278-3.136,3.415-4.704c0.248-0.343-0.025-1.015-0.441-1.068C27.625,61.729,25.616,61.479,23.661,61.233z
		 M36.554,67.978c0.165-0.202,0.568,0.146,0.754-0.284c0.827-1.901,1.68-3.791,2.518-5.688c0.12-0.271-0.296-0.816-0.587-0.779
		c-1.998,0.248-3.996,0.497-5.993,0.755c-0.47,0.061-0.753,0.703-0.48,1.082c1.136,1.574,2.276,3.144,3.418,4.713
		C36.257,67.879,36.317,68.021,36.554,67.978z M36.756,36.657c-0.234-0.039-0.414-0.069-0.574,0.154
		c-1.137,1.588-2.292,3.163-3.434,4.748c-0.235,0.326,0.058,0.957,0.452,1.008c1.978,0.261,3.959,0.509,5.935,0.791
		c0.394,0.056,0.454-0.25,0.653-0.417c0.196-0.164,0.088-0.314,0.017-0.475c-0.808-1.793-1.622-3.584-2.418-5.383
		C37.25,36.775,37.099,36.567,36.756,36.657z M23.603,43.364c0.044-0.004,0.089-0.007,0.133-0.013
		c1.919-0.257,3.838-0.512,5.756-0.772c0.615-0.083,0.861-0.662,0.496-1.166c-1.092-1.509-2.188-3.016-3.285-4.522
		c-0.306-0.419-0.992-0.357-1.205,0.114c-0.829,1.833-1.653,3.667-2.477,5.501C22.873,42.835,23.24,43.373,23.603,43.364z
		 M41.087,51.946c0.777,0,1.553,0.001,2.33,0c0.518-0.001,0.929-0.653,0.69-1.104c-0.898-1.703-1.806-3.4-2.696-5.107
		c-0.129-0.247-0.276-0.321-0.552-0.324c-0.278-0.003-0.354,0.148-0.444,0.341c-0.795,1.72-1.595,3.438-2.39,5.158
		c-0.154,0.334,0.275,1.031,0.642,1.034C39.474,51.95,40.28,51.945,41.087,51.946z M21.713,51.945c0.643,0,1.285-0.016,1.926,0.006
		c0.476,0.017,0.882,0.021,1.125-0.527c0.106-0.238,0.176-0.38,0.057-0.627c-0.793-1.654-1.57-3.315-2.353-4.974
		c-0.101-0.212-0.161-0.411-0.492-0.415c-0.33-0.004-0.441,0.164-0.561,0.395c-0.9,1.717-1.805,3.433-2.704,5.15
		c-0.155,0.296,0.282,0.989,0.628,0.992C20.131,51.951,20.922,51.946,21.713,51.945z M41.136,52.665
		c-0.821,0-1.641-0.005-2.462,0.002c-0.352,0.003-0.838,0.709-0.696,1.014c0.815,1.742,1.641,3.479,2.449,5.224
		c0.112,0.24,0.274,0.255,0.496,0.27c0.23,0.015,0.352-0.058,0.457-0.257c0.914-1.743,1.839-3.481,2.754-5.224
		c0.221-0.42-0.151-1.024-0.626-1.026C42.718,52.662,41.927,52.665,41.136,52.665z M21.779,52.665c-0.792,0-1.583-0.002-2.374,0.002
		c-0.47,0.001-0.863,0.646-0.644,1.063c0.891,1.705,1.788,3.408,2.678,5.114c0.109,0.21,0.209,0.342,0.499,0.336
		c0.304-0.006,0.41-0.145,0.52-0.379c0.782-1.676,1.574-3.347,2.363-5.02c0.195-0.412-0.249-1.114-0.712-1.116
		C23.331,52.663,22.555,52.665,21.779,52.665z M45.012,53.816c-0.034-0.009-0.066-0.018-0.1-0.026
		c-0.991,1.867-1.983,3.733-2.974,5.601c-0.053,0.1-0.07,0.193,0.015,0.287c0.284,0.312,0.436,0.671,0.394,1.101
		c-0.008,0.084,0.042,0.137,0.117,0.17c1.017,0.443,2.034,0.888,3.104,1.354C45.378,59.422,45.195,56.619,45.012,53.816z
		 M24.909,68.225c0.009-0.101,0.022-0.133,0.013-0.154c-0.85-1.889-1.702-3.776-2.548-5.665c-0.085-0.194-0.199-0.258-0.409-0.256
		c-0.336,0.002-0.661-0.104-0.898-0.343c-0.225-0.227-0.424-0.193-0.677-0.076c-0.554,0.256-1.119,0.491-1.679,0.735
		c-0.5,0.217-0.575,0.895-0.126,1.22c1.147,0.832,2.296,1.658,3.447,2.484C22.975,66.847,23.921,67.52,24.909,68.225z
		 M37.932,36.371c0.023,0.179,0.019,0.226,0.036,0.264c0.831,1.849,1.666,3.696,2.493,5.546c0.088,0.198,0.187,0.311,0.428,0.292
		c0.341-0.027,0.661,0.09,0.898,0.331c0.208,0.214,0.385,0.189,0.627,0.075c0.539-0.254,1.076-0.534,1.644-0.699
		c0.491-0.143,0.393-0.5,0.475-0.826c0.08-0.314-0.188-0.345-0.331-0.449c-1.724-1.256-3.457-2.5-5.187-3.747
		C38.681,36.917,38.347,36.673,37.932,36.371z M44.955,50.788c0.122-0.159,0.077-0.313,0.087-0.453
		c0.049-0.683,0.089-1.367,0.133-2.051c0.104-1.62,0.212-3.24,0.309-4.86c0.022-0.38-0.641-0.816-0.991-0.667
		c-0.562,0.239-1.117,0.496-1.685,0.719c-0.319,0.125-0.531,0.264-0.479,0.667c0.033,0.256-0.13,0.491-0.297,0.68
		c-0.161,0.182-0.131,0.324-0.028,0.517c0.786,1.471,1.557,2.951,2.345,4.42C44.534,50.103,44.676,50.477,44.955,50.788z
		 M17.865,50.816c0.101-0.065,0.136-0.075,0.148-0.097c0.959-1.822,1.917-3.645,2.874-5.468c0.041-0.078,0.1-0.172,0.038-0.252
		c-0.278-0.364-0.475-0.75-0.45-1.229c0.008-0.144-0.167-0.154-0.27-0.2c-0.599-0.267-1.203-0.525-1.805-0.788
		c-0.47-0.205-1.083,0.242-1.045,0.758c0.09,1.25,0.174,2.5,0.263,3.75C17.698,48.449,17.78,49.607,17.865,50.816z M17.872,53.763
		c-0.028,0.346-0.056,0.642-0.076,0.938c-0.136,2.021-0.256,4.045-0.415,6.064c-0.034,0.432-0.056,0.751,0.417,0.978
		c0.224,0.106,0.363,0.168,0.593,0.062c0.568-0.262,1.144-0.506,1.725-0.738c0.262-0.104,0.411-0.23,0.382-0.549
		c-0.021-0.238,0.095-0.479,0.258-0.651c0.229-0.247,0.174-0.455,0.035-0.719c-0.872-1.645-1.73-3.298-2.598-4.946
		C18.12,54.063,18.077,53.896,17.872,53.763z M16.562,60.726c0.032-0.01,0.064-0.019,0.096-0.028c0.01-0.056,0.024-0.11,0.028-0.166
		c0.133-2.038,0.25-4.077,0.405-6.113c0.034-0.442,0.067-0.81-0.433-1.001c-0.111-0.043-0.223-0.177-0.265-0.292
		c-0.155-0.432-0.467-0.48-0.872-0.473c-0.39,0.009-0.731,0.012-0.884,0.454c-0.027,0.077-0.109,0.145-0.181,0.195
		c-0.207,0.147-0.207,0.326-0.134,0.549c0.345,1.048,0.677,2.099,1.018,3.146C15.745,58.241,16.154,59.483,16.562,60.726z
		 M16.659,43.861c-0.025-0.003-0.049-0.006-0.074-0.009c-0.05,0.133-0.105,0.265-0.15,0.4c-0.625,1.909-1.244,3.821-1.875,5.728
		c-0.187,0.563-0.375,1.048,0.154,1.605c0.265,0.281,0.461,0.375,0.79,0.362c0.327-0.012,0.682,0.098,0.831-0.374
		c0.085-0.268,0.326-0.461,0.595-0.579c0.156-0.068,0.221-0.161,0.208-0.343c-0.129-1.783-0.249-3.565-0.372-5.349
		C16.731,44.822,16.694,44.341,16.659,43.861z M46.238,43.738c-0.029,0.124-0.043,0.164-0.046,0.205
		c-0.144,2.186-0.282,4.372-0.437,6.557c-0.019,0.27,0.073,0.405,0.306,0.51c0.222,0.1,0.411,0.282,0.489,0.504
		c0.133,0.38,0.372,0.46,0.745,0.444c0.381-0.016,0.741,0.02,0.868-0.457c0.021-0.078,0.101-0.151,0.171-0.203
		c0.227-0.167,0.246-0.358,0.156-0.622c-0.347-1.03-0.668-2.068-1.003-3.102C47.081,46.319,46.67,45.065,46.238,43.738z
		 M46.183,60.744c0.029,0.002,0.056,0.005,0.084,0.009c0.038-0.11,0.079-0.218,0.114-0.329c0.646-1.984,1.285-3.972,1.938-5.955
		c0.166-0.504,0.415-0.999-0.177-1.406c-0.065-0.045-0.099-0.148-0.127-0.231c-0.039-0.118-0.108-0.171-0.23-0.164
		c-0.501,0.025-1.094-0.196-1.347,0.508c-0.032,0.089-0.127,0.193-0.214,0.22c-0.584,0.178-0.487,0.617-0.427,1.051
		c0.019,0.132,0.018,0.268,0.026,0.401C45.942,56.813,46.063,58.778,46.183,60.744z"/>
	<path fill-rule="evenodd" clip-rule="evenodd" fill="#33A9DF" d="M66.107,63.868c0,1.164-0.01,2.327,0.007,3.491
		c0.005,0.299-0.09,0.378-0.379,0.375c-1.493-0.013-2.985,0-4.478-0.008c-0.881-0.005-1.345-0.483-1.345-1.367
		c-0.002-1.939-0.002-3.88,0-5.819c0-0.894,0.479-1.374,1.386-1.38c1.148-0.007,2.298-0.007,3.447,0
		c0.9,0.008,1.359,0.483,1.361,1.396C66.108,61.66,66.107,62.764,66.107,63.868z M65.284,63.571c0-0.94,0.003-1.882-0.001-2.822
		c-0.002-0.546-0.182-0.732-0.718-0.735c-1.03-0.006-2.061-0.006-3.091-0.001c-0.546,0.004-0.729,0.181-0.73,0.727
		c-0.006,1.808-0.006,3.614,0,5.422c0.002,0.532,0.176,0.711,0.694,0.716c1.165,0.008,2.329-0.005,3.494,0.008
		c0.272,0.003,0.361-0.081,0.357-0.356C65.275,65.543,65.284,64.557,65.284,63.571z"/>
	<path fill-rule="evenodd" clip-rule="evenodd" fill="#33A9DF" d="M93.402,65.556c0.001,0.598-0.024,1.196,0.009,1.791
		c0.021,0.382-0.164,0.396-0.455,0.396c-0.287,0.002-0.426-0.043-0.42-0.384c0.021-1.149,0.01-2.299,0.007-3.449
		c-0.001-0.158,0.052-0.35-0.135-0.44c-0.219-0.105-0.321,0.09-0.441,0.212c-0.23,0.234-0.443,0.485-0.68,0.714
		c-0.859,0.831-2.129,0.808-2.969-0.047c-0.25-0.256-0.504-0.51-0.756-0.765c-0.096-0.097-0.188-0.206-0.344-0.151
		c-0.184,0.063-0.167,0.226-0.168,0.374c-0.001,1.165-0.012,2.33,0.008,3.494c0.005,0.331-0.08,0.438-0.422,0.435
		c-0.341-0.002-0.465-0.077-0.456-0.445c0.024-1.149,0.016-2.3,0.006-3.449c-0.004-0.563,0.191-1.004,0.728-1.218
		c0.512-0.205,0.925-0.006,1.276,0.385c0.24,0.267,0.497,0.518,0.756,0.766c0.529,0.509,1.236,0.505,1.759-0.009
		c0.255-0.252,0.497-0.517,0.749-0.771c0.386-0.393,0.834-0.517,1.253-0.332c0.476,0.209,0.692,0.593,0.695,1.103
		C93.403,64.36,93.402,64.959,93.402,65.556z"/>
	<path fill-rule="evenodd" clip-rule="evenodd" fill="#33A9DF" d="M70.493,64.203c0-0.7,0.019-1.402-0.008-2.103
		c-0.012-0.337,0.09-0.431,0.426-0.432c0.35-0.002,0.485,0.091,0.448,0.452c-0.029,0.28,0.013,0.567-0.011,0.849
		c-0.026,0.313,0.086,0.409,0.4,0.405c1.163-0.018,2.328,0.007,3.491-0.016c0.354-0.006,0.448,0.094,0.458,0.447
		c0.011,0.394-0.157,0.433-0.477,0.428c-1.163-0.014-2.327,0.003-3.49-0.011c-0.288-0.004-0.396,0.077-0.384,0.376
		c0.021,0.536,0.003,1.074,0.007,1.61c0.003,0.553,0.106,0.664,0.651,0.667c1.074,0.007,2.149,0.013,3.223-0.005
		c0.33-0.005,0.472,0.056,0.471,0.435c-0.002,0.373-0.131,0.441-0.466,0.436c-1.073-0.019-2.148-0.004-3.223-0.008
		c-1.002-0.005-1.516-0.521-1.518-1.517C70.493,65.547,70.493,64.875,70.493,64.203z"/>
	<path fill-rule="evenodd" clip-rule="evenodd" fill="#33A9DF" d="M81.435,67.734c-0.7,0-1.401,0.005-2.104,0
		c-0.965-0.008-1.495-0.538-1.496-1.494c-0.001-1.06,0.011-2.119-0.007-3.178c-0.005-0.313,0.047-0.441,0.405-0.442
		c0.369-0.001,0.443,0.125,0.438,0.462c-0.02,1-0.009,2-0.007,2.998c0.001,0.671,0.119,0.797,0.771,0.798
		c1.119,0.003,2.237-0.012,3.356,0.009c0.344,0.006,0.428-0.107,0.423-0.436c-0.019-1.134,0.006-2.268-0.015-3.4
		c-0.007-0.338,0.094-0.426,0.426-0.429c0.345-0.003,0.424,0.108,0.419,0.437c-0.018,1.416-0.017,2.834,0,4.251
		c0.004,0.322-0.065,0.446-0.417,0.434C82.898,67.716,82.166,67.734,81.435,67.734z"/>
	<path fill-rule="evenodd" clip-rule="evenodd" fill="#33A9DF" d="M68.402,64.383c-0.344-0.037-0.548-0.229-0.581-0.569
		c-0.029-0.303,0.288-0.611,0.598-0.594c0.347,0.021,0.549,0.226,0.579,0.565C69.027,64.098,68.727,64.383,68.402,64.383z"/>
	<path fill-rule="evenodd" clip-rule="evenodd" fill="#FCFDFE" d="M24.86,36.452c0.017-0.018,0.047-0.053,0.051-0.05
		c0.048,0.034,0.023,0.064-0.01,0.093C24.887,36.48,24.873,36.466,24.86,36.452z"/>
	<path fill-rule="evenodd" clip-rule="evenodd" fill="#FCFDFE" d="M37.99,68.135c-0.029,0.032-0.06,0.072-0.096,0.013
		c-0.004-0.007,0.031-0.038,0.048-0.059C37.958,68.104,37.975,68.119,37.99,68.135z"/>
</g>
</svg>
