<?xml version="1.0" encoding="utf-8"?>
<!-- Generator: Adobe Illustrator 16.0.0, SVG Export Plug-In . SVG Version: 6.00 Build 0)  -->
<!DOCTYPE svg PUBLIC "-//W3C//DTD SVG 1.1//EN" "http://www.w3.org/Graphics/SVG/1.1/DTD/svg11.dtd">
<svg version="1.1" id="Layer_1" xmlns="http://www.w3.org/2000/svg" xmlns:xlink="http://www.w3.org/1999/xlink" x="0px" y="0px"
	 width="103px" height="103px" viewBox="0 0 103 103" enable-background="new 0 0 103 103" xml:space="preserve">
<title>bw-tier</title>
<desc>Created with Sketch.</desc>
<g id="Homepage" transform="translate(-669.000000, -2072.000000)">
	<g id="bw-tier" transform="translate(670.000000, 2073.000000)">
		<circle id="Oval-Copy-4" fill="none" stroke="#8295A5" stroke-width="0.9" cx="50.5" cy="50.5" r="50.5"/>
		<g>
			<path fill-rule="evenodd" clip-rule="evenodd" fill="#F54282" d="M51.495,28c1.941,0.069,3.883,0.155,5.825,0.2
				c0.953,0.022,1.897,0.263,2.855,0.104c0.677,0.048,1.353,0.098,2.029,0.146c2.887,0.249,5.774,0.497,8.664,0.745
				c2.848,0.41,5.694,0.835,8.547,1.226c1.791,0.245,1.762,0.217,1.51,1.959c-0.559,3.872-1.224,7.73-1.566,11.63
				c-0.498,0.306-0.619-0.083-0.78-0.418c-0.486-1.019-1.005-2.024-1.46-3.058c-0.234-0.533-0.547-0.846-1.15-0.791
				c-1.133-0.433-2.338-0.413-3.515-0.564c-0.086-0.013-0.171-0.026-0.256-0.04c-0.238-0.037-0.477-0.074-0.713-0.11
				c-3.092-0.339-6.176-0.768-9.293-0.837c-0.164-0.015-0.328-0.03-0.491-0.045c-0.125-0.11-0.256-0.126-0.397-0.028
				c-0.443-0.021-0.888-0.042-1.331-0.062c-2.974-0.273-5.952-0.379-8.938-0.307c-4.559-0.142-9.107,0.138-13.652,0.417
				c-4.253,0.261-8.479,0.795-12.703,1.335c-0.577,0.074-0.931,0.314-1.212,0.815c-0.754,1.346-1.551,2.668-2.349,4.028
				c-0.478-0.391-0.389-0.872-0.45-1.289c-0.526-3.59-1.027-7.184-1.554-10.774c-0.232-1.584-0.249-1.577,1.293-1.818
				c9.969-1.559,19.994-2.437,30.089-2.411C50.831,28.054,51.163,28.018,51.495,28z"/>
			<path fill-rule="evenodd" clip-rule="evenodd" fill="#524D38" d="M72.198,39.139c0.085,0.014,0.17,0.027,0.256,0.04
				C72.368,39.166,72.283,39.153,72.198,39.139z"/>
			<path fill-rule="evenodd" clip-rule="evenodd" fill="#F54282" d="M61.962,49.135c0.065,0.032,0.13,0.082,0.199,0.093
				c2.104,0.33,2.114,0.33,1.968,2.525c-0.112,1.688-0.253,3.375-0.381,5.063c-0.026,0.761-0.052,1.521-0.078,2.28
				c-0.361,0.473-0.159,1.003-0.156,1.512c-0.154,0.523-0.571,0.522-0.985,0.459c-4.445-0.679-8.929-0.558-13.4-0.595
				c-3.854-0.03-7.707,0.146-11.551,0.436c-0.817,0.063-1.108-0.138-1.153-0.979c-0.168-3.219-0.381-6.437-0.628-9.651
				c-0.068-0.878,0.377-0.938,1.053-0.983c7.516-0.514,15.035-0.539,22.56-0.222C60.26,49.108,61.11,49.115,61.962,49.135z"/>
			<path fill-rule="evenodd" clip-rule="evenodd" fill="#F54282" d="M49.992,69.458c1.89,0,3.78,0.017,5.669-0.008
				c0.622-0.009,0.845,0.208,0.82,0.841c-0.112,2.888-0.196,5.778-0.274,8.669c-0.017,0.606-0.244,0.856-0.88,0.819
				c-3.517-0.208-7.038-0.214-10.557-0.007c-0.801,0.048-0.917-0.36-0.935-1c-0.081-2.816-0.159-5.632-0.293-8.445
				c-0.035-0.735,0.264-0.888,0.895-0.88c1.852,0.019,3.704,0.007,5.556,0.007C49.993,69.456,49.993,69.457,49.992,69.458z"/>
			<path fill-rule="evenodd" clip-rule="evenodd" fill="#524D38" d="M61.304,38.118c0.142-0.098,0.272-0.082,0.397,0.028
				C61.563,38.227,61.43,38.219,61.304,38.118z"/>
		</g>
	</g>
</g>
</svg>
