<?xml version="1.0" encoding="utf-8"?>
<!-- Generator: Adobe Illustrator 16.0.0, SVG Export Plug-In . SVG Version: 6.00 Build 0)  -->
<!DOCTYPE svg PUBLIC "-//W3C//DTD SVG 1.1//EN" "http://www.w3.org/Graphics/SVG/1.1/DTD/svg11.dtd">
<svg version="1.1" id="Layer_1" xmlns="http://www.w3.org/2000/svg" xmlns:xlink="http://www.w3.org/1999/xlink" x="0px" y="0px"
	 width="103px" height="103px" viewBox="0 0 103 103" enable-background="new 0 0 103 103" xml:space="preserve">
<title>bw-chain</title>
<desc>Created with Sketch.</desc>
<g id="Homepage" transform="translate(-859.000000, -1715.000000)">
	<g id="bw-chain" transform="translate(860.000000, 1716.000000)">
		<circle id="Oval-Copy-2" fill="none" stroke="#8295A5" stroke-width="0.9" cx="50.5" cy="50.5" r="50.5"/>
	</g>
</g>
<g>
	<path fill-rule="evenodd" clip-rule="evenodd" d="M22.76,35.542c0.316-0.143,0.647-0.261,0.946-0.434
		c6.262-3.613,12.524-7.225,18.77-10.865c0.572-0.334,0.983-0.341,1.562-0.005c6.305,3.665,12.624,7.308,18.953,10.932
		c0.602,0.345,0.84,0.721,0.838,1.432c-0.028,7.269-0.027,14.538-0.001,21.807c0.003,0.705-0.217,1.097-0.829,1.437
		c-2.305,1.275-4.573,2.616-6.872,3.903c-0.263,0.146-0.709,0.255-0.932,0.132c-1.879-1.041-3.727-2.142-5.687-3.284
		c0.298-0.205,0.507-0.37,0.734-0.503c2.224-1.289,4.439-2.592,6.684-3.846c0.541-0.302,0.768-0.622,0.765-1.268
		c-0.03-4.986-0.028-9.972-0.002-14.957c0.004-0.632-0.196-0.968-0.747-1.281c-4.357-2.477-8.699-4.982-13.03-7.504
		c-0.477-0.277-0.818-0.286-1.3-0.005c-4.332,2.522-8.672,5.028-13.031,7.503c-0.564,0.32-0.723,0.682-0.72,1.296
		c0.022,4.986,0.024,9.971-0.003,14.956c-0.003,0.642,0.22,0.97,0.763,1.275c2.465,1.383,4.903,2.813,7.469,4.296
		c-0.286,0.197-0.494,0.359-0.721,0.492c-1.557,0.901-3.13,1.775-4.669,2.706c-0.482,0.293-0.836,0.259-1.303-0.015
		c-2.246-1.315-4.511-2.597-6.773-3.883c-0.273-0.154-0.575-0.257-0.863-0.384C22.76,51.5,22.76,43.521,22.76,35.542z"/>
	<path fill-rule="evenodd" clip-rule="evenodd" d="M54.609,44.455c-2.609,1.516-5.041,2.956-7.504,4.337
		c-0.585,0.328-0.791,0.687-0.788,1.352c0.028,4.954,0.025,9.907,0.002,14.86c-0.002,0.614,0.151,0.978,0.717,1.299
		c4.358,2.475,8.701,4.979,13.03,7.505c0.52,0.304,0.88,0.28,1.385-0.015c4.3-2.512,8.609-5.007,12.938-7.471
		c0.563-0.321,0.721-0.68,0.717-1.295c-0.023-4.984-0.026-9.97,0.004-14.956c0.002-0.639-0.209-0.969-0.756-1.276
		c-2.464-1.382-4.9-2.815-7.462-4.296c2.001-1.166,3.904-2.286,5.826-3.371c0.167-0.095,0.5-0.036,0.688,0.07
		c2.461,1.393,4.916,2.795,7.35,4.234c0.24,0.142,0.469,0.536,0.47,0.813c0.026,7.526,0.026,15.052-0.002,22.578
		c-0.002,0.298-0.268,0.718-0.531,0.871c-6.44,3.753-12.892,7.486-19.361,11.188c-0.304,0.173-0.882,0.167-1.188-0.007
		c-6.444-3.681-12.873-7.391-19.282-11.133c-0.326-0.19-0.636-0.729-0.638-1.107c-0.037-7.397-0.036-14.795-0.003-22.193
		c0.002-0.358,0.272-0.868,0.574-1.048c2.372-1.416,4.777-2.777,7.187-4.128c0.236-0.132,0.645-0.22,0.85-0.106
		C50.712,42.195,52.565,43.279,54.609,44.455z"/>
</g>
</svg>
