<?xml version="1.0" encoding="UTF-8"?>
<svg width="27px" height="31px" viewBox="0 0 27 31" version="1.1" xmlns="http://www.w3.org/2000/svg" xmlns:xlink="http://www.w3.org/1999/xlink">
    <!-- Generator: Sketch 48.2 (47327) - http://www.bohemiancoding.com/sketch -->
    <title>discord</title>
    <desc>Created with Sketch.</desc>
    <defs>
        <polygon id="path-1" points="0.00015 0.0869215686 26.7 0.0869215686 26.7 30.9999088 0.00015 30.9999088"></polygon>
    </defs>
    <g id="Homepage" stroke="none" stroke-width="1" fill="none" fill-rule="evenodd" transform="translate(-453.000000, -3753.000000)">
        <g id="Group-29" transform="translate(213.000000, 3524.000000)">
            <g id="Group-11" transform="translate(163.000000, 228.000000)">
                <g id="discord" transform="translate(77.000000, 1.000000)">
                    <mask id="mask-2" fill="white">
                        <use xlink:href="#path-1"></use>
                    </mask>
                    <g id="Clip-4"></g>
                    <path d="M17.68305,20.2729971 C17.68305,20.2729971 17.13375,19.6083206 16.67625,19.0211441 C18.67485,18.4491637 19.43775,17.1818108 19.43775,17.1818108 C18.81225,17.5990951 18.21705,17.8929873 17.68305,18.0938794 C16.92015,18.4181637 16.18785,18.6345559 15.47085,18.7585559 C14.00595,19.0366441 12.66345,18.959448 11.51925,18.7430559 C10.64955,18.5728598 9.90195,18.3257716 9.27645,18.0780755 C8.92545,17.9391833 8.54385,17.7692912 8.16255,17.552899 C8.11665,17.521899 8.07105,17.506399 8.02545,17.475399 C7.99485,17.459899 7.97955,17.444399 7.96425,17.4292029 C7.68945,17.2745069 7.53705,17.1663108 7.53705,17.1663108 C7.53705,17.1663108 8.26935,18.4029676 10.20705,18.9901441 C9.74955,19.5776245 9.18495,20.2729971 9.18495,20.2729971 C5.81295,20.1651049 4.53135,17.9239873 4.53135,17.9239873 C4.53135,12.9469676 6.72825,8.91240882 6.72825,8.91240882 C8.92545,7.24327157 11.01555,7.28946765 11.01555,7.28946765 L11.16825,7.47516373 C8.42205,8.27873235 7.15545,9.49988922 7.15545,9.49988922 C7.15545,9.49988922 7.49115,9.31419314 8.05575,9.0516049 C9.68835,8.32492843 10.98525,8.12403627 11.51925,8.0778402 C11.61075,8.0623402 11.68695,8.0468402 11.77845,8.0468402 C12.70935,7.92314412 13.76205,7.89244804 14.86065,8.01614412 C16.30995,8.18603627 17.86605,8.61882059 19.45275,9.49988922 C19.45275,9.49988922 18.24765,8.34073235 15.65385,7.5368598 L15.86745,7.28946765 C15.86745,7.28946765 17.95755,7.24327157 20.15475,8.91240882 C20.15475,8.91240882 22.35195,12.9469676 22.35195,17.9239873 C22.35195,17.9239873 21.05475,20.1651049 17.68305,20.2729971 M23.57235,0.0868303922 L3.12765,0.0868303922 C1.40355,0.0868303922 0.00015,1.50887941 0.00015,3.27101667 L0.00015,24.1680559 C0.00015,25.9301931 1.40355,27.3522422 3.12765,27.3522422 L20.42925,27.3522422 L19.62075,24.492948 L21.57375,26.3322814 L23.41965,28.0634186 L26.70015,30.9999088 L26.70015,3.27101667 C26.70015,1.50887941 25.29645,0.0868303922 23.57235,0.0868303922" id="Fill-3" fill="#374D61" mask="url(#mask-2)"></path>
                </g>
            </g>
        </g>
    </g>
</svg>