<?xml version="1.0" encoding="UTF-8"?>
<svg width="24px" height="28px" viewBox="0 0 24 28" version="1.1" xmlns="http://www.w3.org/2000/svg" xmlns:xlink="http://www.w3.org/1999/xlink">
    <!-- Generator: Sketch 48.2 (47327) - http://www.bohemiancoding.com/sketch -->
    <title>File Outlined - FontAwesome</title>
    <desc>Created with Sketch.</desc>
    <defs></defs>
    <g id="Homepage" stroke="none" stroke-width="1" fill="none" fill-rule="evenodd" transform="translate(-353.000000, -2953.000000)">
        <path d="M375.9375,2958.9375 C376.229168,2959.22917 376.479166,2959.625 376.6875,2960.125 C376.895834,2960.625 377,2961.08333 377,2961.5 L377,2979.5 C377,2979.91667 376.854168,2980.27083 376.5625,2980.5625 C376.270832,2980.85417 375.916669,2981 375.5,2981 L354.5,2981 C354.083331,2981 353.729168,2980.85417 353.4375,2980.5625 C353.145832,2980.27083 353,2979.91667 353,2979.5 L353,2954.5 C353,2954.08333 353.145832,2953.72917 353.4375,2953.4375 C353.729168,2953.14583 354.083331,2953 354.5,2953 L368.5,2953 C368.916669,2953 369.374998,2953.10417 369.875,2953.3125 C370.375003,2953.52083 370.770832,2953.77083 371.0625,2954.0625 L375.9375,2958.9375 Z M369,2955.125 L369,2961 L374.875,2961 C374.770833,2960.69792 374.656251,2960.48438 374.53125,2960.35938 L369.640625,2955.46875 C369.515624,2955.34375 369.302085,2955.22917 369,2955.125 Z M375,2979 L375,2963 L368.5,2963 C368.083331,2963 367.729168,2962.85417 367.4375,2962.5625 C367.145832,2962.27083 367,2961.91667 367,2961.5 L367,2955 L355,2955 L355,2979 L375,2979 Z" id="File-Outlined---FontAwesome" fill="#374D61"></path>
    </g>
</svg>