<?xml version="1.0" encoding="UTF-8"?>
<svg width="36px" height="24px" viewBox="0 0 36 24" version="1.1" xmlns="http://www.w3.org/2000/svg" xmlns:xlink="http://www.w3.org/1999/xlink">
    <!-- Generator: Sketch 48.2 (47327) - http://www.bohemiancoding.com/sketch -->
    <title>graduation-cap - FontAwesome</title>
    <desc>Created with Sketch.</desc>
    <defs></defs>
    <g id="Homepage" stroke="none" stroke-width="1" fill="none" fill-rule="evenodd" transform="translate(-348.000000, -2899.000000)">
        <g id="Group-26" transform="translate(340.000000, 2893.000000)" fill="#374D61">
            <path d="M35.4487847,17.421875 L35.7222222,22.2222222 C35.7627317,22.9210104 35.3475159,23.5691521 34.4765625,24.1666667 C33.6056091,24.7641812 32.4156615,25.2376285 30.906684,25.5870226 C29.3977066,25.9364167 27.7621616,26.1111111 26,26.1111111 C24.2378384,26.1111111 22.6022934,25.9364167 21.093316,25.5870226 C19.5843385,25.2376285 18.3943909,24.7641812 17.5234375,24.1666667 C16.6524841,23.5691521 16.2372683,22.9210104 16.2777778,22.2222222 L16.5512153,17.421875 L25.2708333,20.171441 C25.4936354,20.2423325 25.7366885,20.2777778 26,20.2777778 C26.2633115,20.2777778 26.5063646,20.2423325 26.7291667,20.171441 L35.4487847,17.421875 Z M43.1657986,12.0290799 C43.3886007,12.1100988 43.5,12.2670706 43.5,12.5 C43.5,12.7329294 43.3886007,12.8899012 43.1657986,12.9709201 L26.1519097,18.3181424 C26.1114003,18.3282697 26.0607642,18.3333333 26,18.3333333 C25.9392358,18.3333333 25.8885997,18.3282697 25.8480903,18.3181424 L15.9435764,15.1888021 C15.5080997,15.5331325 15.1485836,16.0977247 14.8650174,16.8825955 C14.5814511,17.6674663 14.4092885,18.5713201 14.3485243,19.594184 C14.9865483,19.9587692 15.3055556,20.5107023 15.3055556,21.25 C15.3055556,21.9487882 15.0118664,22.4905941 14.4244792,22.875434 L15.3055556,29.453125 C15.3258103,29.5949081 15.2853014,29.7214983 15.1840278,29.8328993 C15.0928815,29.9443003 14.9713549,30 14.8194444,30 L11.9027778,30 C11.7508673,30 11.6293407,29.9443003 11.5381944,29.8328993 C11.4369208,29.7214983 11.3964119,29.5949081 11.4166667,29.453125 L12.2977431,22.875434 C11.7103559,22.4905941 11.4166667,21.9487882 11.4166667,21.25 C11.4166667,20.5107023 11.7458011,19.948642 12.4040799,19.5638021 C12.5154809,17.4674374 13.0117143,15.7964472 13.8927951,14.5507812 L8.83420139,12.9709201 C8.61139935,12.8899012 8.5,12.7329294 8.5,12.5 C8.5,12.2670706 8.61139935,12.1100988 8.83420139,12.0290799 L25.8480903,6.68185764 C25.8885997,6.67173027 25.9392358,6.66666667 26,6.66666667 C26.0607642,6.66666667 26.1114003,6.67173027 26.1519097,6.68185764 L43.1657986,12.0290799 Z" id="graduation-cap---FontAwesome"></path>
        </g>
    </g>
</svg>