<?xml version="1.0" encoding="utf-8"?>
<!-- Generator: Adobe Illustrator 16.0.0, SVG Export Plug-In . SVG Version: 6.00 Build 0)  -->
<!DOCTYPE svg PUBLIC "-//W3C//DTD SVG 1.1//EN" "http://www.w3.org/Graphics/SVG/1.1/DTD/svg11.dtd">
<svg version="1.1" id="Layer_1" xmlns="http://www.w3.org/2000/svg" xmlns:xlink="http://www.w3.org/1999/xlink" x="0px" y="0px"
	 width="103px" height="103px" viewBox="0 0 103 103" enable-background="new 0 0 103 103" xml:space="preserve">
<title>bw-ipfs</title>
<desc>Created with Sketch.</desc>
<g id="Homepage" transform="translate(-669.000000, -1715.000000)">
	<g id="bw-ipfs" transform="translate(670.000000, 1716.000000)">
		<circle id="Oval-Copy" fill="none" stroke="#8295A5" stroke-width="0.9" cx="50.5" cy="50.5" r="50.5"/>
	</g>
</g>
<g>
	<path fill-rule="evenodd" clip-rule="evenodd" fill="#4A9EA1" d="M26.34,62.822c-0.248-0.208-0.542-0.342-0.819-0.502
		c-2.52-1.46-5.042-2.916-7.567-4.367c-0.125-0.071-0.16-0.149-0.16-0.288c0.004-3.189,0.004-6.378,0-9.566
		c0-0.139,0.036-0.216,0.161-0.288c2.754-1.585,5.505-3.175,8.256-4.764c0.047-0.028,0.114-0.037,0.129-0.105
		c0.052,0,0.104,0,0.155,0c0.082,0.116,0.216,0.156,0.331,0.222c2.677,1.548,5.356,3.095,8.038,4.637
		c0.136,0.078,0.179,0.164,0.178,0.318c-0.005,3.175-0.005,6.352,0,9.527c0,0.152-0.041,0.239-0.177,0.318
		c-2.743,1.577-5.482,3.16-8.222,4.743c-0.053,0.032-0.125,0.044-0.147,0.115C26.443,62.822,26.392,62.822,26.34,62.822z
		 M34.454,52.892c0-1.126-0.008-2.252,0.008-3.378c0.003-0.208-0.11-0.281-0.24-0.369c-0.119-0.081-0.205,0.026-0.3,0.068
		c-0.053,0.023-0.099,0.06-0.149,0.089c-0.935,0.537-1.872,1.072-2.806,1.61c-0.969,0.557-1.935,1.117-2.905,1.67
		c-0.146,0.083-0.217,0.178-0.208,0.353c0.027,0.537-0.233,0.934-0.672,1.204c-0.173,0.107-0.219,0.229-0.219,0.408
		c0.002,2.245,0.002,4.492-0.001,6.737c0,0.155,0.051,0.253,0.182,0.331c0.132,0.08,0.222-0.002,0.319-0.058
		c0.806-0.464,1.61-0.93,2.416-1.395c1.168-0.677,2.335-1.353,3.508-2.02c0.161-0.092,0.215-0.203,0.214-0.371
		c-0.008-0.521,0.236-0.903,0.672-1.161c0.137-0.081,0.186-0.166,0.185-0.321C34.451,55.156,34.454,54.023,34.454,52.892z
		 M25.871,57.911c0-1.133-0.002-2.266,0.002-3.398c0-0.164-0.045-0.266-0.198-0.358c-0.455-0.277-0.722-0.679-0.695-1.231
		c0.008-0.167-0.06-0.259-0.2-0.339c-0.814-0.461-1.626-0.928-2.437-1.396c-1.141-0.657-2.28-1.319-3.421-1.976
		c-0.238-0.137-0.542,0.044-0.542,0.317c-0.001,2.272,0,4.543-0.002,6.815c0,0.104,0.018,0.174,0.122,0.233
		c0.479,0.273,0.753,0.673,0.739,1.244c-0.002,0.108,0.021,0.212,0.138,0.278c0.925,0.529,1.847,1.063,2.769,1.596
		c1.075,0.62,2.148,1.239,3.222,1.858c0.104,0.059,0.198,0.14,0.336,0.053c0.134-0.082,0.17-0.189,0.17-0.338
		C25.869,60.15,25.871,59.03,25.871,57.911z M19.316,47.916c-0.049,0.168,0.05,0.251,0.188,0.327
		c0.378,0.208,0.753,0.425,1.128,0.641c1.57,0.907,3.143,1.813,4.709,2.727c0.153,0.09,0.267,0.095,0.42,0.01
		c0.404-0.223,0.832-0.25,1.241-0.031c0.216,0.117,0.389,0.124,0.575-0.027c0.02-0.017,0.043-0.028,0.065-0.041
		c0.956-0.553,1.911-1.105,2.867-1.658c0.995-0.574,1.991-1.147,2.985-1.724c0.208-0.121,0.206-0.333-0.006-0.457
		c-0.277-0.165-0.561-0.32-0.84-0.481c-0.899-0.519-1.799-1.04-2.7-1.56c-0.85-0.491-1.7-0.98-2.549-1.473
		c-0.112-0.064-0.207-0.07-0.325-0.007c-0.458,0.244-0.927,0.248-1.394,0.021c-0.104-0.051-0.196-0.047-0.293,0.012
		c-0.082,0.051-0.168,0.097-0.251,0.146c-1.883,1.089-3.766,2.18-5.651,3.265C19.357,47.68,19.282,47.759,19.316,47.916z"/>
	<path fill-rule="evenodd" clip-rule="evenodd" fill="#020202" d="M78.452,43.875c1.815,0.016,3.453,0.274,4.99,1.041
		c0.281,0.14,0.351,0.271,0.217,0.561c-0.149,0.328-0.254,0.677-0.364,1.021c-0.061,0.185-0.112,0.24-0.326,0.142
		c-1.834-0.84-3.753-1.155-5.76-0.9c-0.428,0.055-0.844,0.159-1.243,0.326c-1.262,0.532-1.873,1.731-1.567,3.071
		c0.132,0.576,0.475,0.989,0.962,1.301c0.621,0.4,1.328,0.558,2.03,0.739c1.367,0.354,2.774,0.569,4.095,1.089
		c1.161,0.459,2.199,1.119,2.604,2.365c0.621,1.909,0.518,3.77-0.794,5.396c-0.78,0.965-1.877,1.452-3.08,1.644
		c-2.64,0.419-5.186,0.085-7.623-1.038c-0.298-0.138-0.403-0.276-0.244-0.603c0.158-0.323,0.261-0.675,0.369-1.02
		c0.063-0.202,0.128-0.266,0.351-0.158c1.692,0.806,3.484,1.183,5.354,1.213c0.5,0.008,0.997-0.023,1.485-0.133
		c1.548-0.347,2.359-1.364,2.438-3.038c0.07-1.485-0.478-2.356-1.877-2.867c-1.311-0.476-2.687-0.722-4.032-1.072
		c-0.892-0.233-1.763-0.504-2.531-1.03c-1.067-0.73-1.613-1.751-1.662-3.035c-0.095-2.542,1.289-4.22,3.935-4.772
		c0.397-0.083,0.802-0.146,1.207-0.188C77.778,43.89,78.176,43.889,78.452,43.875z"/>
	<path fill-rule="evenodd" clip-rule="evenodd" fill="#020202" d="M47.259,52.898c0-2.788,0.001-5.576-0.001-8.364
		c0-0.191-0.023-0.337,0.266-0.334c1.949,0.02,3.898,0.008,5.847,0.033c1.075,0.013,2.11,0.24,3.079,0.731
		c1.157,0.587,1.869,1.515,2.123,2.783c0.225,1.122,0.156,2.239-0.183,3.325c-0.538,1.73-1.833,2.59-3.525,2.971
		c-1.341,0.301-2.698,0.308-4.059,0.237c-0.396-0.021-0.794-0.039-1.185-0.095c-0.269-0.039-0.316,0.044-0.314,0.296
		c0.01,2.233-0.001,4.466,0.014,6.698c0.002,0.321-0.062,0.437-0.4,0.407c-0.406-0.033-0.817-0.029-1.223,0
		c-0.34,0.024-0.45-0.06-0.448-0.429C47.268,58.406,47.259,55.652,47.259,52.898z M49.312,49.277c0,0.996,0.006,1.993-0.005,2.99
		c-0.002,0.208,0.054,0.269,0.265,0.267c1.064-0.007,2.129,0.008,3.194,0.002c0.511-0.004,1.013-0.089,1.512-0.204
		c1.158-0.269,1.953-0.923,2.212-2.12c0.138-0.634,0.151-1.28,0.047-1.924c-0.128-0.794-0.56-1.367-1.271-1.736
		c-0.646-0.336-1.342-0.473-2.063-0.48c-1.211-0.012-2.423-0.001-3.635-0.014c-0.211-0.002-0.263,0.057-0.261,0.265
		C49.318,47.307,49.312,48.292,49.312,49.277z"/>
	<path fill-rule="evenodd" clip-rule="evenodd" fill="#040404" d="M61.041,52.981c0-2.742,0.004-5.483-0.006-8.224
		c-0.001-0.271,0.054-0.364,0.347-0.362c2.956,0.012,5.912,0.01,8.869,0.001c0.257,0,0.366,0.041,0.329,0.331
		c-0.047,0.37-0.063,0.747-0.052,1.119c0.01,0.293-0.104,0.346-0.372,0.345c-2.243-0.011-4.486,0-6.729-0.014
		c-0.318-0.002-0.385,0.09-0.382,0.392c0.015,1.745,0.021,3.489-0.003,5.233c-0.006,0.364,0.108,0.413,0.431,0.411
		c2.118-0.015,4.236-0.001,6.354-0.015c0.276-0.001,0.346,0.079,0.33,0.34c-0.021,0.361-0.021,0.726,0,1.087
		c0.016,0.248-0.081,0.292-0.307,0.292c-2.152-0.009-4.305,0.001-6.457-0.012c-0.288-0.003-0.35,0.081-0.349,0.356
		c0.012,2.333,0.004,4.667,0.012,7.001c0.002,0.24-0.036,0.34-0.307,0.325c-0.463-0.026-0.929-0.022-1.394-0.002
		c-0.249,0.012-0.327-0.05-0.323-0.313c0.015-1.179,0.007-2.356,0.007-3.534C61.041,56.152,61.041,54.567,61.041,52.981z"/>
	<path fill-rule="evenodd" clip-rule="evenodd" fill="#020202" d="M41.418,52.989c0-2.752,0.004-5.504-0.005-8.256
		c-0.001-0.263,0.06-0.352,0.332-0.337c0.44,0.023,0.883,0.023,1.324,0c0.278-0.015,0.365,0.06,0.361,0.349
		c-0.017,1.144-0.006,2.287-0.006,3.431c0,4.349-0.004,8.696,0.007,13.045c0.001,0.305-0.075,0.386-0.372,0.367
		c-0.417-0.028-0.838-0.026-1.256-0.002c-0.296,0.019-0.395-0.053-0.393-0.376C41.425,58.47,41.418,55.729,41.418,52.989z"/>
	<path fill-rule="evenodd" clip-rule="evenodd" fill="#63D2D6" d="M34.454,52.892c0,1.132-0.003,2.265,0.003,3.397
		c0.001,0.155-0.048,0.24-0.185,0.321c-0.436,0.258-0.68,0.64-0.672,1.161c0.001,0.168-0.053,0.279-0.214,0.371
		c-1.173,0.667-2.34,1.343-3.508,2.02c-0.805,0.465-1.609,0.931-2.416,1.395c-0.097,0.056-0.187,0.138-0.319,0.058
		c-0.131-0.078-0.182-0.176-0.182-0.331c0.004-2.245,0.003-4.492,0.001-6.737c0-0.179,0.046-0.301,0.219-0.408
		c0.439-0.271,0.699-0.667,0.672-1.204c-0.009-0.175,0.062-0.27,0.208-0.353c0.97-0.553,1.937-1.113,2.905-1.67
		c0.934-0.538,1.871-1.073,2.806-1.61c0.05-0.029,0.096-0.066,0.149-0.089c0.095-0.042,0.181-0.149,0.3-0.068
		c0.13,0.088,0.243,0.161,0.24,0.369C34.446,50.639,34.454,51.765,34.454,52.892z"/>
	<path fill-rule="evenodd" clip-rule="evenodd" fill="#63D2D6" d="M25.871,57.911c0,1.119-0.002,2.239,0.003,3.358
		c0,0.148-0.036,0.256-0.17,0.338c-0.138,0.087-0.233,0.006-0.336-0.053c-1.074-0.619-2.147-1.238-3.222-1.858
		c-0.922-0.532-1.844-1.066-2.769-1.596c-0.117-0.066-0.14-0.17-0.138-0.278c0.014-0.571-0.26-0.971-0.739-1.244
		c-0.104-0.06-0.122-0.129-0.122-0.233c0.002-2.271,0.001-4.543,0.002-6.815c0-0.273,0.304-0.455,0.542-0.317
		c1.142,0.657,2.28,1.318,3.421,1.976c0.811,0.468,1.623,0.935,2.437,1.396c0.141,0.08,0.208,0.172,0.2,0.339
		c-0.027,0.553,0.241,0.954,0.695,1.231c0.152,0.093,0.198,0.194,0.198,0.358C25.869,55.646,25.871,56.778,25.871,57.911z"/>
	<path fill-rule="evenodd" clip-rule="evenodd" fill="#63D2D6" d="M19.316,47.916c-0.034-0.157,0.041-0.236,0.17-0.311
		c1.885-1.085,3.768-2.176,5.651-3.265c0.083-0.048,0.169-0.095,0.251-0.146c0.097-0.059,0.188-0.063,0.293-0.012
		c0.467,0.228,0.935,0.223,1.394-0.021c0.118-0.063,0.212-0.058,0.325,0.007c0.849,0.493,1.699,0.982,2.549,1.473
		c0.9,0.52,1.8,1.041,2.7,1.56c0.28,0.161,0.563,0.317,0.84,0.481c0.212,0.124,0.215,0.335,0.006,0.457
		c-0.994,0.577-1.99,1.15-2.985,1.724c-0.956,0.553-1.912,1.105-2.867,1.658c-0.022,0.013-0.045,0.024-0.065,0.041
		c-0.186,0.15-0.359,0.144-0.575,0.027c-0.409-0.219-0.837-0.192-1.241,0.031c-0.153,0.084-0.267,0.08-0.42-0.01
		c-1.566-0.914-3.139-1.819-4.709-2.727c-0.375-0.216-0.75-0.433-1.128-0.641C19.366,48.167,19.268,48.084,19.316,47.916z"/>
</g>
</svg>
