<?xml version="1.0" encoding="UTF-8"?>
<svg width="100px" height="130px" viewBox="0 0 100 130" version="1.1" xmlns="http://www.w3.org/2000/svg" xmlns:xlink="http://www.w3.org/1999/xlink">
    <!-- Generator: Sketch 48.2 (47327) - http://www.bohemiancoding.com/sketch -->
    <title>logo-academy</title>
    <desc>Created with Sketch.</desc>
    <defs>
        <polygon id="path-1" points="0 0.387260112 7.61265033 0.387260112 7.61265033 8.40816939 0 8.40816939"></polygon>
        <polygon id="path-3" points="0.337739052 0.387098596 7.95033113 0.387098596 7.95033113 8.43169957 0.337739052 8.43169957"></polygon>
    </defs>
    <g id="Academy" stroke="none" stroke-width="1" fill="none" fill-rule="evenodd" transform="translate(-671.000000, -133.000000)">
        <g id="logo-academy" transform="translate(671.000000, 133.000000)">
            <g id="Page-1">
                <path d="M10.062649,101.094964 L7.03682119,101.094964 L7.03682119,106.115219 L10.573245,106.115219 C11.5083444,106.280372 12.4507285,105.870474 12.970596,105.074556 C13.4301987,104.273332 13.4301987,103.288383 12.970596,102.487821 C12.5242384,101.558587 11.5553642,101.094964 10.062649,101.094964 M9.6984106,94.8662398 L6.98980132,94.8662398 L6.98980132,99.1051684 L9.63880795,99.1051684 C11.0606623,98.8750153 11.76,98.134148 11.7381457,96.8825663 C11.7162914,95.631648 11.0368212,94.9597602 9.6984106,94.8662398 M4.66596026,107.767413 L4.66596026,93.6929235 C4.66596026,92.9938418 4.96331126,92.6449643 5.55933775,92.6449643 L9.78450331,92.6449643 C10.7924503,92.6582296 11.7792053,92.9301684 12.652053,93.4335867 C13.5288742,94.0477704 14.0765563,95.0300663 14.1354967,96.1005765 C14.346755,97.3999133 13.7699338,98.7019031 12.6659603,99.4169031 C14.2056954,99.7936378 15.3666225,101.063791 15.6056954,102.633077 C15.9030464,104.104862 15.5931126,105.634352 14.7447682,106.872005 C13.8970861,108.083128 12.5242384,108.68073 10.6262252,108.662158 L5.5394702,108.662158 C5.11562914,108.723179 4.72291391,108.428689 4.66331126,108.004199 C4.65139073,107.925934 4.65271523,107.845679 4.66596026,107.767413" id="Fill-1" fill="#374D61"></path>
                <path d="M20.2550993,104.411291 C20.325298,105.520934 20.7802649,106.184199 21.6193377,106.401087 C22.3431788,106.842821 22.5219868,107.386699 22.1550993,108.032719 C21.7888742,108.678077 21.1709934,108.83726 20.3007947,108.51027 C18.830596,108.024097 17.8564238,106.624607 17.9107285,105.074556 L17.9107285,93.7121582 C17.8531126,92.9434337 18.2610596,92.5653724 19.135894,92.5779745 C20.0100662,92.5919031 20.3895364,92.9699643 20.2743046,93.7121582 L20.2550993,104.411291 Z" id="Fill-3" fill="#374D61"></path>
                <path d="M26.692053,100.239286 C25.989404,101.031888 25.6317881,102.073214 25.6986755,103.130459 C25.6284768,104.163827 26.0019868,105.177296 26.7251656,105.916837 C27.3364238,106.511122 28.1582781,106.837449 29.0099338,106.82551 C29.8576159,106.811582 30.6715232,106.485918 31.294702,105.910204 C32.0245033,105.160714 32.3860927,104.12602 32.2807947,103.084694 C32.3443709,102.002245 31.9642384,100.94102 31.2284768,100.145765 C30.6350993,99.5183163 29.8066225,99.167449 28.9430464,99.177398 C28.0827815,99.212551 27.2728477,99.5959184 26.6986755,100.239286 L26.692053,100.239286 Z M29.2741722,97.1610714 C30.0907285,97.187602 30.889404,97.3991837 31.6125828,97.7785714 C32.4198675,98.2203061 33.1033113,98.8590306 33.5993377,99.6357143 C34.2490066,100.731429 34.5509934,101.998265 34.4668874,103.269745 C34.5331126,104.590969 34.1317881,105.891633 33.3344371,106.944235 C32.7682119,107.690408 32.0172185,108.276071 31.1556291,108.642857 C30.4854305,108.889592 29.7768212,109.018929 29.0629139,109.027551 C28.313245,109.014286 27.5695364,108.889592 26.8576159,108.655459 C25.9543046,108.335765 25.1688742,107.748112 24.6059603,106.970765 C23.8529801,105.91551 23.4715232,104.639388 23.5198675,103.343367 C23.4231788,101.994286 23.7801325,100.651837 24.5331126,99.5295918 C25.0940397,98.6772959 25.886755,98.0027551 26.8172185,97.5862245 C27.6,97.2811224 28.4357616,97.1365306 29.2741722,97.1610714 Z" id="Fill-5" fill="#374D61"></path>
                <path d="M44.4007947,98.9257551 C44.9259603,99.6374388 44.9570861,100.219122 44.4935099,100.670143 C44.101457,101.105245 43.4312583,101.140398 42.9968212,100.748408 C42.9875497,100.739786 42.9789404,100.731827 42.9703311,100.723204 C42.4166887,100.002898 41.5663576,99.573102 40.6590728,99.5558571 C39.8339073,99.5744286 39.0610596,99.9584592 38.5458278,100.603816 C37.9339073,101.405704 37.6564238,102.413867 37.7709934,103.416724 C37.7325828,104.416265 38.1849007,105.373357 38.9829139,105.976265 C39.6630464,106.471724 40.5100662,106.678663 41.3411921,106.553306 C42.022649,106.509531 42.6438411,106.145398 43.0160265,105.572337 C43.409404,104.95749 43.8703311,104.791673 44.4007947,105.074888 C44.92,105.336214 45.1299338,105.969633 44.8683444,106.490296 C44.8584106,106.509531 44.8484768,106.528102 44.8372185,106.546673 C44.3782781,107.32999 43.6822517,107.948153 42.8504636,108.310959 C41.8060927,108.756673 40.6491391,108.866112 39.5392053,108.622694 C38.3299338,108.466827 37.2339073,107.828102 36.4994702,106.851776 C35.7676821,105.778612 35.4047682,104.495194 35.4670199,103.197184 C35.4491391,101.792388 35.8908609,100.420755 36.7246358,99.290551 C37.6107285,98.140449 38.9776159,97.4652449 40.4272848,97.4599388 C41.9074172,97.2974388 43.3789404,97.8399898 44.4007947,98.9257551" id="Fill-7" fill="#374D61"></path>
                <path d="M55.7845033,108.489974 C55.1315232,108.932372 54.6348344,108.890587 54.2944371,108.364617 L50.7116556,103.495587 L49.3871523,104.775689 L49.3871523,107.912934 C49.3871523,108.509872 48.9745695,108.808342 48.1487417,108.808342 C47.3235762,108.808342 46.9169536,108.509872 46.9301987,107.912934 L46.9301987,93.5001786 C46.9480795,92.8150255 47.352053,92.4727806 48.1421192,92.4727806 C48.9321854,92.4727806 49.3275497,92.8150255 49.3275497,93.5001786 L49.3275497,101.724668 L53.6725828,97.8114031 C53.9792053,97.3922194 54.567947,97.301352 54.9864901,97.6091071 C55.0639735,97.666148 55.1321854,97.733801 55.1891391,97.8114031 C55.6692715,98.1516582 55.7838411,98.8182398 55.4434437,99.3004337 C55.4182781,99.33625 55.3904636,99.3707398 55.3606623,99.4032398 L52.4798675,101.87125 L56.1295364,106.97773 C56.5527152,107.530893 56.4381457,108.034311 55.7845033,108.489974" id="Fill-9" fill="#374D61"></path>
                <path d="M60.2948344,104.411291 C60.3650331,105.520934 60.82,106.184199 61.6590728,106.401087 C62.3829139,106.842821 62.5617219,107.386699 62.1954967,108.032719 C61.8286093,108.678077 61.2107285,108.83726 60.3405298,108.51027 C58.8829139,108.012821 57.9246358,106.615321 57.9835762,105.074556 L57.9835762,93.7121582 C57.9127152,92.9434337 58.314702,92.5653724 59.1888742,92.5779745 C60.0623841,92.5919031 60.4425166,92.9699643 60.327947,93.7121582 L60.2948344,104.411291 Z" id="Fill-11" fill="#A4CF25"></path>
                <path d="M65.5398013,97.3737806 C64.7358278,97.3737806 64.3404636,97.6258214 64.3543709,98.1299031 L64.3543709,107.939597 C64.3278808,108.510005 64.7338411,108.790566 65.5729139,108.781944 C66.4113245,108.773321 66.7894702,108.49276 66.7053642,107.939597 L66.7053642,98.1365357 C66.7364901,97.6238316 66.3497351,97.3691378 65.5464238,97.3737806 L65.5398013,97.3737806 Z M64.1027152,94.09725 C64.104702,93.7079133 64.2616556,93.3351582 64.5391391,93.0625561 C64.8066887,92.7620969 65.191457,92.5929643 65.5927815,92.5982704 C65.9623179,92.5909745 66.3166225,92.7435255 66.5662914,93.0161276 C66.8199338,93.3165867 66.9457616,93.7045969 66.9172848,94.09725 C66.9311921,94.5011786 66.7801987,94.8944949 66.5000662,95.1850051 C66.2437748,95.4609235 65.8828477,95.6161276 65.5066887,95.6094949 C65.123245,95.5988827 64.7629801,95.4224541 64.5199338,95.1253112 C64.2570199,94.8467398 64.1086755,94.4799541 64.1027152,94.09725 Z" id="Fill-13" fill="#A4CF25"></path>
                <path d="M71.7186755,98.2624898 L71.7186755,98.9257551 C72.7425166,98.0867245 73.9776159,97.5474898 75.2882119,97.3670816 C76.5464901,97.2125408 77.4292715,97.7895816 77.9372185,99.0982041 C78.6584106,98.4077449 79.5219868,97.8824388 80.4670199,97.5594286 C81.3352318,97.3014184 82.2617219,97.3246327 83.1160265,97.6257551 C84.038543,97.9262143 84.4643709,98.8945816 84.3941722,100.530857 L84.3941722,107.959429 C84.2796026,108.472796 83.8769536,108.728816 83.1882119,108.728816 C82.4994702,108.728816 82.1272848,108.466163 82.0696689,107.939531 L82.0696689,100.802796 C82.0431788,99.0338673 80.7186755,98.8773367 78.0961589,100.331878 L78.0961589,108.025755 C78.0961589,108.494684 77.6941722,108.728816 76.8908609,108.728816 C76.0875497,108.728816 75.6921854,108.478765 75.7054305,107.979327 L75.7054305,100.88902 C75.7054305,99.1200918 74.3809272,98.8992245 71.7319205,100.225755 L71.7319205,107.979327 C71.7047682,108.478765 71.3100662,108.728816 70.5458278,108.728816 C69.7822517,108.728816 69.3961589,108.472796 69.3868874,107.959429 L69.3868874,98.302949 C69.3431788,97.7053469 69.7100662,97.4022347 70.4868874,97.3936122 C71.2637086,97.3849898 71.6743046,97.6741735 71.7186755,98.2624898" id="Fill-15" fill="#A4CF25"></path>
                <path d="M90.5928477,99.4562347 C89.6696689,99.7832245 89.0935099,100.573173 88.8643709,101.824092 L94.7319205,101.824092 C94.604106,100.573173 94.1133775,99.7832245 93.2610596,99.4562347 C92.4021192,99.1279184 91.4517881,99.1279184 90.5928477,99.4562347 M91.5597351,108.907765 C90.2709934,108.844755 89.0471523,108.322765 88.109404,107.435316 C87.0193377,106.403939 86.4180132,104.957357 86.4537748,103.455724 C86.3491391,101.865878 86.8537748,100.295929 87.8643709,99.0649082 C88.7908609,97.9075102 90.1908609,97.2323061 91.6723179,97.2283265 C93.030596,97.1341429 94.3762914,97.5367449 95.4603974,98.3625102 C96.4405298,99.1537857 96.9590728,100.581796 97.0160265,102.647204 C97.0829139,103.276643 96.6570861,103.85302 96.0365563,103.973735 L88.7716556,103.973735 C88.8259603,104.761694 89.22,105.487969 89.8511258,105.963531 C90.5405298,106.481541 91.3862252,106.748173 92.2484768,106.71899 C93.1683444,106.736235 94.0464901,106.336286 94.638543,105.631898 C94.9153642,105.144398 95.5345695,104.973939 96.0206623,105.251184 C96.0630464,105.275724 96.1034437,105.302918 96.1425166,105.332765 C96.7603974,105.686949 96.806755,106.276592 96.2815894,107.103684 C95.7915232,107.715878 95.1683444,108.20802 94.4603974,108.542969 C93.533245,108.883888 92.5411921,109.007918 91.5597351,108.907765" id="Fill-17" fill="#A4CF25"></path>
                <g id="Group-21" transform="translate(0.000000, 117.640714)">
                    <mask id="mask-2" fill="white">
                        <use xlink:href="#path-1"></use>
                    </mask>
                    <g id="Clip-20"></g>
                    <path d="M2.09238411,4.33410714 L7.27913907,7.21267857 C7.67649007,7.42227041 7.72284768,7.79701531 7.39635762,8.10145408 C7.11556291,8.40589286 6.83543046,8.49875 6.48509934,8.31170918 C6.08774834,8.10145408 0.43410596,4.89589286 0.13013245,4.68497449 C-0.127483444,4.49727041 0.0129139073,3.9832398 0.410264901,3.79553571 C0.410264901,3.79553571 6.20430464,0.613852041 6.48509934,0.473903061 C6.81225166,0.309413265 7.11556291,0.379056122 7.39635762,0.683494898 C7.72284768,0.987933673 7.65264901,1.36267857 7.27913907,1.57293367 L2.09238411,4.33410714 Z" id="Fill-19" fill="#374D61" mask="url(#mask-2)"></path>
                </g>
                <path d="M15.1291391,122.11477 C15.4556291,122.11477 15.5496689,122.11477 15.4556291,121.693597 C14.918543,117.715995 14.4980132,113.50426 14.4278146,113.50426 L14.3344371,113.50426 C14.2642384,113.50426 13.8443709,117.715995 13.3066225,121.693597 C13.2125828,122.11477 13.3066225,122.11477 13.6337748,122.11477 L15.1291391,122.11477 Z M17.6523179,128.45625 C17.6523179,128.783903 17.4417219,128.87676 17.1609272,128.87676 C17.0450331,128.87676 16.5072848,128.87676 16.4377483,128.526556 C16.4377483,128.385944 16.1569536,126.467117 15.8298013,123.823342 C15.7596026,123.565995 15.6662252,123.565995 15.5960265,123.565995 L13.1662252,123.565995 C13.1198675,123.565995 13.002649,123.565995 12.9331126,123.823342 C12.605298,126.467117 12.3258278,128.385944 12.3258278,128.526556 C12.2781457,128.87676 11.7178808,128.87676 11.6013245,128.87676 C11.3205298,128.87676 11.110596,128.783903 11.110596,128.45625 C11.110596,128.104719 13.1430464,112.802526 13.189404,112.545179 C13.2602649,112.287832 13.4231788,112.124005 13.6569536,112.124005 L15.1059603,112.124005 C15.3390728,112.124005 15.5496689,112.287832 15.5496689,112.545179 C15.6192053,112.802526 17.6523179,128.104719 17.6523179,128.45625 Z" id="Fill-22" fill="#374D61"></path>
                <path d="M22.1377483,126.186291 C22.1609272,126.864811 22.6509934,127.730372 23.8662252,127.730372 C24.8708609,127.730372 25.6417219,126.864811 25.6417219,126.303689 C25.6417219,125.952158 26.9503311,125.765117 26.9503311,126.467515 C26.9503311,127.894862 25.3847682,129.134505 23.515894,128.92425 C22.0205298,128.737209 20.8529801,127.66073 20.9225166,126.186291 L20.9225166,114.814607 C20.8529801,113.294403 22.0205298,112.241138 23.515894,112.053434 C25.3847682,111.819964 26.9503311,113.082821 26.9503311,114.510168 C26.9503311,115.189352 25.6417219,115.024862 25.6417219,114.674658 C25.6417219,114.112872 24.8708609,113.223434 23.8662252,113.223434 C22.6509934,113.223434 22.1609272,114.112872 22.1377483,114.768179 L22.1377483,126.186291 Z" id="Fill-24" fill="#374D61"></path>
                <path d="M34.0764238,122.11477 C34.4029139,122.11477 34.4969536,122.11477 34.4029139,121.693597 C33.8664901,117.715995 33.445298,113.50426 33.3750993,113.50426 L33.2817219,113.50426 C33.2115232,113.50426 32.7916556,117.715995 32.2539073,121.693597 C32.1598675,122.11477 32.2539073,122.11477 32.5810596,122.11477 L34.0764238,122.11477 Z M36.5996026,128.45625 C36.5996026,128.783903 36.3890066,128.87676 36.1088742,128.87676 C35.9923179,128.87676 35.4545695,128.87676 35.3850331,128.526556 C35.3850331,128.385944 35.1042384,126.467117 34.7770861,123.823342 C34.7068874,123.565995 34.6141722,123.565995 34.5433113,123.565995 L32.1135099,123.565995 C32.0671523,123.565995 31.9499338,123.565995 31.8803974,123.823342 C31.5525828,126.467117 31.2731126,128.385944 31.2731126,128.526556 C31.2254305,128.87676 30.6651656,128.87676 30.5486093,128.87676 C30.2678146,128.87676 30.0578808,128.783903 30.0578808,128.45625 C30.0578808,128.104719 32.0903311,112.802526 32.1366887,112.545179 C32.2075497,112.287832 32.3711258,112.124005 32.6042384,112.124005 L34.0525828,112.124005 C34.2863576,112.124005 34.4969536,112.287832 34.4969536,112.545179 C34.5664901,112.802526 36.5996026,128.104719 36.5996026,128.45625 Z" id="Fill-26" fill="#374D61"></path>
                <path d="M44.775894,115.610327 C44.775894,114.720888 45.0328477,113.59798 43.257351,113.410939 C42.6500662,113.363847 41.7619868,113.410939 41.6686093,113.410939 C41.4580132,113.410939 41.2712583,113.480582 41.2712583,113.901755 L41.2712583,127.075531 C41.2712583,127.426398 41.4580132,127.520582 41.6686093,127.520582 C41.7619868,127.520582 42.6500662,127.56701 43.257351,127.520582 C45.0328477,127.309663 44.775894,126.186092 44.775894,125.274102 L44.775894,115.610327 Z M46.0143046,125.132827 C46.0143046,126.022929 46.2944371,128.409357 43.4911258,128.73701 C42.5798675,128.830531 41.0374834,128.830531 40.7103311,128.830531 L40.6407947,128.830531 L40.5944371,128.830531 L40.4772185,128.830531 C40.1500662,128.783439 40.1030464,128.597061 40.1030464,128.269408 L40.1030464,112.638898 C40.1030464,112.287367 40.1500662,112.100327 40.4772185,112.03002 L40.5944371,112.03002 C40.6176159,112.03002 42.5798675,112.03002 43.4911258,112.147418 C46.2944371,112.451194 46.0143046,114.884714 46.0143046,115.750276 L46.0143046,125.132827 Z" id="Fill-28" fill="#374D61"></path>
                <path d="M49.7525166,112.755168 C49.7525166,112.381087 49.822053,112.194046 50.1498675,112.100526 L50.2664238,112.100526 L55.5233775,112.100526 C55.827351,112.100526 55.3829801,113.457566 55.0796689,113.457566 L51.4809934,113.457566 C51.2710596,113.457566 51.0843046,113.551087 51.0843046,113.949046 L51.0843046,118.019505 C51.0843046,118.254301 51.1074834,118.441342 51.4578146,118.441342 L53.7008609,118.441342 C54.3783444,118.441342 53.8876159,119.844811 53.514106,119.844811 L51.4809934,119.844811 C51.2942384,119.844811 51.0843046,119.891903 51.0843046,120.173128 L51.0843046,127.00476 C51.0843046,127.403383 51.2710596,127.497566 51.4809934,127.497566 L55.0558278,127.497566 C55.3598013,127.497566 55.7803311,128.830066 55.4531788,128.830066 L50.3598013,128.830066 L50.3134437,128.830066 L50.2664238,128.830066 L50.1498675,128.830066 C49.822053,128.760423 49.7525166,128.573383 49.7525166,128.198638 L49.7525166,112.755168 Z" id="Fill-30" fill="#374D61"></path>
                <path d="M62.6721854,118.043847 C62.6721854,118.043847 65.0086093,112.989765 65.2423841,112.310582 C65.3350993,112.124204 65.5695364,112.077112 66.1536424,112.077112 C66.4337748,112.077112 66.4807947,112.498949 66.4807947,112.498949 L66.4337748,128.455786 C66.4337748,128.760224 66.3403974,128.947265 66.0364238,128.947265 C65.7331126,128.947265 65.2423841,128.807316 65.2423841,128.549969 L65.2423841,115.985071 L63.1629139,120.149714 C62.9993377,120.500582 62.3450331,120.523796 62.2284768,120.360633 C62.2284768,120.266449 60.3125828,115.914765 60.3364238,115.985071 L60.3364238,128.549969 C60.3364238,128.807316 59.8450331,128.947265 59.5410596,128.947265 C59.2145695,128.947265 59.1211921,128.760224 59.1211921,128.455786 L59.1211921,112.451194 C59.0741722,111.773337 60.3364238,112.264153 60.3364238,112.264153 L60.3364238,112.287367 L62.6721854,118.043847 Z" id="Fill-32" fill="#374D61"></path>
                <path d="M74.8902649,112.334194 C74.9843046,112.029755 75.3346358,112.006541 75.7081457,112.147816 C76.1054967,112.287765 76.1054967,112.56899 75.9882781,112.919857 L73.6525166,120.032714 L73.6525166,128.549704 C73.6525166,128.690316 73.1617881,128.924449 72.8346358,128.924449 C72.5074834,128.924449 72.4372848,128.667102 72.414106,128.479398 L72.414106,120.056592 L70.0545033,112.919857 C69.9372848,112.56899 69.9372848,112.287765 70.3346358,112.147816 C70.7088079,112.006541 71.0591391,112.029755 71.1518543,112.334194 L73.0213907,118.090673 L74.8902649,112.334194 Z" id="Fill-34" fill="#374D61"></path>
                <path d="M86.922649,112.357474 C87.0855629,111.983393 87.2961589,111.726046 87.6703311,111.936301 C88.0908609,112.124005 88.3239735,112.427781 88.1835762,112.685128 C88.0676821,112.966352 80.9180132,129.04125 80.8246358,129.275383 C80.730596,129.53273 80.0769536,129.672679 79.7961589,129.508852 C79.4464901,129.392781 79.5630464,128.94773 79.6796026,128.62074 L86.922649,112.357474 Z" id="Fill-36" fill="#374D61"></path>
                <g id="Group-40" transform="translate(91.390728, 117.640714)">
                    <mask id="mask-4" fill="white">
                        <use xlink:href="#path-3"></use>
                    </mask>
                    <g id="Clip-39"></g>
                    <path d="M5.85827815,4.35745408 L0.671523179,1.57306633 C0.298013245,1.36214796 0.227152318,0.988066327 0.554304636,0.683627551 C0.835099338,0.379188776 1.1384106,0.308882653 1.46556291,0.474035714 C1.74635762,0.613321429 7.54039735,3.81888265 7.54039735,3.81888265 C7.93774834,4.00658673 8.07748344,4.52128061 7.8205298,4.70832143 C7.51721854,4.9192398 1.86291391,8.12480102 1.46556291,8.33571939 C1.11523179,8.52209694 0.835099338,8.4292398 0.554304636,8.12480102 C0.227152318,7.82036224 0.274172185,7.44561735 0.671523179,7.23602551 L5.85827815,4.35745408 Z" id="Fill-38" fill="#374D61" mask="url(#mask-4)"></path>
                </g>
                <path d="M81.9971523,38.0102755 C81.9984768,38.704051 81.9249669,39.3951735 81.7786093,40.0730306 L80.1031126,47.8067041 L79.7454967,49.4449694 L78.3282781,56.0046633 L78.2878808,56.1837449 L77.6256291,59.0888469 L76.2282781,65.5623163 L76.0892053,66.2255816 L75.5534437,68.7194592 L75.3077483,69.9995612 L74.7190066,72.718949 L74.4209934,74.1317041 C74.188543,75.2168061 73.4905298,76.1433878 72.5137086,76.6653776 L71.9964901,76.9373163 L70.3209934,77.8194592 L58.9170199,83.901602 L56.9302649,84.9429286 L51.4666887,87.8745612 C50.8070861,88.2181327 50.0918543,88.4423163 49.3547682,88.5378265 C49.2077483,88.5683367 49.0600662,88.5875714 48.9103974,88.5981837 C48.5799338,88.6167551 48.2481457,88.6167551 47.9170199,88.5981837 L47.4931788,88.5510918 C46.7401987,88.4383367 46.0103974,88.2008878 45.3349007,87.8486939 L24.3143709,76.6388469 C23.3137086,76.1400714 22.5852318,75.2221122 22.3276159,74.1317041 L22.0296026,72.7388469 L18.4137086,56.1572143 L18.4137086,56.0510918 L14.9368874,40.0730306 C14.7911921,39.3951735 14.7170199,38.704051 14.7183444,38.0102755 L14.7183444,37.943949 C14.7097351,37.8471122 14.7097351,37.748949 14.7183444,37.6521122 C14.8839073,34.0293571 17.1196689,30.8271122 20.4600662,29.4282857 L45.8110596,18.749051 C47.4388742,18.0711939 49.27,18.0711939 50.8971523,18.749051 L76.2421854,29.4017551 C79.5905298,30.8045612 81.8282781,34.0194082 81.983245,37.6521122 C81.9971523,37.7715 82.0017881,37.8908878 81.9971523,38.0102755" id="Fill-41" fill="#A4CF25"></path>
                <path d="M14.7715232,38.4681939 L21.5331126,71.285898 C21.9245033,73.225949 23.1503311,74.8940612 24.8847682,75.8431939 L47.4013245,88.5639592 C47.7258278,88.7330918 48.1251656,88.6064082 48.2933775,88.2814082 C48.3443709,88.1819184 48.3701987,88.0718163 48.3675497,87.961051 L48.3675497,55.7853878 C48.3807947,52.9718163 46.789404,50.3963571 44.2682119,49.1527347 L17.9768212,35.8151327 C16.8225166,35.278551 15.4516556,35.7819694 14.9172185,36.9380408 C14.6953642,37.4169184 14.6443709,37.9568163 14.7715232,38.4681939" id="Fill-43" fill="#5B7830"></path>
                <path d="M81.9971523,38.0102755 C81.9898675,38.1641531 81.967351,38.3180306 81.9302649,38.4679286 L80.0236424,47.7536429 L79.6792715,49.3985408 L78.3143709,56.0311939 L78.275298,56.2102755 L77.7057616,59.0291531 L76.3812583,65.549051 L76.2481457,66.2123163 L75.7123841,68.7924184 L75.4468212,70.118949 L75.2017881,71.2862959 C75.1044371,71.7810918 74.9461589,72.2626224 74.7315894,72.718949 C74.1481457,74.0249184 73.1587417,75.1073673 71.9110596,75.8031327 L71.8448344,75.8429286 L70.3474834,76.6786429 L58.1693377,83.5699694 L56.288543,84.6311939 L49.3282781,88.5643571 C48.9958278,88.7182347 48.6024503,88.5729796 48.4488079,88.2406837 C48.4077483,88.1537959 48.3872185,88.0576224 48.3878808,87.961449 L48.3878808,55.7857857 C48.3739735,52.9722143 49.9660265,50.3967551 52.4865563,49.1531327 L78.7454967,35.8148673 C79.9163576,35.2981837 81.2845695,35.8301224 81.8004636,37.0034388 C81.9382119,37.3158367 82.0057616,37.6554286 81.9971523,37.9970102 L81.9971523,38.0102755 Z" id="Fill-45" fill="#C8EF37"></path>
                <path d="M79.7517219,49.445102 L78.3345033,56.0047959 L78.2947682,56.1838776 L77.7053642,59.0292857 L76.3808609,65.5491837 L76.2484106,66.212449 L75.7119868,68.792551 L75.4470861,70.1190816 L75.202053,71.2864286 C75.1040397,71.7812245 74.9457616,72.2620918 74.7318543,72.7190816 L74.4338411,74.1318367 C74.2013907,75.2162755 73.5033775,76.1435204 72.5265563,76.6655102 L71.996755,76.937449 L71.996755,77.1430612 L70.2947682,78.0384694 L59.0364901,83.9415306 L51.3212583,88.6308163 C51.3212583,88.6308163 57.01,84.9762245 56.9503974,84.9430612 C56.8907947,84.909898 50.8974172,88.4384694 50.5927815,88.2593878 C48.6060265,87.0920408 50.1424503,79.0267347 49.1556954,65.5757143 C47.9636424,49.2726531 59.612649,47.3359184 63.0629801,45.0934184 C65.1821854,44.0527551 79.8113245,35.9078571 81.9305298,38.4680612 C80.7517219,43.4757143 79.7318543,49.4185714 79.7517219,49.445102" id="Fill-47" fill="#E9FAB5"></path>
                <path d="M79.8448344,49.4716327 C80.1355629,48.2956633 80.4401987,47.1216837 80.7587417,45.9490306 C80.9574172,45.220102 81.2680132,44.5236735 81.4209934,43.787449 C81.6123841,42.9351531 81.685894,42.0596429 81.6395364,41.187449 C81.6521192,40.8597959 81.5839073,40.5334694 81.4401987,40.2389796 C81.07,39.5757143 80.1825828,39.5757143 79.4534437,39.6354082 C76.8713245,39.9604082 74.5064238,41.2007143 72.2090728,42.4211224 C71.5792715,42.7136224 71.0011258,43.107602 70.5004636,43.5884694 C69.5600662,44.5959694 70.0163576,46.0027551 70.1163576,47.2563265 L70.4335762,51.3354082 L71.3342384,62.6507143 C71.4150331,63.1315816 71.8686755,63.4559184 72.3481457,63.3756633 C72.5660265,63.3391837 72.762053,63.222449 72.8978146,63.0486735 L78.3282781,56.0114286 C78.8110596,53.8027551 79.2812583,51.6338776 79.8448344,49.4716327" id="Fill-49" fill="#A4CF25"></path>
                <path d="M66.7517881,45.1669082 C62.7782781,46.0556837 59.1425166,48.8679286 57.0630464,51.0301735 C56.6445033,51.4500204 56.6445033,52.1298673 57.0630464,52.549051 L57.1425166,52.6220102 L69.2948344,63.3934388 C69.6054305,63.6945612 70.1001325,63.6859388 70.4001325,63.3748673 C70.5445033,63.2256327 70.6233113,63.0246633 70.6193377,62.816398 L68.6325828,46.0629796 C68.506755,45.2597653 67.6259603,44.9679286 66.7517881,45.1669082" id="Fill-51" fill="#A4CF25"></path>
                <path d="M54.4341722,53.7232959 C52.1295364,56.0248265 50.5063576,62.1467653 50.4003974,66.4380918 C50.4401325,67.0920714 51.0010596,67.5915102 51.654702,67.5530408 C51.6560265,67.5523776 51.6580132,67.5523776 51.6593377,67.5523776 L51.8381457,67.5523776 L68.2686093,64.9988061 C68.578543,64.9775816 68.8129801,64.7082959 68.7924503,64.398551 C68.7818543,64.2479898 68.7129801,64.1087041 68.5997351,64.0105408 L56.3871523,53.3982959 C55.7778808,52.8676837 54.9904636,53.1588571 54.4341722,53.7232959" id="Fill-53" fill="#A4CF25"></path>
                <path d="M68.8976159,65.8544184 L51.3148344,69.6416633 C50.9075497,69.7239082 50.624106,70.0953367 50.6525828,70.5105408 C50.7519205,72.0353878 50.8446358,74.6353878 51.0890066,77.1431939 C51.2154967,78.4226327 51.0499338,81.2753367 53.9969536,78.7681939 L69.3943046,66.8294184 C69.6340397,66.631102 69.6684768,66.2762551 69.4711258,66.0354898 C69.332053,65.8670204 69.1088742,65.793398 68.8976159,65.8471224 L68.8976159,65.8544184 Z" id="Fill-55" fill="#A4CF25"></path>
                <path d="M69.7454967,67.6518673 C66.9640397,69.9003367 64.188543,72.3544184 61.4004636,74.5829898 L57.0103974,78.0982959 C55.3938411,79.4248265 54.2547682,79.9753367 52.6786093,81.3151327 C52.2640397,81.6407959 51.8799338,82.0055918 51.5335762,82.4022245 C51.4064238,82.7033469 51.3580795,83.0323265 51.3938411,83.3579898 C51.4454967,84.8105408 51.6408609,86.2551327 51.9772848,87.6692143 C51.9772848,87.7421735 56.6587417,85.838602 57.0693377,85.6323265 C57.9110596,85.221102 58.7315894,84.7767143 59.5401987,84.3057959 C60.2024503,84.0079898 60.864702,83.0993163 61.5269536,82.9792653 C64.2481457,82.0845204 66.5329139,80.0741633 69.0302649,78.721102 C69.5865563,78.4431939 70.2554305,78.9731429 70.2945033,78.3503367 L70.6064238,68.0557959 C70.6011258,67.7632959 70.359404,67.5298265 70.0666887,67.5351327 C69.9501325,67.5371224 69.8368874,67.5782449 69.7454967,67.6518673" id="Fill-57" fill="#A4CF25"></path>
                <path d="M77.7054305,59.0294184 L77.6656954,59.0692143 L73.0696689,63.4732959 C72.7054305,63.8281429 72.6974834,64.4118163 73.0524503,64.7766122 C73.2047682,64.9338061 73.4080795,65.0313061 73.6259603,65.0518673 L76.2749669,65.5420204 L76.3676821,65.5420204 L77.7054305,59.0294184 Z" id="Fill-59" fill="#A4CF25"></path>
                <path d="M76.2283444,66.2320153 L75.6919205,68.8127806 L75.5859603,68.7059949 L72.8713907,66.0529337 C72.7554967,65.9355357 72.7574834,65.7471684 72.8753642,65.6310969 C72.9561589,65.5515051 73.074702,65.5249745 73.1819868,65.5621173 L76.1230464,66.2253827 L76.2283444,66.2320153 Z" id="Fill-61" fill="#A4CF25"></path>
                <path d="M75.434106,70.1125153 L75.1890728,71.2798622 C75.0903974,71.7746582 74.9327815,72.2555255 74.7188742,72.7125153 L74.4208609,74.1252704 C74.1884106,75.2097092 73.4903974,76.1369541 72.5135762,76.6589439 L71.9970199,76.9375153 L71.9109272,75.7960357 L71.3347682,67.7380255 C71.3347682,66.9480765 71.9970199,66.7026684 72.5731788,67.3128724 L75.3546358,69.9659337 L75.434106,70.1125153 Z" id="Fill-63" fill="#A4CF25"></path>
                <path d="M69.447351,70.1391122 C69.447351,70.1391122 66.3678808,78.3702347 66.7983444,78.6819694 C67.2281457,78.9937041 69.447351,70.1391122 69.447351,70.1391122" id="Fill-65" fill="#E9FAB5"></path>
                <path d="M72.1028477,68.8125816 C72.1028477,68.8125816 73.5664238,75.5248265 73.824702,75.491 C74.0829801,75.4585 72.1028477,68.8125816 72.1028477,68.8125816" id="Fill-67" fill="#E9FAB5"></path>
                <path d="M19.4072848,56.049898 L23.2993377,73.9229082 C23.484106,74.7068878 24.0178808,75.380102 24.7569536,75.7482143 L45.8013245,86.97 C46.3735099,87.2678061 46.994702,87.4707653 47.6403974,87.567602 L48.0258278,87.6087245 C48.2655629,87.6219898 48.5622517,87.6219898 48.8543046,87.6040816 C48.9463576,87.597449 49.0503311,87.5848469 49.1536424,87.5636224 L49.2278146,87.5510204 C49.8529801,87.470102 50.4516556,87.282398 51.0086093,86.9918878 L72.0509934,75.7846939 C72.7662252,75.4026531 73.2781457,74.7228061 73.4496689,73.9229082 L76.6549669,58.8787245 L77.3589404,55.7872449 L80.807947,39.8622449 C80.9390728,39.2540306 81.005298,38.6305612 81.0039735,38.012398 L81.0046358,37.972602 C81.0072848,37.9036224 81.0046358,37.8339796 80.9966887,37.765 L80.9907285,37.6946939 C80.8529801,34.462602 78.8384106,31.567449 75.8582781,30.3191837 L50.513245,19.6664796 C49.1410596,19.0947449 47.5662252,19.0947449 46.1927152,19.6671429 L20.8456954,30.345051 C17.8728477,31.59 15.8582781,34.4758673 15.710596,37.6973469 C15.7039735,37.7802551 15.7039735,37.8160714 15.7072848,37.8518878 L15.7119205,38.012398 C15.710596,38.6305612 15.7768212,39.2540306 15.907947,39.8635714 L19.4072848,56.049898 Z M48.410596,89.6071429 C48.2258278,89.6071429 48.0423841,89.6011735 47.8609272,89.5912245 L47.3847682,89.5401531 C46.4834437,89.4061735 45.6516556,89.1355612 44.8761589,88.7303061 L23.8476821,77.5171429 C22.602649,76.8976531 21.6874172,75.7415816 21.3609272,74.36 L21.0582781,72.9479082 L13.9662252,40.2847449 C13.8046358,39.5352551 13.7238411,38.7691837 13.7251656,38.0084184 C13.7145695,37.8784184 13.7145695,37.7179082 13.7298013,37.5593878 C13.907947,33.6202551 16.4013245,30.049898 20.0768212,28.5104592 L45.4258278,17.8318878 C47.289404,17.0558673 49.4205298,17.0552041 51.2788079,17.8305612 L76.6258278,28.4839286 C80.3019868,30.0240306 82.7913907,33.5910714 82.9741722,37.5759694 C82.9900662,37.7265306 82.9953642,37.8770918 82.9907285,38.0269898 C82.9907285,38.7817857 82.9099338,39.5405612 82.7490066,40.2834184 L75.3927152,74.337449 C75.0980132,75.7143878 74.2192053,76.8817347 72.9807947,77.5430102 L70.7834437,78.7004082 L51.9357616,88.7515306 C51.1721854,89.1494898 50.3622517,89.4061735 49.5178808,89.5195918 C49.3397351,89.5547449 49.1602649,89.5779592 48.9788079,89.589898 C48.7874172,89.6011735 48.5980132,89.6071429 48.410596,89.6071429 Z" id="Fill-69" fill="#374D61"></path>
                <path d="M68.8510596,34.1634694 C68.1888079,34.8996939 68.3345033,36.3257143 69.2815232,36.5578571 C69.5616556,36.6009694 69.8490728,36.5737755 70.1159603,36.4782653 L70.3278808,36.4185714 C71.5404636,36.0604082 76.5729139,34.9726531 75.3676159,33.4862755 C74.1629801,32.0012245 69.804702,33.0690816 68.8510596,34.1634694" id="Fill-71" fill="#E9FAB5"></path>
                <path d="M65.7454967,31.8355408 C65.5713245,31.9449796 65.472649,32.1413061 65.4865563,32.3462551 C65.4964901,32.386051 65.5117219,32.4238571 65.5335762,32.4583469 L65.6064238,32.5585 C66.1693377,33.2217653 67.5931788,33.4001837 67.5931788,32.2799286 C67.5931788,31.1583469 66.4143709,31.2651327 65.7454967,31.8355408" id="Fill-73" fill="#E9FAB5"></path>
                <path d="M72.1098753,61.1584337 C72.2162963,60.3426173 72.3433363,57.769148 72.382579,56.1507806 C72.504298,54.4581276 72.4816836,52.7588418 72.3167311,51.0701684 C71.7912776,51.8587908 72.0234083,54.8308827 72.0107708,55.9186378 C72.001459,57.6736378 72.0347155,59.4206786 72.1098753,61.1584337" id="Fill-75" fill="#E9FAB5"></path>
                <path d="M68.7780132,60.8928622 L65.2415894,53.9352092 C64.9435762,53.4808724 64.8084768,52.9383214 64.8574834,52.3964337 C64.9839735,52.2969439 65.1356291,52.4766888 65.2025166,52.6219439 C66.1753642,54.9831684 67.8045033,58.5515357 68.7780132,60.9127602" id="Fill-77" fill="#E9FAB5"></path>
                <path d="M68.8510596,61.635852 L66.1093377,58.4588112 C65.8927815,58.2664643 65.7662914,57.9925357 65.7583444,57.7026888 C65.8311921,57.6429949 65.9378146,57.7026888 65.9901325,57.7822806 C66.7782119,58.883301 68.0696026,60.528199 68.8576821,61.6292194" id="Fill-79" fill="#E9FAB5"></path>
                <path d="M73.0962252,60.8928622 C73.0962252,60.8928622 73.837947,53.7693929 74.1558278,53.4377602 C74.4737086,53.1061276 73.0962252,60.8928622 73.0962252,60.8928622" id="Fill-81" fill="#E9FAB5"></path>
                <path d="M56.7649669,60.1635357 L65.7722517,63.7710357 C65.7722517,63.7710357 56.5265563,59.1819031 56.7649669,60.1635357" id="Fill-83" fill="#E9FAB5"></path>
                <path d="M64.8309934,64.0433724 C64.8309934,64.0433724 56.6786755,64.1226105 56.7647682,64.3339121 C56.8508609,64.5452137 64.8309934,64.0433724 64.8309934,64.0433724" id="Fill-85" fill="#E9FAB5"></path>
                <path d="M67.460596,66.988602 C67.460596,66.988602 60.0294702,69.8532449 60.7917219,69.9732959 C61.5533113,70.0926837 67.460596,66.988602 67.460596,66.988602" id="Fill-87" fill="#E9FAB5"></path>
                <path d="M68.1228477,71.3392908 C68.1228477,71.3392908 65.8506623,75.1994949 66.05,75.3188827 C66.2486755,75.4382704 68.1228477,71.3392908 68.1228477,71.3392908" id="Fill-89" fill="#E9FAB5"></path>
                <path d="M68.54,70.0457908 C68.54,70.0457908 61.1227815,77.1095663 61.1227815,77.3947704 C61.1227815,77.6806378 68.54,70.0457908 68.54,70.0457908" id="Fill-91" fill="#E9FAB5"></path>
                <path d="M64.0562252,10.0371939 L63.8151656,8.87316327 C63.6423179,8.04076531 63.0098675,7.38015306 62.1860265,7.17454082 L33.7694702,0.0656632653 C33.1164901,-0.0968367347 32.4257616,0.0464285714 31.8919868,0.456326531 L8.62509934,18.3160714 C7.95092715,18.8334184 7.63304636,19.6916837 7.80523179,20.5247449 L8.04165563,21.6662245 C8.21450331,22.4992857 8.84761589,23.1592347 9.6707947,23.3655102 L11.3913245,23.7953061 L17.8595364,25.0037755 C17.8853642,25.0468878 20.174106,34.2875 20.2025828,34.3279592 C20.2343709,34.3743878 20.2661589,34.4201531 20.2999338,34.4659184 C20.6052318,34.8844388 21.0469536,35.1815816 21.5476159,35.307602 L38.6330464,39.5810204 C38.9549007,39.6612755 39.2906623,39.6679082 39.6164901,39.6002551 L42.2330464,39.0563776 C42.5582119,38.9887245 42.8635099,38.8487755 43.1270861,38.6471429 L57.1429801,27.8883163 C57.8158278,27.3716327 58.1343709,26.5133673 57.9621854,25.6803061 L56.2840397,17.5818367 L63.2363576,12.2445408 C63.9098675,11.7278571 64.2290728,10.8695918 64.0562252,10.0371939" id="Fill-93" fill="#374D61"></path>
                <polygon id="Fill-95" fill="#415C6D" points="9.97403974 20.0703418 33.2349669 2.21457653 61.6521854 9.32279082 61.6561589 9.34401531 38.4144371 27.1851888"></polygon>
                <polygon id="Fill-97" fill="#FFFFFF" points="38.4146358 27.1849235 61.6563576 9.34441327 61.8927815 10.4865561 39.715298 27.5099235 38.6464238 28.3317092 38.4093377 27.1889031"></polygon>
                <polygon id="Fill-99" fill="#3A5468" points="9.97403974 20.0703418 38.4144371 27.1851888 38.4098013 27.1885051 38.6462252 28.3313112 37.3455629 28.0063112 10.2051656 21.2171276 9.96807947 20.0749847"></polygon>
                <path d="M18.1927152,41.0065765 L17.0152318,37.1636173 L16.9039735,24.6531071 L14.8615894,23.7689745 L14.8331126,25.2832092 L12.7642384,24.2345867 L12.7907285,22.8715765 L10.8635762,22.0371888 C10.8178808,22.2089745 10.7907285,22.3867296 10.786755,22.5671378 L10.510596,37.0395867 L9.18675497,40.8341276 C8.94966887,41.515301 9.05827815,42.2694337 9.4781457,42.8557602 L11.4821192,45.6554031 C11.8880795,46.2231582 12.5377483,46.5654031 13.2344371,46.5786684 L13.9298013,46.5919337 C14.6264901,46.605199 15.2887417,46.2881582 15.7165563,45.7363214 L17.8251656,43.0162704 C18.2668874,42.4465255 18.4039735,41.6963724 18.1927152,41.0065765" id="Fill-101" fill="#374D61"></path>
                <polygon id="Fill-103" fill="#E5C851" points="12.7640397 24.2345204 14.8329139 25.2831429 14.6004636 37.4202347 15.8819205 41.6021224 13.772649 44.3221735 13.0772848 44.3089082 11.0733113 41.5092653 12.5130464 37.3797755"></polygon>
                <polygon id="Fill-105" fill="#C6AC3E" points="14.8329139 25.2832092 14.8613907 23.7689745 12.7905298 22.8715765 12.7640397 24.2345867"></polygon>
                <path d="M40.4751656,37.1597704 L39.1665563,37.4317092 L22.0817881,33.1582908 C22.0599338,33.1284439 22.039404,33.0985969 22.0188742,33.0680867 L20.8122517,27.2459439 L39.3837748,31.8921173 L40.4751656,37.1597704 Z" id="Fill-107" fill="#415C6D"></path>
                <polygon id="Fill-109" fill="#3A5468" points="39.0600662 30.3282704 50.683245 21.4066888 52.6031126 19.9329133 54.2527815 18.6660765 54.5766225 20.2287296 52.9262914 21.4955663 51.0070861 22.9686786 39.383245 31.8915867 20.8117219 27.2460765 20.488543 25.6827602"></polygon>
                <polygon id="Fill-111" fill="#374D61" points="54.5764238 20.2290612 55.7996026 26.1294694 54.1492715 27.3963061 52.926755 21.4952347"></polygon>
                <polygon id="Fill-113" fill="#415C6D" points="52.2294702 28.8696173 41.7837748 36.8884949 40.4751656 37.1597704 39.3837748 31.8921173 51.0069536 22.9692092"></polygon>
                <polygon id="Fill-115" fill="#FFFFFF" points="52.9266225 21.495301 54.1498013 27.3957092 52.2292715 28.8694847 51.0074172 22.9690765"></polygon>
            </g>
        </g>
    </g>
</svg>