<?xml version="1.0" encoding="UTF-8"?>
<svg width="52px" height="54px" viewBox="0 0 52 54" version="1.1" xmlns="http://www.w3.org/2000/svg" xmlns:xlink="http://www.w3.org/1999/xlink">
    <!-- Generator: Sketch 48.2 (47327) - http://www.bohemiancoding.com/sketch -->
    <title>Logo</title>
    <desc>Created with Sketch.</desc>
    <defs></defs>
    <g id="Homepage" stroke="none" stroke-width="1" fill="none" fill-rule="evenodd" transform="translate(-181.000000, -24.000000)">
        <g id="Logo" transform="translate(182.000000, 25.000000)">
            <g id="Shape">
                <path d="M50.2888094,14.7300935 C50.2898225,15.2381928 50.2353225,15.7449199 50.1262538,16.2414953 L48.8799937,21.9080374 L48.6139936,23.1084112 L47.5598447,27.9147664 L47.5302892,28.0459813 L47.0376963,30.1745794 L45.9983252,34.917757 L45.8948807,35.4037383 L45.4958805,37.231028 L45.318547,38.168972 L44.8801394,40.1614953 L44.6584725,41.1966355 C44.4856727,41.9913293 43.9666607,42.6705012 43.239805,43.0530841 L42.8555825,43.2523364 L41.6093225,43.8986916 L33.1219468,48.3551402 L31.6441681,49.1181308 L27.5852025,51.2661682 C27.0943314,51.517772 26.5624441,51.6822698 26.0138312,51.7521495 C25.9049449,51.7740579 25.7946805,51.7886707 25.6837939,51.7958879 C25.4376942,51.8096219 25.1910043,51.8096219 24.9449046,51.7958879 L24.6296451,51.7618692 C24.0691006,51.679236 23.526403,51.5051445 23.0237923,51.246729 L7.35933796,43.0336449 C6.62576462,42.6618125 6.09583732,41.9896223 5.91111483,41.1966355 L5.68944802,40.1760748 L2.99989078,28.0459813 L2.99989078,27.9682243 L0.408852109,16.2414953 C0.299783374,15.7449199 0.245283403,15.2381928 0.246296451,14.7300935 L0.246296451,14.6814953 C0.239575473,14.6103723 0.239575473,14.5387866 0.246296451,14.4676636 C0.369208895,11.8132566 2.03226681,9.46664412 4.51707692,8.44149533 L23.3735332,0.617196262 C24.5843042,0.120413809 25.9458757,0.120413809 27.1566467,0.617196262 L46.0081771,8.42205607 C48.499223,9.45017661 50.1635121,11.8061017 50.2789576,14.4676636 C50.2892317,14.5547485 50.2925258,14.6424973 50.2888094,14.7300935 Z" fill="#A4CF25" fill-rule="nonzero"></path>
                <path d="M0.285703883,15.0654206 L5.31507742,39.1117757 C5.6059008,40.5329896 6.51813565,41.7549139 7.80759751,42.4504673 L24.5557562,51.7715888 C24.7101911,51.850576 24.8954029,51.8433459 25.0430292,51.7525673 C25.1906555,51.6617887 25.2788052,51.5009227 25.2749418,51.3293458 L25.2749418,27.7543925 C25.2845853,25.6923656 24.1008211,23.8056521 22.2257918,22.8945794 L2.66985353,13.1214953 C2.07090552,12.8475736 1.36574197,12.9373202 0.856864277,13.3522355 C0.347986583,13.7671508 0.125833313,14.4334955 0.285703883,15.0654206 Z" fill="#5B7830" fill-rule="nonzero"></path>
                <path d="M50.2444761,15.0654206 L48.8258085,21.8691589 L48.5696602,23.0743925 L47.5549188,27.9342056 L47.5253632,28.0654206 L47.0968074,30.1308411 L46.1116216,34.9080374 L46.013103,35.3940187 L45.6141028,37.284486 L45.4170656,38.2564486 L45.2348062,39.1117757 C45.1618489,39.4743914 45.0444041,39.8268925 44.8850653,40.1614953 C44.4509446,41.1183441 43.7148454,41.9110481 42.7866195,42.4213084 L41.6241003,43.0628037 L32.5653168,48.1121495 L31.1663529,48.8897196 L25.9892015,51.7715888 C25.8876713,51.8235246 25.7709875,51.8389881 25.6591643,51.8153271 C25.4359212,51.758581 25.282429,51.5566715 25.2897196,51.3293458 L25.2897196,27.7543925 C25.2800761,25.6923656 26.4638403,23.8056521 28.3388697,22.8945794 L47.8701783,13.1214953 C48.4103148,12.8867277 49.034643,12.9408774 49.5249757,13.2650204 C50.0153084,13.5891634 50.3034905,14.1382447 50.2888094,14.7203738 C50.2852296,14.8430343 50.2703801,14.9553525 50.2444761,15.0654206 Z" fill="#C8EF37" fill-rule="nonzero"></path>
                <path d="M48.6189195,23.1084112 L47.5647707,27.9147664 L47.5352151,28.0459813 L47.0968074,30.1308411 L46.1116216,34.9080374 L46.013103,35.3940187 L45.6141028,37.284486 L45.4170656,38.2564486 L45.2348062,39.1117757 C45.1618489,39.4743914 45.0444041,39.8268925 44.8850653,40.1614953 L44.6633985,41.1966355 C44.4905986,41.9913293 43.9715866,42.6705012 43.2447309,43.0530841 L42.8555825,43.2523364 L42.8555825,43.4029907 L41.5896188,44.0590654 L33.2155394,48.3842991 L27.4768321,51.8201869 C27.4768321,51.8201869 31.7082051,49.1424299 31.6638718,49.1181308 C31.6195384,49.0938318 27.1615726,51.6792523 26.9349799,51.5480374 C25.4572012,50.6927103 26.6000167,44.7831776 25.8660533,34.9274766 C24.9793861,22.9820561 33.6440952,21.5629907 36.2105043,19.9203738 C37.7818756,19.1573832 48.6632528,13.1895327 50.2444761,15.0654206 C49.3627348,18.7345794 48.6041417,23.088972 48.6189195,23.1084112 Z" fill="#E9FAB5" fill-rule="nonzero"></path>
                <path d="M48.6878825,23.1278505 C48.9046234,22.2660436 49.1312161,21.4058567 49.3676607,20.5472897 C49.5154386,20.0127103 49.7469572,19.5024299 49.8602536,18.9629907 C50.002763,18.3383388 50.0574614,17.6973097 50.0228093,17.0579439 C50.0323561,16.8178174 49.9815912,16.579086 49.8750314,16.3629907 C49.5991794,15.8770093 48.9391049,15.8770093 48.3972527,15.9207477 C46.4761404,16.1588785 44.7175837,17.0676636 43.0082863,17.9618692 C42.5397294,18.1758556 42.1102978,18.4648693 41.7373966,18.8171963 C41.0379147,19.5558879 41.3778038,20.5861682 41.4516928,21.5046729 L41.6881373,24.4934579 L42.3629896,32.7842991 C42.4057316,33.0371855 42.595934,33.2412444 42.8477879,33.3044157 C43.0996418,33.3675869 43.3655342,33.2779279 43.5255089,33.0758879 L47.5647707,27.9196262 C47.9194376,26.3013084 48.2741045,24.7121495 48.6878825,23.1278505 Z" fill="#A4CF25" fill-rule="nonzero"></path>
                <path d="M38.9493208,19.9738318 C35.9937634,20.6250467 33.2894284,22.6856075 31.7426866,24.2699065 C31.5814081,24.4252259 31.4942224,24.6405862 31.5026682,24.8627841 C31.511114,25.084982 31.6144036,25.2932953 31.78702,25.4362617 L40.8408776,33.3285981 C41.0100099,33.4899261 41.2610333,33.5347647 41.4767625,33.442182 C41.6924917,33.3495994 41.8303825,33.1378538 41.8260634,32.9057944 L40.3482847,20.6299065 C40.254692,20.0418692 39.5995434,19.8280374 38.9493208,19.9738318 Z" fill="#A4CF25" fill-rule="nonzero"></path>
                <path d="M29.7870928,26.2429907 C28.0777954,27.9293458 26.8660169,32.4149533 26.787202,35.5592523 C26.8028168,35.8129778 26.9301371,36.0472717 27.135688,36.2005338 C27.341239,36.353796 27.6044539,36.4106916 27.8561286,36.3562617 L40.0773586,34.5046729 C40.2465734,34.4934199 40.3921942,34.3825701 40.4461497,34.2239409 C40.5001051,34.0653117 40.4517369,33.8902387 40.323655,33.7805607 L31.2402419,26.0048598 C30.7870564,25.6160748 30.2008709,25.8299065 29.7870928,26.2429907 Z" fill="#A4CF25" fill-rule="nonzero"></path>
                <path d="M40.5453218,35.1315888 L27.4669802,37.9065421 C27.1641558,37.9667972 26.9534616,38.2391019 26.9743873,38.5431776 C27.0482763,39.6609346 27.1172393,41.5659813 27.2994987,43.4029907 C27.3930913,44.3409346 27.2699431,46.4306542 29.4619815,44.5936449 L40.9147665,35.8508411 C41.066186,35.7278966 41.1108274,35.5177378 41.0221822,35.3451591 C40.9335369,35.1725803 40.7353563,35.0838216 40.5453218,35.1315888 Z" fill="#A4CF25" fill-rule="nonzero"></path>
                <path d="M41.1758407,36.4485981 C39.1069505,38.0960748 37.0429863,39.8942056 34.9740961,41.5271028 L31.7082051,44.1028037 C30.5062785,45.0747664 29.6590187,45.4781308 28.4866476,46.4598131 C28.1779804,46.6986441 27.8926719,46.9654798 27.6344618,47.2568224 C27.5398275,47.477511 27.504209,47.7184743 27.5310173,47.9566355 C27.5694028,49.0211357 27.714606,50.0792643 27.9644991,51.115514 C27.9644991,51.168972 31.4471309,49.7742056 31.7525385,49.6235514 C32.3781315,49.322243 32.9889467,48.9966355 33.58991,48.6515888 C34.0623962,48.4352462 34.5581283,48.2722201 35.0676887,48.1656075 C37.0922456,47.5095327 39.0330616,46.3237383 40.8901368,45.3323364 C41.3057595,45.1285777 41.5784837,44.7203431 41.6043966,44.2631776 L41.8359152,36.7207477 C41.830203,36.5692959 41.7358047,36.4349237 41.5940657,36.3764845 C41.4523268,36.3180454 41.2890858,36.3461926 41.1758407,36.4485981 Z" fill="#A4CF25" fill-rule="nonzero"></path>
                <path d="M47.0968074,30.1308411 L47.0672518,30.16 L43.6486571,33.3869159 C43.4573168,33.5706622 43.3917021,33.8473855 43.4805711,34.0958014 C43.5694401,34.3442174 43.7965788,34.5190028 44.0624351,34.5435514 L46.0328067,34.9031776 L46.1017698,34.9031776 L47.0968074,30.1308411 Z" fill="#A4CF25" fill-rule="nonzero"></path>
                <path d="M45.9983252,35.4085981 L45.599325,37.2990654 L45.5205101,37.2213084 L43.5008792,35.2773832 C43.4286243,35.2048344 43.4166042,35.0927172 43.4718765,35.0068607 C43.5271488,34.9210043 43.6351211,34.8840755 43.7323979,34.917757 L45.9195104,35.4037383 L45.9983252,35.4085981 Z" fill="#A4CF25" fill-rule="nonzero"></path>
                <path d="M45.4072138,38.2515888 L45.2249544,39.1069159 C45.1519971,39.4695316 45.0345523,39.8220327 44.8752134,40.1566355 L44.6535466,41.1917757 C44.4807467,41.9864695 43.9617347,42.6656414 43.2348791,43.0482243 L42.8555825,43.2523364 L42.7915454,42.4164486 L42.33836,36.5117757 C42.33836,35.9334579 42.8309529,35.7536449 43.2595087,36.2007477 L45.3283989,38.1446729 L45.4072138,38.2515888 Z" fill="#A4CF25" fill-rule="nonzero"></path>
                <polygon fill="#A4CF25" fill-rule="nonzero" points="42.8555825 43.4078505 45.5057323 42.0471028 42.9048418 44.0347664"></polygon>
                <path d="M40.9541739,38.271028 C40.9541739,38.271028 38.6636169,44.3020561 38.9838023,44.5304673 C39.3039877,44.7588785 40.9541739,38.271028 40.9541739,38.271028 Z" fill="#E9FAB5" fill-rule="nonzero"></path>
                <path d="M42.9294715,37.2990654 C42.9294715,37.2990654 44.0181018,42.2171963 44.210213,42.1928972 C44.4023242,42.1685981 42.9294715,37.2990654 42.9294715,37.2990654 Z" fill="#E9FAB5" fill-rule="nonzero"></path>
                <path d="M50.2888094,14.7300935 C50.2898225,15.2381928 50.2353225,15.7449199 50.1262538,16.2414953 L48.8799937,21.9080374 L48.6139936,23.1084112 L47.5598447,27.9147664 L47.5302892,28.0459813 L47.0376963,30.1745794 L45.9983252,34.917757 L45.8948807,35.4037383 L45.4958805,37.231028 L45.318547,38.168972 L44.8801394,40.1614953 L44.6584725,41.1966355 C44.4856727,41.9913293 43.9666607,42.6705012 43.239805,43.0530841 L42.8555825,43.2523364 L41.6093225,43.8986916 L33.1219468,48.3551402 L31.6441681,49.1181308 L27.5852025,51.2661682 C27.0943314,51.517772 26.5624441,51.6822698 26.0138312,51.7521495 C25.9049449,51.7740579 25.7946805,51.7886707 25.6837939,51.7958879 C25.4376942,51.8096219 25.1910043,51.8096219 24.9449046,51.7958879 L24.6296451,51.7618692 C24.0691006,51.679236 23.526403,51.5051445 23.0237923,51.246729 L7.35933796,43.0336449 C6.62576462,42.6618125 6.09583732,41.9896223 5.91111483,41.1966355 L5.68944802,40.1760748 L2.99989078,28.0459813 L2.99989078,27.9682243 L0.408852109,16.2414953 C0.299783374,15.7449199 0.245283403,15.2381928 0.246296451,14.7300935 L0.246296451,14.6814953 C0.239575473,14.6103723 0.239575473,14.5387866 0.246296451,14.4676636 C0.369208895,11.8132566 2.03226681,9.46664412 4.51707692,8.44149533 L23.3735332,0.617196262 C24.5843042,0.120413809 25.9458757,0.120413809 27.1566467,0.617196262 L46.0081771,8.42205607 C48.499223,9.45017661 50.1635121,11.8061017 50.2789576,14.4676636 C50.2892317,14.5547485 50.2925258,14.6424973 50.2888094,14.7300935 Z" stroke="#374D61" stroke-width="1.152"></path>
                <path d="M40.5108403,11.9114019 C40.0182474,12.4508411 40.1266178,13.4957009 40.8310257,13.6657944 C41.0396195,13.6972953 41.2528761,13.6772578 41.4516928,13.6074766 L41.6093225,13.5637383 C42.5107675,13.3013084 46.2544736,12.5042991 45.3579545,11.4157009 C44.4614354,10.3271028 41.2201741,11.1095327 40.5108403,11.9114019 Z" fill="#E9FAB5" fill-rule="nonzero"></path>
                <path d="M38.2005796,10.2056075 C38.0715151,10.2858636 37.9976844,10.4296753 38.0084684,10.5798131 C38.015437,10.6089855 38.027077,10.6368747 38.0429499,10.6624299 C38.0589125,10.6881819 38.0770378,10.7125665 38.0971351,10.7353271 C38.5158391,11.2213084 39.5749138,11.3525234 39.5749138,10.531215 C39.5749138,9.70990654 38.6980984,9.78766355 38.2005796,10.2056075 Z" fill="#E9FAB5" fill-rule="nonzero"></path>
                <path d="M42.9343974,31.6908411 C43.0132123,31.0930841 43.1068049,29.2074766 43.1363605,28.0216822 C43.2261099,26.7816521 43.2096317,25.5363615 43.0871012,24.2990654 C42.6979528,24.8773832 42.8703603,27.0545794 42.8605085,27.8515888 C42.8572245,29.1378193 42.8818541,30.4175701 42.9343974,31.6908411 Z" fill="#E9FAB5" fill-rule="nonzero"></path>
                <path d="M40.4566551,31.4964486 L37.826209,26.3985047 C37.6042656,26.0654605 37.5035315,25.6679326 37.5405051,25.271028 C37.6340978,25.1981308 37.7473941,25.3293458 37.7966534,25.4362617 C38.520765,27.1663551 39.7325435,29.7809346 40.4566551,31.511028" fill="#E9FAB5" fill-rule="nonzero"></path>
                <path d="M40.5108403,32.0407477 L38.4715057,29.7128972 C38.3105513,29.5718022 38.2160338,29.3712291 38.2104315,29.1588785 C38.2646167,29.1151402 38.3434315,29.1588785 38.382839,29.2171963 C38.9690245,30.0239252 39.9295807,31.2291589 40.5157662,32.0358879" fill="#E9FAB5" fill-rule="nonzero"></path>
                <path d="M43.6683608,31.4964486 C43.6683608,31.4964486 44.2200649,26.2770093 44.4565095,26.0340187 C44.6929541,25.791028 43.6683608,31.4964486 43.6683608,31.4964486 Z" fill="#E9FAB5" fill-rule="nonzero"></path>
                <path d="M31.5259458,30.9618692 L38.2252092,33.6056075 C38.2252092,33.6056075 31.3436864,30.2426168 31.5259458,30.9618692 Z" fill="#E9FAB5" fill-rule="nonzero"></path>
                <path d="M37.5208014,33.8048598 C37.5208014,33.8048598 31.4569828,33.8631776 31.5259458,34.0186916 C31.5949088,34.1742056 37.5208014,33.8048598 37.5208014,33.8048598 Z" fill="#E9FAB5" fill-rule="nonzero"></path>
                <path d="M39.4763952,35.9626168 C39.4763952,35.9626168 33.9495028,38.0620561 34.5159847,38.1495327 C35.0824665,38.2370093 39.4763952,35.9626168 39.4763952,35.9626168 Z" fill="#E9FAB5" fill-rule="nonzero"></path>
                <path d="M39.9689881,39.1506542 C39.9689881,39.1506542 38.2793945,41.9790654 38.4271723,42.0665421 C38.5749502,42.1540187 39.9689881,39.1506542 39.9689881,39.1506542 Z" fill="#E9FAB5" fill-rule="nonzero"></path>
                <path d="M40.2793216,38.2029907 C40.2793216,38.2029907 34.7622811,43.3786916 34.7622811,43.5876636 C34.7622811,43.7966355 40.2793216,38.2029907 40.2793216,38.2029907 Z" fill="#E9FAB5" fill-rule="nonzero"></path>
            </g>
        </g>
    </g>
</svg>