<?xml version="1.0" encoding="utf-8"?>
<!-- Generator: Adobe Illustrator 16.0.0, SVG Export Plug-In . SVG Version: 6.00 Build 0)  -->
<!DOCTYPE svg PUBLIC "-//W3C//DTD SVG 1.1//EN" "http://www.w3.org/Graphics/SVG/1.1/DTD/svg11.dtd">
<svg version="1.1" id="Layer_1" xmlns="http://www.w3.org/2000/svg" xmlns:xlink="http://www.w3.org/1999/xlink" x="0px" y="0px"
	 width="1152px" height="307.654px" viewBox="0 0 1152 307.654" enable-background="new 0 0 1152 307.654" xml:space="preserve">
<g>
	<g>
		<path fill="#FFFFFF" d="M299.567,220.62V95.631c0-6.182,2.639-9.268,7.949-9.268l37.549-0.2
			c9.852,0.384,18.371,2.717,25.523,7.028c7.117,4.297,11.539,12.244,13.195,23.891c1.611,11.633-2.734,21.348-13.092,29.205
			c15.041,4.787,23.756,14.332,26.164,28.527c2.396,14.24-0.166,26.792-7.656,37.656c-7.549,10.865-19.777,16.25-36.721,16.111
			h-45.129C302.038,228.582,299.433,225.93,299.567,220.62 M344.329,106.097h-24.092v37.353l23.527-0.203
			c12.627-2.023,18.842-8.592,18.674-19.73C362.241,112.404,356.192,106.588,344.329,106.097 M347.536,161.646H320.61l0.195,44.578
			h31.305c10.096,0.632,17.219-2.545,21.33-9.496c4.094-6.953,4.129-14.596,0.092-22.943
			C369.493,165.425,360.839,161.403,347.536,161.646"/>
		<path fill="#FFFFFF" d="M438.181,190.852c0.664,9.865,4.711,15.806,12.156,17.828c6.461,3.915,8.027,8.764,4.74,14.502
			c-3.301,5.756-8.777,7.198-16.494,4.269c-14.305-6.2-21.314-16.422-21.057-30.722l0.172-100.896
			c-0.736-6.83,2.777-10.174,10.523-10.053c7.783,0.141,11.191,3.468,10.16,10.053L438.181,190.852z"/>
		<path fill="#FFFFFF" d="M518.425,126.461c7.316,0.201,14.271,1.92,20.746,5.217c6.523,3.3,12.43,8.795,17.74,16.513
			c5.322,7.716,7.916,18.552,7.791,32.501c-0.135,13.995-3.48,24.86-10.057,32.626c-6.574,7.794-13.064,12.813-19.512,15.081
			c-6.477,2.273-12.66,3.41-18.613,3.41c-5.936,0-12.457-1.09-19.639-3.303c-7.121-2.225-13.801-7.211-19.98-15.006
			c-6.215-7.75-9.424-18.505-9.684-32.225c-0.234-13.705,2.838-24.968,9.285-33.762c6.439-8.777,13.227-14.529,20.285-17.248
			C503.86,127.535,511.071,126.277,518.425,126.461 M495.485,153.762c-5.957,6.152-8.889,14.699-8.826,25.717
			c0.064,11.006,3.102,19.244,9.084,24.754c6.014,5.491,12.799,8.193,20.287,8.053c7.549-0.118,14.301-2.835,20.303-8.146
			c6.014-5.312,8.932-13.689,8.824-25.151c-0.094-11.418-3.27-20.102-9.393-26.057c-6.141-5.939-12.887-8.826-20.271-8.64
			C508.079,144.475,501.421,147.639,495.485,153.762"/>
		<path fill="#FFFFFF" d="M652.663,142.113c4.715,6.32,4.99,11.479,0.881,15.47c-4.086,3.972-8.627,4.14-13.57,0.459
			c-6.316-7.074-13.164-10.528-20.574-10.328c-7.385,0.169-13.629,3.284-18.785,9.299c-5.111,5.988-7.414,14.288-6.908,24.921
			c0.521,10.618,4.102,18.199,10.82,22.773c6.678,4.544,13.656,6.244,20.945,5.126c7.293-1.153,12.232-4.05,14.871-8.764
			c3.672-5.399,7.953-6.813,12.828-4.144c4.852,2.639,6.154,7.029,3.881,13.075c-3.678,6.585-9.496,11.784-17.447,15.669
			c-7.947,3.836-17.844,4.755-29.662,2.729c-11.83-1.995-20.855-7.259-27.07-15.727c-6.18-8.488-9.248-19.273-9.193-32.441
			c0.082-13.15,3.783-24.705,11.205-34.709c7.412-9.992,18.279-15.455,32.611-16.409
			C631.858,128.182,643.581,132.506,652.663,142.113"/>
		<path fill="#FFFFFF" d="M754.126,227.082c-5.797,4.034-10.217,3.666-13.258-1.152l-31.838-43.228l-11.758,11.386v27.867
			c-0.133,5.308-3.799,7.963-11.031,7.963c-7.182,0-10.789-2.655-10.789-7.963V93.93c0.107-6.047,3.686-9.086,10.695-9.086
			c7.018,0,10.533,3.039,10.533,9.086v73.027l38.512-34.711c4.148-4.419,8.654-4.342,13.457,0.291
			c4.818,4.603,5.313,9.331,1.506,14.134l-25.383,21.606l32.396,45.33C760.985,218.55,759.946,223.031,754.126,227.082"/>
		<path fill="#A1CC3A" d="M794.37,190.852c0.623,9.865,4.66,15.806,12.119,17.828c6.445,3.915,8.057,8.764,4.74,14.502
			c-3.299,5.756-8.775,7.198-16.492,4.269c-14.271-6.2-21.316-16.422-21.057-30.722l0.199-100.896
			c-0.766-6.83,2.748-10.174,10.494-10.053c7.811,0.141,11.193,3.468,10.189,10.053L794.37,190.852z"/>
		<path fill="#A1CC3A" d="M828.112,99.254c0-3.422,1.303-6.492,3.895-9.193c2.584-2.73,5.621-4.082,9.164-4.082
			c3.438,0,6.309,1.213,8.654,3.699c2.334,2.454,3.502,5.663,3.502,9.576c0,3.912-1.23,7.137-3.699,9.682
			c-2.443,2.533-5.385,3.79-8.828,3.79c-3.547,0-6.553-1.396-8.992-4.097C829.343,105.914,828.112,102.781,828.112,99.254
			 M840.892,128.365c-7.137,0.061-10.619,2.299-10.51,6.719v87.055c-0.279,5.08,3.328,7.567,10.789,7.504
			c7.488-0.077,10.818-2.561,10.08-7.504v-87.055C851.497,130.541,848.044,128.301,840.892,128.365"/>
		<path fill="#A1CC3A" d="M895.798,136.223v5.891c9.982-7.841,20.613-12.445,31.793-13.842c11.162-1.396,19.125,3.744,23.766,15.357
			c7.625-6.842,15.092-11.383,22.521-13.655c7.383-2.286,15.156-2.102,23.383,0.567c8.248,2.643,12.02,11.267,11.391,25.797v66.016
			c-1.031,4.512-4.574,6.813-10.725,6.813c-6.115,0-9.457-2.346-9.916-7.027v-63.346c-0.277-15.547-11.971-16.925-35.123-4.158
			v68.257c-0.094,4.19-3.701,6.274-10.682,6.274c-7.061,0-10.527-2.208-10.527-6.645v-62.946c0-15.698-11.725-17.707-35.115-6.074
			v69.021c-0.271,4.437-3.771,6.645-10.525,6.645c-6.752,0-10.186-2.301-10.322-6.813v-85.721c-0.402-5.324,2.865-8.021,9.758-8.072
			C892.345,128.484,895.798,131.049,895.798,136.223"/>
		<path fill="#A1CC3A" d="M1072.298,230.777c-11.197-0.428-21.449-4.818-30.734-13.104c-9.299-8.256-14.205-20.134-14.67-35.541
			c-0.537-15.438,3.639-28.434,12.467-38.978c8.883-10.557,20.143-15.991,33.861-16.312c13.711-0.307,24.975,3.038,33.688,10.051
			c8.713,7.016,13.328,19.69,13.824,38.027c-0.125,6.306-3.045,10.189-8.713,11.584h-64.314c0.629,7.324,3.854,13.229,9.588,17.727
			c5.783,4.496,12.857,6.737,21.346,6.737c8.457,0,15.545-3.238,21.225-9.683c3.434-4.931,7.887-5.818,13.393-2.656
			c5.477,3.176,5.908,8.408,1.234,15.744c-4.684,5.691-10.09,9.958-16.24,12.798C1092.146,230.012,1083.46,231.207,1072.298,230.777
			 M1063.679,146.857c-8.254,2.896-13.365,9.911-15.408,21.037h52.193c-1.141-11.126-5.514-18.141-13.107-21.037
			C1079.743,143.939,1071.856,143.939,1063.679,146.857"/>
	</g>
	<g>
		<path fill="#A1CC3A" d="M259.481,110.61c0,2.097-0.207,4.247-0.67,6.372l-5.18,23.929l-1.105,5.065l-4.398,20.286l-0.119,0.555
			l-1.947,8.996l-4.334,20.026l-0.441,2.01l-1.658,7.711l-0.869,3.991l-1.84,8.412l-0.926,4.366
			c-0.732,3.345-2.887,6.229-5.914,7.826l-1.627,0.875l-5.184,2.737l-35.338,18.802h-0.027l-6.082,3.229l-17.004,9.026
			c-2.066,1.107-4.275,1.808-6.547,2.123l-0.084,0.034c-0.439,0.087-0.904,0.143-1.369,0.171c-1.025,0.058-2.07,0.058-3.092,0
			c-0.434-0.028-0.873-0.084-1.307-0.143h-0.035c-2.318-0.353-4.564-1.078-6.686-2.186l-65.234-34.67
			c-3.025-1.598-5.182-4.481-5.91-7.826l-0.93-4.309v-0.058l-11.092-51.146l-0.057-0.321l-10.742-49.514
			c-0.465-2.125-0.666-4.275-0.666-6.372v-0.204c0-0.292,0-0.585,0.053-0.9v-0.093c0.5-10.999,7.25-21.015,17.789-25.44
			l78.479-32.949c5.031-2.096,10.705-2.096,15.746,0l78.506,32.949c10.564,4.426,17.316,14.499,17.781,25.533
			C259.481,109.881,259.481,110.232,259.481,110.61"/>
		<path fill="#5C7936" d="M51.218,111.953l20.959,101.582c1.246,6.053,5.051,11.216,10.381,14.092l69.719,39.34
			c1.357,0.738,2.996-0.279,2.996-1.854v-99.531c0-8.793-4.947-16.793-12.691-20.533l-81.434-41.182
			C55.86,101.313,50.005,106.077,51.218,111.953"/>
		<path fill="#C6D93F" d="M259.481,110.61c0,0.437-0.061,0.876-0.148,1.337l-5.908,28.704l-1.078,5.091l-4.219,20.521l-0.119,0.555
			l-1.832,8.878l-4.164,20.174l-0.406,2.039l-1.658,7.975l-0.809,4.016v0.029l-0.764,3.613c-0.318,1.542-0.787,3.025-1.457,4.423
			c-1.801,4.048-4.857,7.393-8.73,9.546l-0.201,0.117l-4.604,2.593l-37.723,21.271l-5.82,3.298l-21.57,12.16l-0.084,0.034
			c-0.439,0.229-0.938,0.263-1.369,0.171c-0.848-0.234-1.545-1.017-1.545-2.036v-99.522c0-8.822,4.951-16.797,12.689-20.551
			l81.445-41.189c4.516-2.182,9.467,0.992,10.014,5.65C259.481,109.881,259.481,110.232,259.481,110.61"/>
		<path fill="#E6EDB5" d="M252.526,145.977L252.526,145.977l-4.398,20.289l-0.119,0.552l-1.832,8.878l-4.16,20.174l-0.41,2.039
			l-1.656,7.975l-0.811,4.016v0.029l-0.764,3.607c-0.318,1.548-0.787,3.031-1.457,4.422l-0.926,4.367
			c-0.732,3.351-2.887,6.234-5.912,7.838l-1.629,0.869l0.061,0.643l-5.271,2.765l-34.961,18.253l-23.906,14.508l17.447-11.399
			c-0.381-0.14-18.756,10.817-19.686,10.267c-6.084-3.61-1.404-28.563-4.447-70.17c-3.686-50.416,32.391-56.404,42.98-63.346
			c6.707-3.268,52.025-28.448,58.664-20.604C255.62,127.518,252.462,145.887,252.526,145.977"/>
		<path fill="#A1CC3A" d="M252.817,146.049c0.902-3.639,1.842-7.263,2.826-10.889c0.609-2.261,1.58-4.41,2.145-6.676
			c0.648-2.627,0.76-5.355,0.67-8.055c-0.027-1.012-0.107-2.066-0.617-2.936c-1.148-1.965-3.896-2.149-6.152-1.865
			c-7.994,0.999-15.314,4.844-22.434,8.617c-1.898,1.005-3.826,2.039-5.295,3.603c-2.91,3.116-1.484,7.466-1.184,11.343
			c0.324,4.205,0.65,8.404,0.973,12.612c0.908,11.666,1.82,23.34,2.721,35.012c0.174,2.272,3.404,3.081,4.834,1.224l16.824-21.773
			C249.603,159.459,251.147,152.742,252.817,146.049"/>
		<path fill="#A1CC3A" d="M212.257,132.735c-12.359,2.741-23.574,11.448-30.012,18.138c-1.383,1.436-1.314,3.584,0.193,4.917
			l37.695,33.325c1.609,1.431,4.316,0.246,4.07-1.779l-6.215-51.826C217.69,133.02,214.95,132.135,212.257,132.735"/>
		<path fill="#A1CC3A" d="M174.081,159.209c-7.051,7.114-12.156,26.063-12.49,39.316c-0.057,2.129,2.139,3.731,4.459,3.355
			l50.887-7.871c1.602-0.257,2.197-2.043,1.029-3.053l-37.844-32.775C178.251,156.553,175.813,157.464,174.081,159.209"/>
		<path fill="#A1CC3A" d="M218.892,196.73l-54.471,11.623c-1.26,0.273-2.127,1.398-2.043,2.677
			c0.313,4.714,0.594,12.763,1.357,20.451c0.391,3.953-0.125,12.774,9.01,5.027l47.678-36.747
			C221.87,198.586,220.702,196.285,218.892,196.73"/>
		<path fill="#A1CC3A" d="M221.519,202.348c-8.605,6.883-17.223,14.492-25.826,21.383l-13.611,10.883
			c-5.012,4.008-8.52,5.795-13.42,9.957c-0.619,0.518-3.182,2.652-3.551,3.361c-0.471,0.907-0.465,1.955-0.43,2.967
			c0.16,4.48,0.766,8.955,1.807,13.336c0.057,0.233,14.512-5.672,15.787-6.292c2.605-1.267,5.145-2.649,7.654-4.086
			c2.09-1.206,4.752-3.065,6.895-4.048c6.693-3.076,11.934-6.021,19.674-10.217c1.797-0.977,6.713-2.5,6.766-4.35l0.965-31.833
			C224.257,202.171,222.56,201.51,221.519,202.348"/>
		<path fill="#A1CC3A" d="M246.177,175.695l-0.115,0.118l-14.232,13.622c-1.748,1.661-0.787,4.424,1.719,4.892l8.18,1.513
			l0.289,0.029L246.177,175.695z"/>
		<path fill="#A1CC3A" d="M241.606,197.908l-1.656,7.975l-0.322-0.322l-8.408-8.15c-0.674-0.667,0-1.717,0.957-1.514l9.109,1.953
			L241.606,197.908z"/>
		<path fill="#A1CC3A" d="M239.14,209.898v0.029l-0.764,3.613c-0.318,1.534-0.787,3.025-1.457,4.423l-0.926,4.366
			c-0.732,3.345-2.887,6.229-5.912,7.826l-1.629,0.875l-0.264-3.518l-1.898-24.921c-0.082-2.442,2.162-3.204,3.85-1.312l8.619,8.271
			L239.14,209.898z"/>
		<path fill="#E6EDB5" d="M220.587,209.99c0,0-9.535,25.452-8.18,26.416C213.765,237.371,220.587,209.99,220.587,209.99"/>
		<path fill="#E6EDB5" d="M228.821,205.883c0,0,4.518,20.752,5.326,20.666C234.96,226.459,228.821,205.883,228.821,205.883"/>
		<path fill="#FFFFFF" d="M259.481,110.61h-4.381c0,1.808-0.18,3.653-0.572,5.435l-5.184,23.938l-1.1,5.055l-4.408,20.325
			l-0.119,0.547l0.014-0.021l-1.951,8.996l-4.338,20.033l-0.441,1.996l-0.008,0.052l-1.648,7.677l-0.867,3.973l-1.848,8.412
			l-0.928,4.39l0.004-0.017c-0.457,2.1-1.813,3.9-3.676,4.887l-0.018,0.004l-1.635,0.881l0.021-0.018l-5.174,2.74l-35.354,18.805
			l2.059,3.871v-4.381h-0.027h-1.092l-7.049,3.742l-17.029,9.043l0.01-0.014c-1.594,0.858-3.297,1.4-5.084,1.652l-0.432,0.062
			l-0.494,0.169l1.453,4.14l-0.861-4.298c-0.221,0.047-0.5,0.08-0.777,0.097l0.018-0.005c-0.432,0.025-0.859,0.039-1.295,0.039
			c-0.432,0-0.869-0.014-1.293-0.039l0.035,0.005c-0.236-0.017-0.576-0.058-1.016-0.118l-0.287-0.034h-0.326v4.382l0.658-4.337
			c-1.854-0.282-3.617-0.851-5.326-1.734l0.035,0.015l-65.229-34.668h-0.006c-1.863-0.98-3.225-2.787-3.676-4.887l-0.934-4.303
			l-4.283,0.924h4.385v-0.058v-0.472l-11.174-51.527l-0.047-0.238l-0.008-0.08l-10.762-49.594l-0.004-0.008
			c-0.391-1.781-0.566-3.623-0.566-5.435v-0.204l0.006-0.227l-0.871-0.043l0.852,0.156l0.02-0.113l-0.871-0.043l0.852,0.156
			l0.072-0.39v-0.49H51.12l4.383,0.2c0.418-9.334,6.145-17.838,15.102-21.594l78.475-32.954l-0.018,0.009
			c1.984-0.828,4.088-1.24,6.193-1.24c2.109,0,4.219,0.412,6.195,1.24l-0.012-0.009l78.504,32.954
			c8.973,3.749,14.701,12.308,15.094,21.671l0.018,0.253l0.043,0.246l0.094-0.014l-0.094,0.007v0.007l0.094-0.014l-0.094,0.007
			c0,0.017,0.004,0.142,0.004,0.428H259.481h4.383c-0.008-0.37,0.006-0.991-0.111-1.793l-4.332,0.688l4.375-0.186
			c-0.527-12.705-8.311-24.293-20.467-29.389l-78.512-32.952l-0.008-0.004c-3.049-1.267-6.303-1.907-9.555-1.907
			c-3.246,0-6.5,0.641-9.557,1.907l-0.037,0.017L67.212,79.932c-12.117,5.094-19.904,16.615-20.465,29.29l-0.006,0.095v0.189h4.379
			l-4.305-0.789c-0.148,0.789-0.131,1.402-0.133,1.689v0.204c0,2.379,0.229,4.84,0.77,7.313l10.725,49.423l0.043,0.239l0.012,0.083
			l11.111,51.228l4.281-0.933h-4.383v0.058v0.469l1.029,4.766v0.006c0.998,4.59,3.951,8.555,8.145,10.77l65.24,34.677l0.016,0.011
			c2.543,1.324,5.264,2.209,8.072,2.628l0.318,0.05h0.357v-4.385l-0.578,4.344c0.432,0.056,0.969,0.131,1.604,0.178h0.014h0.018
			c0.596,0.035,1.193,0.051,1.795,0.051c0.598,0,1.193-0.016,1.795-0.051h0.012c0.654-0.04,1.314-0.122,1.961-0.251l0.305-0.063
			l0.375-0.132l-1.447-4.139l0.611,4.344c2.752-0.389,5.467-1.244,8-2.598l-0.008,0.008l17.002-9.025l6.078-3.235l-2.051-3.872
			v4.386h0.027h1.096l36.301-19.315l5.189-2.742l1.629-0.879l-0.016,0.012c4.195-2.215,7.137-6.18,8.146-10.77l0.932-4.391v0.029
			l1.828-8.414l0.883-4.017l1.652-7.7l0.436-1.998l4.336-20.031l1.953-9.022l0.119-0.546l-0.008,0.021l4.396-20.29l1.105-5.056
			l5.186-23.937v0.013c0.537-2.47,0.77-4.931,0.77-7.313H259.481z"/>
		<path fill="#E6EDB5" d="M228.835,182.199c0.33-2.535,0.713-10.476,0.834-15.489c0.119-4.952,0.576-10.851-0.186-15.653
			c-1.617,2.449-0.895,11.633-0.941,14.989C228.481,171.44,228.581,176.83,228.835,182.199"/>
		<path fill="#E6EDB5" d="M218.526,181.385l-10.951-21.524c-0.766-1.504-1.553-3.163-1.184-4.815
			c0.387-0.301,0.873,0.249,1.057,0.711C210.458,163.057,215.513,174.084,218.526,181.385"/>
		<path fill="#E6EDB5" d="M218.759,183.689c-2.836-3.276-5.666-6.553-8.49-9.827c-0.592-0.688-1.217-1.452-1.105-2.317l0.713,0.254
			C212.315,175.201,216.313,180.286,218.759,183.689"/>
		<path fill="#E6EDB5" d="M231.897,181.385c0,0,2.303-22.025,3.279-23.063C236.138,157.29,231.897,181.385,231.897,181.385"/>
		<path fill="#E6EDB5" d="M181.253,179.123l27.896,11.158C209.149,190.281,180.577,176.088,181.253,179.123"/>
		<path fill="#E6EDB5" d="M206.296,191.133c0,0-25.256,0.237-25.049,0.85C181.444,192.589,206.296,191.133,206.296,191.133"/>
		<path fill="#E6EDB5" d="M214.433,200.22c0,0-23.012,8.863-20.668,9.222C196.112,209.809,214.433,200.22,214.433,200.22"/>
		<path fill="#E6EDB5" d="M216.497,213.688c0,0-7.037,11.947-6.432,12.22C210.673,226.178,216.497,213.688,216.497,213.688"/>
		<path fill="#E6EDB5" d="M217.788,209.689c0,0-22.98,21.848-22.98,22.723C194.808,233.291,217.788,209.689,217.788,209.689"/>
	</g>
</g>
</svg>
