<?xml version="1.0" encoding="UTF-8"?>
<svg width="92px" height="19px" viewBox="0 0 92 19" version="1.1" xmlns="http://www.w3.org/2000/svg" xmlns:xlink="http://www.w3.org/1999/xlink">
    <!-- Generator: Sketch 48.2 (47327) - http://www.bohemiancoding.com/sketch -->
    <title>Logotype</title>
    <desc>Created with Sketch.</desc>
    <defs></defs>
    <g id="Homepage" stroke="none" stroke-width="1" fill="none" fill-rule="evenodd" transform="translate(-239.000000, -48.000000)">
        <g id="Logo" transform="translate(182.000000, 25.000000)" fill-rule="nonzero">
            <g id="Logotype" transform="translate(57.159483, 23.753086)">
                <g id="Group-2" fill="#374D61">
                    <path d="M0.0104074414,15.1648743 L0.0104074414,1.18931329 C0.0104074414,0.495584529 0.306003062,0.148720149 0.897194305,0.148720149 L5.08808333,0.148720149 C6.08732565,0.162502834 7.06644738,0.432297986 7.93237009,0.93245802 C8.80229715,1.54163701 9.34480657,2.51780309 9.4037794,3.5800431 C9.61283787,4.87064091 9.04053467,6.16299522 7.94550767,6.87305936 C9.47324135,7.24722324 10.6249039,8.5085349 10.8620511,10.0672851 C11.1573122,11.5281714 10.8491948,13.0466623 10.0081082,14.2757599 C9.1673029,15.4788085 7.80537345,16.0715515 5.92231986,16.0539887 L0.87748793,16.0539887 C0.634928746,16.0888096 0.390347062,16.0055782 0.219040253,15.8299182 C0.0477334446,15.6542582 -0.0297636236,15.4072263 0.0104074414,15.1648743 Z M5.00268904,2.35504105 L2.31605329,2.35504105 L2.31605329,6.56351583 L4.94356992,6.56351583 C6.35367051,6.33520004 7.04777282,5.59975974 7.02587685,4.35719493 C7.00398088,3.11463013 6.32958494,2.4472455 5.00268904,2.35504105 Z M5.36397258,8.53932559 L2.36203483,8.53932559 L2.36203483,13.5249522 L5.86976953,13.5249522 C6.79741376,13.6888712 7.73311369,13.2819915 8.24767208,12.4909451 C8.70394809,11.6958698 8.70394809,10.7174677 8.24767208,9.92239242 C7.80537345,9.00034787 6.84414028,8.53932559 5.36397258,8.53932559 Z" id="Shape"></path>
                    <path d="M15.4036346,11.9557712 C15.4744794,13.0632022 15.930543,13.7250135 16.7718254,13.9412052 C17.4979849,14.3824128 17.6773109,14.9250981 17.3098033,15.5692612 C16.9422958,16.2134242 16.3224035,16.3722589 15.4501265,16.0457653 C13.9749634,15.5612124 12.998012,14.1643608 13.0524718,12.6175825 L13.0524718,1.28075408 C12.9949104,0.513052907 13.4044821,0.135820436 14.2811869,0.149056663 C15.1578916,0.16229289 15.5386826,0.539525361 15.4235597,1.28075408 L15.4036346,11.9557712 Z" id="Shape"></path>
                    <path d="M24.3710621,4.61306084 C25.175375,4.63974777 25.9633711,4.85112649 26.6761916,5.23140821 C27.4724478,5.67453392 28.1462009,6.31480881 28.6352252,7.0930992 C29.2756834,8.19160731 29.5739533,9.46202801 29.4906699,10.7366944 C29.5561905,12.0601155 29.1607357,13.3646016 28.3740208,14.420183 C27.8155616,15.1682466 27.0750221,15.7549536 26.2256139,16.1223005 C25.5643678,16.369575 24.8664883,16.4999968 24.1620985,16.5079365 C23.4230407,16.495318 22.6900304,16.3698067 21.9875712,16.1355983 C21.09668,15.8144255 20.3224877,15.2255376 19.7673331,14.4467786 C19.0250168,13.3884807 18.6483765,12.1093964 18.6963947,10.8098323 C18.6013125,9.45766757 18.9529919,8.11195512 19.6955019,6.98671686 C20.2488442,6.13206381 21.0304798,5.45616481 21.9483905,5.03859021 C22.7197912,4.73291236 23.5436606,4.58820408 24.3710621,4.61306084 Z M21.8243184,7.69814877 C21.1316351,8.49305043 20.7790651,9.53649542 20.8448016,10.5970676 C20.775496,11.6323074 21.1437813,12.6483945 21.856969,13.3896041 C22.4595828,13.9854121 23.2699722,14.3130726 24.1098576,14.3005029 C24.9460542,14.2869805 25.7480653,13.9603405 26.3627463,13.3829552 C27.0822324,12.6316055 27.438434,11.5946786 27.335733,10.5505253 C27.3980824,9.46569821 27.0230961,8.40192034 26.2974451,7.60506422 C25.7124429,6.97553974 24.8956641,6.6236009 24.0445565,6.63432535 C23.1957223,6.66952649 22.3970921,7.05331763 21.8308485,7.69814877 L21.8243184,7.69814877 Z" id="Shape"></path>
                    <path d="M39.3048069,6.39998661 C39.828446,7.11094516 39.8592483,7.69163491 39.3972138,8.14205586 C39.2054977,8.35557607 38.9355879,8.48179989 38.6493606,8.49179083 C38.3631333,8.50178178 38.0851366,8.39468297 37.8791004,8.19504656 C37.3276485,7.47537353 36.4800129,7.04640077 35.5755284,7.02925117 C34.7537768,7.04760445 33.982511,7.43096178 33.4699711,8.07581748 C32.8601955,8.87647551 32.5833895,9.88314937 32.6977134,10.8843246 C32.6588251,11.88367 33.1100433,12.8387861 33.9056036,13.4411258 C34.5830106,13.9355371 35.4270969,14.1425462 36.2553791,14.0173997 C36.9349604,13.9732993 37.5539431,13.609926 37.9253039,13.0370717 C38.3169331,12.4232628 38.7767675,12.2576669 39.3048069,12.5402839 C39.5633821,12.6707816 39.7567746,12.902651 39.8392541,13.1810634 C39.9217336,13.4594758 39.8859771,13.7597116 39.7404395,14.0107758 C39.2822432,14.7931031 38.5891062,15.4098582 37.7602915,15.7727166 C36.7191787,16.2181452 35.565635,16.3269618 34.460045,16.084037 C33.2540481,15.9280063 32.1617575,15.2903744 31.4304187,14.3154724 C30.7003787,13.2438461 30.3388443,11.9623718 30.4007418,10.6657379 C30.3835455,9.26279831 30.8239561,7.89269693 31.6548355,6.76429767 C32.5374498,5.61585173 33.8993013,4.94107466 35.3445111,4.93611853 C36.8203394,4.77365887 38.2865998,5.31564157 39.3048069,6.39998661 Z" id="Shape"></path>
                    <path d="M50.7113532,15.8945791 C50.065438,16.3333529 49.5744551,16.2916694 49.2384046,15.7695286 L45.6967816,10.9386296 L44.387494,12.2088796 L44.387494,15.3219794 C44.387494,15.9143239 43.9794326,16.2104962 43.16331,16.2104962 C42.3471874,16.2104962 41.9456725,15.9143239 41.9587654,15.3219794 L41.9587654,1.02014897 C41.9762226,0.340049657 42.3755553,0 43.1567636,0 C43.9379719,0 44.328576,0.340049657 44.328576,1.02014897 L44.328576,9.18134073 L48.6230394,5.29819304 C48.7981569,5.05817063 49.0765275,4.91637172 49.3726066,4.91637172 C49.6686857,4.91637172 49.9470563,5.05817063 50.1221738,5.29819304 C50.3690588,5.47362737 50.5291236,5.74720267 50.5616851,6.04938537 C50.5942467,6.35156807 50.4961694,6.65325899 50.2923812,6.87777854 L47.4446806,9.32613607 L51.051768,14.3939729 C51.47074,14.9424401 51.3572684,15.4426421 50.7113532,15.8945791 Z" id="Shape"></path>
                </g>
                <g id="Group" transform="translate(52.927571, 0.825397)" fill="#A4CF25">
                    <path d="M2.23901515,12.0236942 C2.30721356,13.151445 2.74624083,13.8253997 3.55609695,14.0455582 C4.25513066,14.4948613 4.42775788,15.0475042 4.07397863,15.7034867 C3.72019938,16.3594693 3.12346329,16.5212184 2.28377036,16.1887341 C0.876377618,15.6833482 -0.0491613789,14.2637689 0.00764841984,12.6976489 L0.00764841984,1.15280519 C-0.0605499904,0.371017763 0.327328468,-0.0131364048 1.17128379,0.00034268882 C2.01523912,0.0138217824 2.38180558,0.39797595 2.27098316,1.15280519 L2.23901515,12.0236942 Z" id="Shape"></path>
                    <path d="M6.01187321,1.5292325 C6.01382009,1.13193941 6.16937643,0.751940657 6.44391005,0.473837019 C6.70792521,0.167372927 7.08773435,-0.00544154671 7.48472609,0.000262123123 C7.84985797,-0.0072744956 8.2004555,0.148016346 8.44698998,0.42647953 C8.69762805,0.733082816 8.8221614,1.12891508 8.79392866,1.5292325 C8.80762252,1.94154887 8.65879634,2.34195103 8.38152985,2.63875083 C8.12861551,2.92070128 7.77158507,3.07813863 7.39962793,3.07173359 C7.0206557,3.06082903 6.66486578,2.88067499 6.42427202,2.57786263 C6.16484857,2.29385913 6.01772314,1.91975486 6.01187321,1.5292325 Z M7.43235799,4.8713182 C6.63810843,4.8713182 6.24752967,5.12840171 6.26062169,5.64256874 L6.26062169,15.6485298 C6.23443764,16.2303504 6.63592643,16.5167504 7.46508805,16.5077299 C8.29424968,16.4987095 8.66737241,16.2123094 8.58445625,15.6485298 L8.58445625,5.6493341 C8.61500431,5.12614659 8.23315356,4.86680796 7.438904,4.8713182 L7.43235799,4.8713182 Z" id="Shape"></path>
                    <path d="M13.4463132,5.62487832 L13.4463132,6.29535742 C14.4558704,5.44722254 15.674058,4.90195195 16.9664148,4.71973153 C18.207267,4.5632864 19.0780404,5.14660322 19.5787351,6.46968199 C20.2905668,5.7715219 21.1418476,5.24073979 22.073501,4.91417047 C22.9293613,4.65304604 23.8437398,4.67651452 24.6858214,4.98121838 C25.5957796,5.2851689 26.0159278,6.2640684 25.9462659,7.91791686 L25.9462659,15.4272828 C25.8330654,15.9457867 25.4368635,16.2050386 24.7576602,16.2050386 C24.0784569,16.2050386 23.7105551,15.9390819 23.6539548,15.4071685 L23.6539548,8.19281329 C23.6278316,6.40486901 22.3216715,6.24618895 19.7354743,7.71677312 L19.7354743,15.4943307 C19.7354743,15.968136 19.3392724,16.2050386 18.5468686,16.2050386 C17.7544648,16.2050386 17.3647937,15.9524915 17.3778553,15.4473972 L17.3778553,8.27997557 C17.3778553,6.49203129 16.0716951,6.26853826 13.4593748,7.60949647 L13.4593748,15.4473972 C13.4332516,15.9524915 13.0435804,16.2050386 12.2903614,16.2050386 C11.5371424,16.2050386 11.156179,15.9457867 11.1474713,15.4272828 L11.1474713,5.66510706 C11.1039326,5.06167587 11.4653036,4.75549041 12.2315842,4.74655069 C12.9978648,4.73761097 13.4027745,5.03038684 13.4463132,5.62487832 Z" id="Shape"></path>
                    <path d="M32.8959886,16.4735427 C31.6283861,16.40914 30.4246583,15.8763601 29.5019079,14.9712946 C28.4303331,13.9183142 27.8385275,12.4429657 27.8732704,10.9111647 C27.770156,9.28892918 28.2663938,7.68689244 29.2608696,6.43148798 C30.1725887,5.25072598 31.5495566,4.56169307 33.006736,4.55706133 C34.3427464,4.46145576 35.6667765,4.87260756 36.7330587,5.71419836 C37.6972121,6.52171309 38.2075185,7.97884861 38.263978,10.0856049 C38.3294243,10.7282756 37.9106365,11.3161256 37.2998245,11.4389816 L30.153363,11.4389816 C30.2071895,12.2435946 30.5946362,12.9843074 31.2152346,13.4690465 C31.8936534,13.9979676 32.7257294,14.2701522 33.5735018,14.2404712 C34.4783532,14.2575128 35.3423554,13.8497986 35.9252544,13.1307024 C36.0684125,12.86948 36.3137962,12.685778 36.5976464,12.6273286 C36.8814965,12.5688792 37.1757893,12.6414529 37.4040573,12.8261926 C38.012082,13.1870931 38.0576839,13.7893457 37.5408629,14.6329504 C37.0587646,15.2573523 36.4461087,15.759519 35.7493616,16.1013641 C34.8377556,16.4487542 33.8619794,16.5760292 32.8959886,16.4735427 Z M31.8905992,6.76926486 C30.9912842,7.11046934 30.4297501,7.93350988 30.2059971,9.23838649 L35.9246082,9.23838649 C35.7998228,7.93350988 35.3221962,7.11046934 34.4917282,6.76926486 C33.6541614,6.42665202 32.728166,6.42665202 31.8905992,6.76926486 Z" id="Shape"></path>
                </g>
            </g>
        </g>
    </g>
</svg>