<?xml version="1.0" encoding="UTF-8"?>
<svg width="29px" height="20px" viewBox="0 0 29 20" version="1.1" xmlns="http://www.w3.org/2000/svg" xmlns:xlink="http://www.w3.org/1999/xlink">
    <!-- Generator: Sketch 48.2 (47327) - http://www.bohemiancoding.com/sketch -->
    <title>Money - FontAwesome</title>
    <desc>Created with Sketch.</desc>
    <defs></defs>
    <g id="Homepage" stroke="none" stroke-width="1" fill="none" fill-rule="evenodd" transform="translate(-351.000000, -3014.000000)">
        <path d="M362.574001,3027.503 L368.361001,3027.503 L368.361001,3026.05625 L366.432001,3026.05625 L366.432001,3019.30475 L364.713985,3019.30475 L362.483579,3021.36938 L363.643993,3022.57501 C364.065964,3022.20327 364.34225,3021.91694 364.47286,3021.716 L364.503001,3021.716 L364.503001,3026.05625 L362.574001,3026.05625 L362.574001,3027.503 Z M369.973524,3021.50502 C370.18451,3022.22839 370.290001,3022.94172 370.290001,3023.645 C370.290001,3024.34829 370.18451,3025.06161 369.973524,3025.78498 C369.762539,3026.50836 369.463647,3027.1815 369.076841,3027.80441 C368.690034,3028.42732 368.18016,3028.93468 367.547204,3029.32651 C366.914248,3029.71834 366.22102,3029.91425 365.467501,3029.91425 C364.713981,3029.91425 364.020754,3029.71834 363.387797,3029.32651 C362.754841,3028.93468 362.244967,3028.42732 361.858161,3027.80441 C361.471354,3027.1815 361.172462,3026.50836 360.961477,3025.78498 C360.750492,3025.06161 360.645,3024.34829 360.645,3023.645 C360.645,3022.94172 360.750492,3022.22839 360.961477,3021.50502 C361.172462,3020.78164 361.471354,3020.1085 361.858161,3019.48559 C362.244967,3018.86268 362.754841,3018.35532 363.387797,3017.96349 C364.020754,3017.57166 364.713981,3017.37575 365.467501,3017.37575 C366.22102,3017.37575 366.914248,3017.57166 367.547204,3017.96349 C368.18016,3018.35532 368.690034,3018.86268 369.076841,3019.48559 C369.463647,3020.1085 369.762539,3020.78164 369.973524,3021.50502 Z M378.006001,3027.503 L378.006001,3019.787 C376.941027,3019.787 376.031794,3019.41025 375.278275,3018.65673 C374.524755,3017.90321 374.148001,3016.99397 374.148001,3015.929 L356.787,3015.929 C356.787,3016.99397 356.410246,3017.90321 355.656727,3018.65673 C354.903207,3019.41025 353.993974,3019.787 352.929,3019.787 L352.929,3027.503 C353.993974,3027.503 354.903207,3027.87975 355.656727,3028.63327 C356.410246,3029.38679 356.787,3030.29603 356.787,3031.361 L374.148001,3031.361 C374.148001,3030.29603 374.524755,3029.38679 375.278275,3028.63327 C376.031794,3027.87975 376.941027,3027.503 378.006001,3027.503 Z M379.935001,3014.9645 L379.935001,3032.3255 C379.935001,3032.58672 379.839557,3032.81277 379.648665,3033.00366 C379.457774,3033.19456 379.231721,3033.29 378.970501,3033.29 L351.9645,3033.29 C351.70328,3033.29 351.477228,3033.19456 351.286336,3033.00366 C351.095444,3032.81277 351,3032.58672 351,3032.3255 L351,3014.9645 C351,3014.70328 351.095444,3014.47723 351.286336,3014.28634 C351.477228,3014.09544 351.70328,3014 351.9645,3014 L378.970501,3014 C379.231721,3014 379.457774,3014.09544 379.648665,3014.28634 C379.839557,3014.47723 379.935001,3014.70328 379.935001,3014.9645 Z" id="Money---FontAwesome" fill="#374D61"></path>
    </g>
</svg>