<?xml version="1.0" encoding="utf-8"?>
<!-- Generator: Adobe Illustrator 16.0.0, SVG Export Plug-In . SVG Version: 6.00 Build 0)  -->
<!DOCTYPE svg PUBLIC "-//W3C//DTD SVG 1.1//EN" "http://www.w3.org/Graphics/SVG/1.1/DTD/svg11.dtd">
<svg version="1.1" id="Layer_1" xmlns="http://www.w3.org/2000/svg" xmlns:xlink="http://www.w3.org/1999/xlink" x="0px" y="0px"
	 width="103px" height="103px" viewBox="0 0 103 103" enable-background="new 0 0 103 103" xml:space="preserve">
<title>bw-multichain</title>
<desc>Created with Sketch.</desc>
<g id="Homepage" transform="translate(-478.000000, -1892.000000)">
	<g id="bw-multichain" transform="translate(479.000000, 1893.000000)">
		<circle id="Oval-Copy-3" fill="none" stroke="#8295A5" stroke-width="0.9" cx="50.5" cy="50.5" r="50.5"/>
	</g>
</g>
<g>
	<path fill-rule="evenodd" clip-rule="evenodd" d="M52.004,21.714c16.915,0.064,30.28,13.795,29.995,30.545
		c-0.279,16.495-13.821,29.707-30.455,29.47C35.534,81.503,21.994,68.608,22,51.709C22.006,34.919,35.507,21.763,52.004,21.714z"/>
	<path fill-rule="evenodd" clip-rule="evenodd" fill="#2FAB65" d="M30.736,53.443c-0.841,0.762-2.158,0.428-2.755-0.196
		c-0.761-0.796-0.828-2.045-0.131-2.884c0.698-0.839,1.874-1.018,2.781-0.422c-0.158,0.187-0.377,0.028-0.583,0.08
		c-0.008,0.993,0.026,1.97-0.013,2.943C30.011,53.58,30.53,53.25,30.736,53.443z"/>
	<path fill-rule="evenodd" clip-rule="evenodd" fill="#0F6FB6" d="M42.837,71.022c0.113,0.842-0.284,1.634-1.024,2.041
		c-0.775,0.426-1.716,0.36-2.365-0.162c-0.705-0.568-0.971-1.395-0.717-2.231c0.06,0.036,0.106,0.086,0.139,0.146
		c0.071,0.232,0.265,0.29,0.468,0.289C40.505,71.094,41.675,71.212,42.837,71.022z"/>
	<path fill-rule="evenodd" clip-rule="evenodd" fill="#A1185A" d="M73.896,49.719c0.867-0.304,1.716-0.039,2.311,0.72
		c0.551,0.704,0.573,1.725,0.056,2.507c-0.475,0.717-1.369,1.068-2.162,0.851c0.328-0.18,0.445-0.455,0.438-0.828
		c-0.018-0.813,0.005-1.628-0.012-2.442c-0.005-0.239,0.07-0.542-0.283-0.638C74.111,49.866,73.983,49.831,73.896,49.719z"/>
	<path fill-rule="evenodd" clip-rule="evenodd" fill="#F7B133" d="M39.459,33.909c-0.915-0.701-1.114-1.905-0.476-2.855
		c0.615-0.914,1.795-1.188,2.781-0.644c-0.557,0.478-0.836,1.143-1.194,1.756C40.222,32.759,39.964,33.413,39.459,33.909z"/>
	<path fill-rule="evenodd" clip-rule="evenodd" fill="#E10613" d="M62.475,30.296c0.96-0.37,1.991-0.07,2.524,0.731
		c0.576,0.869,0.491,1.901-0.223,2.668c-0.529-0.292-0.627-0.887-0.932-1.337C63.383,31.675,63.091,30.878,62.475,30.296z"/>
	<path fill-rule="evenodd" clip-rule="evenodd" fill="#514998" d="M64.406,69.458c0.906,0.573,1.227,1.676,0.773,2.665
		c-0.433,0.947-1.488,1.416-2.488,1.103c0.705-0.897,1.135-1.96,1.74-2.917C64.629,69.997,64.284,69.743,64.406,69.458z"/>
	<path fill-rule="evenodd" clip-rule="evenodd" fill="#68B97E" d="M37.09,50.187c0.407,0,0.818-0.054,1.209,0.113
		c-0.128,0.163-0.311,0.179-0.496,0.185c-0.915,0.04-0.896,0.04-0.924,0.952c-0.019,0.588,0.141,1.196-0.144,1.764
		c-0.428,0.033-0.84,0.301-1.285,0.084c-0.2-1.032-0.243-2.063,0.026-3.09C36.015,50.101,36.553,50.112,37.09,50.187z"/>
	<path fill-rule="evenodd" clip-rule="evenodd" fill="#74BD87" d="M37.787,50.321c0.17-0.007,0.341-0.014,0.513-0.021
		c1.209,0.373,1.506,1.659,0.584,2.542c-0.201,0.099-0.39,0.219-0.604,0.29c-0.195-0.033-0.427,0.114-0.58-0.121
		C37.577,52.109,37.442,51.207,37.787,50.321z"/>
	<path fill-rule="evenodd" clip-rule="evenodd" fill="#4A87BD" d="M42.213,66.861c-0.332-0.594-0.314-1.166,0.116-1.708
		c0.081,0.071,0.103,0.165,0.1,0.269c-0.102,0.652-0.098,0.664,0.573,0.669c0.867,0.005,1.734,0.021,2.599-0.066
		c-0.114,0.345-0.258,0.673-0.482,0.961c-0.147,0.182-0.32,0.338-0.488,0.497l0.007-0.007C43.56,67.952,43.005,67.812,42.213,66.861
		z"/>
	<path fill-rule="evenodd" clip-rule="evenodd" fill="#EBC266" d="M44.002,40.66c-0.284-0.185-0.458-0.453-0.587-0.757
		c-0.174-0.247-0.234-0.486-0.04-0.767c0.423-0.607,0.752-1.271,1.137-1.9c0.136-0.22,0.251-0.512,0.54-0.51
		c0.326,0,0.306,0.367,0.441,0.568c0.04,0.062,0.032,0.156,0.124,0.186c0.126,0.138,0.205,0.299,0.239,0.483
		c-0.28,0.127-0.468,0.337-0.626,0.602C44.815,39.259,44.485,40.004,44.002,40.66z"/>
	<path fill-rule="evenodd" clip-rule="evenodd" fill="#EDC061" d="M45.617,37.479c-0.036-0.018-0.083-0.027-0.104-0.056
		c-0.494-0.698-0.496-0.7-0.942,0.031c-0.374,0.611-0.715,1.245-1.122,1.833c-0.163,0.236-0.032,0.413-0.036,0.616
		c-0.209-0.203-0.377-0.434-0.483-0.708c-0.165-0.267-0.245-0.53-0.04-0.822c0.442-0.63,0.76-1.334,1.156-1.993
		c0.161-0.266,0.326-0.513,0.697-0.33C45.25,36.396,45.409,36.952,45.617,37.479z"/>
	<path fill-rule="evenodd" clip-rule="evenodd" fill="#E9C56E" d="M44.002,40.66c0.29-0.994,0.939-1.798,1.426-2.689
		c0.102-0.189,0.283-0.029,0.428-0.009c0.031,0.074,0.061,0.147,0.09,0.222c0.308,0.537,0.234,1.01-0.145,1.506
		c-0.307,0.403-0.485,0.9-0.817,1.297C44.603,41.044,44.272,40.942,44.002,40.66z"/>
	<path fill-rule="evenodd" clip-rule="evenodd" fill="#8EC698" d="M46.087,52.611c-1.196,0.102-2.393,0.209-3.591,0.299
		c-0.128,0.01-0.263-0.071-0.394-0.111c-0.61-0.351-0.78-0.877-0.613-1.539l-0.008,0.008c0.493-0.752,1.225-0.718,1.981-0.606
		c0.559-0.001,1.118-0.027,1.667,0.12c-0.121,0.162-0.303,0.163-0.479,0.181c-0.167,0.014-0.334,0.007-0.501,0.001
		c-0.06,0.002-0.118,0.004-0.177,0.004c-0.938-0.003-1.208,0.355-0.972,1.269c0.056,0.212,0.182,0.286,0.378,0.3
		c0.278,0.021,0.547-0.045,0.819-0.092c0.573-0.043,1.146-0.06,1.717,0.031C45.987,52.504,46.044,52.55,46.087,52.611z"/>
	<path fill-rule="evenodd" clip-rule="evenodd" fill="#E0CD87" d="M46.758,44.809c-0.684-0.698-0.827-1.192-0.523-1.821
		c0.737-0.737,1.312-0.674,1.874-0.231l-0.005-0.004c0.124,0.205,0.119,0.409,0.003,0.616c-0.243,0.43-0.491,0.856-0.748,1.276
		C47.228,44.857,47.053,45.109,46.758,44.809z"/>
	<path fill-rule="evenodd" clip-rule="evenodd" fill="#F4B543" d="M42.601,31.249c0.682,1.239,0.06,2.7-1.287,3.02
		c-0.609,0.063-0.701-0.023-0.44-0.512c0.393-0.738,0.761-1.492,1.219-2.193C42.207,31.388,42.318,31.167,42.601,31.249z"/>
	<path fill-rule="evenodd" clip-rule="evenodd" fill="#35AC68" d="M30.736,53.443c-0.862,0.232-0.862,0.232-0.862-0.713
		c0-0.718,0-1.436,0-2.154c0-0.786,0-0.786,0.758-0.635c0.086,0.014,0.163,0.042,0.173,0.146c-0.005,1.022-0.093,2.042-0.026,3.023
		c0.094-0.071,0.213-0.249,0.441-0.151C31.134,53.195,30.978,53.363,30.736,53.443z"/>
	<path fill-rule="evenodd" clip-rule="evenodd" fill="#5F5EA2" d="M61.356,72.155c-0.688-1.492,0.251-3.037,1.843-3.03
		c0.166,0.233,0.011,0.42-0.099,0.603c-0.399,0.668-0.779,1.347-1.169,2.021C61.807,71.964,61.694,72.229,61.356,72.155z"/>
	<path fill-rule="evenodd" clip-rule="evenodd" fill="#58B377" d="M35.511,53.309c0.404,0.021,0.787-0.184,1.198-0.116
		c0.25-0.206,0.541-0.177,0.833-0.153c0.163,0.075,0.353,0.065,0.505,0.167c-0.941,0.148-1.89,0.248-2.84,0.209
		c-0.854-0.036-1.52-0.844-1.504-1.711c0.017-0.895,0.681-1.629,1.559-1.646c0.609-0.012,1.229-0.048,1.83,0.129
		c-0.527,0.004-1.054,0.008-1.581,0.012c-0.611,0.157-0.79,0.559-0.688,1.153c0.042,0.232,0.04,0.483,0,0.716
		C34.722,52.675,34.898,53.107,35.511,53.309z"/>
	<path fill-rule="evenodd" clip-rule="evenodd" fill="#518BBE" d="M45.601,66.024c-0.281,0.226-0.606,0.247-0.952,0.24
		c-0.615-0.015-1.231-0.003-1.846-0.004c-0.826-0.001-0.856-0.059-0.462-0.84c0.842-0.127,1.69-0.015,2.535-0.048
		c0.34-0.013,0.679-0.006,0.889-0.342c0.101-0.167,0.202-0.332,0.268-0.517c0.055-0.139,0.107-0.28,0.154-0.425
		c0.016-0.046,0.037-0.09,0.063-0.131c0.046-0.06,0.103-0.104,0.18-0.115C46.503,64.704,45.919,65.314,45.601,66.024z"/>
	<path fill-rule="evenodd" clip-rule="evenodd" fill="#7A84B2" d="M58.633,66.503c-0.374-0.652-0.727-1.316-0.973-2.032
		c0.044-0.037,0.094-0.05,0.151-0.036c0.095,0.064,0.149,0.161,0.203,0.259c0.131,0.27,0.268,0.536,0.404,0.803
		c0.101,0.166,0.142,0.368,0.367,0.568c0.484-1.033,1.403-1.817,1.421-3.052c0.227,0.188,0.374,0.434,0.484,0.704
		c0.188,0.307,0.265,0.611,0.055,0.949c-0.46,0.747-0.886,1.512-1.328,2.268c-0.061,0.104-0.139,0.194-0.264,0.228
		c-0.063,0.006-0.122-0.007-0.177-0.04l0.007,0.002C58.884,66.906,58.796,66.685,58.633,66.503z"/>
	<path fill-rule="evenodd" clip-rule="evenodd" fill="#F6B43D" d="M42.601,31.249c-0.407,0.176-0.493,0.607-0.703,0.928
		c-0.332,0.512-0.576,1.082-0.886,1.609c-0.237,0.399-0.108,0.516,0.302,0.482c-0.378,0.17-0.757,0.175-1.134-0.004
		c-0.241-0.162-0.19-0.396-0.085-0.58c0.568-0.992,1.124-1.993,1.764-2.943c0.056-0.081,0.144-0.136,0.255-0.089
		C42.351,30.791,42.528,30.976,42.601,31.249z"/>
	<path fill-rule="evenodd" clip-rule="evenodd" fill="#84ADC5" d="M49.042,58.828c-0.066,0.36-0.241,0.671-0.453,0.963
		c-0.138,0.188-0.327,0.278-0.555,0.289c-0.493,0.023-0.986,0.045-1.476-0.013c-0.22-0.025-0.515-0.045-0.389-0.421
		c0.093-0.486,0.432-0.824,0.722-1.192c0.396,0.205,0.824,0.205,1.256,0.205C48.453,58.659,48.777,58.598,49.042,58.828z"/>
	<path fill-rule="evenodd" clip-rule="evenodd" fill="#554E9A" d="M64.406,69.458c0.399,0.395,0.277,0.775,0.017,1.197
		c-0.455,0.741-0.886,1.499-1.295,2.265c-0.108,0.207-0.212,0.315-0.437,0.306c-0.23,0.004-0.425-0.077-0.582-0.249
		c0.701-0.984,1.143-2.117,1.792-3.132c0.106-0.169,0.211-0.331,0.375-0.447C64.319,69.416,64.362,69.438,64.406,69.458z"/>
	<path fill-rule="evenodd" clip-rule="evenodd" fill="#F7B237" d="M42.113,30.652c-0.73,0.925-1.188,2.02-1.851,2.988
		c-0.118,0.171-0.194,0.398-0.082,0.624c-0.292-0.011-0.529-0.137-0.721-0.355c0.539-1.143,1.224-2.204,1.836-3.306
		c0.103-0.186,0.289-0.185,0.469-0.193C41.918,30.436,42.042,30.508,42.113,30.652z"/>
	<path fill-rule="evenodd" clip-rule="evenodd" fill="#A84D70" d="M66.894,50.185c0.686-0.162,1.385-0.182,2.073-0.1
		c0.786,0.093,1.321,0.825,1.313,1.678c-0.008,0.829-0.62,1.56-1.435,1.651c-0.408,0.046-0.833,0.067-1.235-0.087
		c0.089-0.121,0.221-0.148,0.356-0.167c0.129-0.015,0.259-0.012,0.388-0.011c0.709-0.065,0.781-0.138,0.794-0.816
		c0.006-0.376-0.002-0.753,0.003-1.129c0.011-0.811,0.012-0.811-0.81-0.84c-0.194,0.007-0.389,0.006-0.582,0
		c-0.237,0-0.475,0.016-0.707-0.053C66.986,50.284,66.933,50.243,66.894,50.185z"/>
	<path fill-rule="evenodd" clip-rule="evenodd" fill="#B3CCC3" d="M53.605,56.072c-0.225-0.441-0.474-0.874-0.671-1.329
		c-0.152-0.352-0.15-0.727,0.235-0.944c0.353-0.199,0.691-0.162,0.923,0.224c0.06,0.103,0.114,0.21,0.175,0.312
		c0.508,0.843,0.491,0.99-0.145,1.728C53.942,56.271,53.784,56.335,53.605,56.072z"/>
	<path fill-rule="evenodd" clip-rule="evenodd" fill="#AE6F82" d="M65.113,52.837c-0.758-0.702-0.72-1.667,0.091-2.292
		c0.635-0.27,0.791-0.194,0.805,0.467c0.012,0.648,0.082,1.301-0.061,1.945c-0.047,0.101-0.117,0.17-0.234,0.172
		C65.495,53.07,65.307,52.949,65.113,52.837z"/>
	<path fill-rule="evenodd" clip-rule="evenodd" fill="#7E8AB4" d="M60.207,63.013c0.316,0.481,0.068,0.87-0.201,1.262
		c-0.076,0.11-0.103,0.256-0.174,0.37c-0.35,0.564-0.708,1.125-1.111,1.763c-0.172-0.347-0.305-0.606-0.435-0.867
		c0.197-0.589,0.569-1.084,0.866-1.619c0.23-0.414,0.466-0.821,0.576-1.287C59.951,62.681,60.112,62.803,60.207,63.013z"/>
	<path fill-rule="evenodd" clip-rule="evenodd" fill="#3BAB69" d="M31.22,52.959c-0.147,0.094-0.293,0.186-0.53,0.336
		c-0.133-1.121-0.214-2.167,0.115-3.208C31.782,50.916,31.942,52.024,31.22,52.959z"/>
	<path fill-rule="evenodd" clip-rule="evenodd" fill="#A3C4C5" d="M49.759,54.231c0.315-0.532,0.71-0.702,1.08-0.421
		c0.423,0.324,0.433,0.702,0.078,1.111c-0.134,0.157-0.209,0.365-0.312,0.55c-0.489,0.229-0.988,0.257-1.5,0.082
		c-0.141-0.108-0.063-0.213,0.01-0.315C49.326,54.9,49.579,54.59,49.759,54.231z"/>
	<path fill-rule="evenodd" clip-rule="evenodd" fill="#A3255F" d="M73.896,49.719c0.109,0.001,0.221,0.001,0.33,0.002
		c0.114,0.122,0.171,0.27,0.176,0.432c0.033,1.03,0.039,2.06-0.002,3.088c-0.017,0.448-0.268,0.585-0.684,0.444
		c-0.079-0.037-0.159-0.074-0.238-0.11c-0.076-0.952-0.008-1.906-0.033-2.858c-0.008-0.258-0.011-0.517-0.069-0.77
		C73.492,49.739,73.771,49.903,73.896,49.719z"/>
	<path fill-rule="evenodd" clip-rule="evenodd" fill="#ABD2AF" d="M49.283,51.16c0.509,0.463,0.474,0.839-0.112,1.195
		c-0.516,0.113-1.035,0.063-1.553,0.026c-0.279-0.416-0.214-0.853-0.075-1.293c0.071-0.109,0.178-0.11,0.291-0.096
		C48.304,51.149,48.809,51.03,49.283,51.16z"/>
	<path fill-rule="evenodd" clip-rule="evenodd" fill="#D99668" d="M57.813,43.866c-0.133,0.357-0.276,0.708-0.607,0.936
		c-0.338-0.265-0.521-0.642-0.717-1.006c-0.181-0.338-0.389-0.64-0.755-0.798c0.061-0.258,0.22-0.418,0.475-0.486
		C57.175,42.198,57.785,42.672,57.813,43.866z"/>
	<path fill-rule="evenodd" clip-rule="evenodd" fill="#DB7A4D" d="M59.363,40.96c-0.6,0.155-1.106-0.018-1.485-0.488
		c-0.374-0.462-0.478-0.986-0.188-1.542c0.338-0.5,0.408-0.507,0.695,0.005c0.281,0.502,0.633,0.963,0.879,1.485
		C59.345,40.59,59.521,40.746,59.363,40.96z"/>
	<path fill-rule="evenodd" clip-rule="evenodd" fill="#EEBC57" d="M42.69,38.835c-0.371-0.396-0.666-0.828-0.685-1.398
		c-0.042-1.257,1.06-2.046,2.29-1.64c-0.5,0.16-0.718,0.587-0.95,1.002c-0.137,0.244-0.245,0.506-0.415,0.728
		c-0.242,0.318-0.414,0.635-0.175,1.036C42.803,38.646,42.772,38.759,42.69,38.835z"/>
	<path fill-rule="evenodd" clip-rule="evenodd" fill="#58539D" d="M64.276,69.397c-0.58,1.068-1.153,2.141-1.748,3.202
		c-0.088,0.156-0.17,0.373-0.419,0.377c-0.229-0.095-0.421-0.229-0.516-0.473c0.201-0.1,0.332-0.257,0.443-0.457
		c0.544-0.969,1.115-1.922,1.643-2.901C63.938,69.091,64.051,69.378,64.276,69.397z"/>
	<path fill-rule="evenodd" clip-rule="evenodd" fill="#EEBF5C" d="M42.69,38.835c-0.426-0.621-0.129-1.114,0.256-1.618
		c0.214-0.28,0.396-0.599,0.523-0.927c0.157-0.407,0.43-0.528,0.825-0.493c0.19,0.014,0.34,0.098,0.451,0.252
		c-0.282-0.03-0.418,0.127-0.552,0.357c-0.395,0.687-0.704,1.426-1.195,2.055c-0.189,0.242-0.098,0.484-0.066,0.733
		C42.803,39.107,42.722,38.988,42.69,38.835z"/>
	<path fill-rule="evenodd" clip-rule="evenodd" fill="#D5D6A4" d="M49.874,49.417c-0.118-0.098-0.203-0.218-0.238-0.37
		c-0.025-0.145-0.132-0.241-0.209-0.355c-0.412-0.611-0.215-1.474,0.425-1.867c0.09-0.056,0.187-0.06,0.273,0.016
		c0.295,0.45,0.508,0.941,0.708,1.439C50.503,48.65,50.337,49.158,49.874,49.417z"/>
	<path fill-rule="evenodd" clip-rule="evenodd" fill="#7076AB" d="M61.419,64.78c0.123,0.089,0.209,0.204,0.237,0.356
		c0.456,0.744,0.317,1.442-0.215,2.069c-0.418,0.489-0.975,0.652-1.61,0.497c-0.106,0.005-0.205-0.008-0.272-0.104
		c0.927-0.617,1.234-1.655,1.736-2.56C61.34,64.957,61.328,64.843,61.419,64.78z"/>
	<path fill-rule="evenodd" clip-rule="evenodd" fill="#8390B6" d="M59.729,62.634c0.031,0.133,0.132,0.309,0.081,0.391
		c-0.516,0.834-0.866,1.769-1.523,2.516c-0.118-0.281-0.32-0.524-0.362-0.838c0.239-0.521,0.527-1.019,0.864-1.482
		c0.233-0.32,0.165-0.522-0.166-0.685C59.01,62.355,59.379,62.392,59.729,62.634z"/>
	<path fill-rule="evenodd" clip-rule="evenodd" fill="#578EC0" d="M45.937,64.941c-0.057,0.457-0.307,0.644-0.77,0.604
		c-0.939-0.082-1.895,0.141-2.827-0.125c-0.003-0.089-0.008-0.179-0.012-0.268c0.112-0.27,0.259-0.517,0.485-0.709
		c0.206,0.247,0.469,0.333,0.788,0.327c0.556-0.011,1.111-0.01,1.667,0.001C45.5,64.775,45.749,64.747,45.937,64.941z"/>
	<path fill-rule="evenodd" clip-rule="evenodd" fill="#DDCF90" d="M48.567,43.603c0.19,0.25,0.319,0.53,0.395,0.834
		c-0.051,0.091-0.162-0.05-0.199,0.042c-0.268,0.661-0.668,1.257-0.925,1.922c-0.305-0.313-0.513-0.692-0.723-1.069
		c0.151-0.689,0.595-1.224,0.977-1.786C48.225,43.349,48.433,43.369,48.567,43.603z"/>
	<path fill-rule="evenodd" clip-rule="evenodd" fill="#DE5532" d="M59.698,35.803c0.589-0.296,1.101-0.111,1.582,0.252
		c0.157,0.083,0.257,0.228,0.382,0.346l-0.007-0.007c0.316,0.559,0.383,1.135,0.12,1.734c-0.063,0.229-0.179,0.424-0.372,0.567
		c-0.118-0.92-0.702-1.621-1.12-2.401C60.148,36.042,59.869,35.995,59.698,35.803z"/>
	<path fill-rule="evenodd" clip-rule="evenodd" fill="#A5BBC1" d="M55.113,59.211c-0.199-0.403-0.397-0.807-0.596-1.208
		c0.269-0.119,0.407-0.354,0.562-0.589c0.204-0.306,0.295-0.71,0.688-0.867c0.271,0.146,0.376,0.416,0.496,0.673
		C56.368,57.884,55.667,59.096,55.113,59.211z"/>
	<path fill-rule="evenodd" clip-rule="evenodd" fill="#747CAE" d="M61.419,64.78c0.07,0.297,0.017,0.526-0.186,0.797
		c-0.363,0.487-0.657,1.032-0.925,1.58c-0.167,0.344-0.404,0.456-0.75,0.441c-0.263-0.075-0.474-0.214-0.581-0.478
		c0.049-0.008,0.097-0.015,0.146-0.021c0.291,0.126,0.398-0.108,0.513-0.282c0.414-0.637,0.753-1.317,1.17-1.952
		c0.173-0.262-0.056-0.557,0.13-0.797C61.144,64.273,61.31,64.509,61.419,64.78z"/>
	<path fill-rule="evenodd" clip-rule="evenodd" fill="#2677B9" d="M42.109,69.602c0.294,0.104,0.327,0.403,0.466,0.625
		c-0.037,0.274-0.266,0.274-0.451,0.281c-0.895,0.036-1.79,0.043-2.685-0.004c-0.229-0.011-0.568,0.002-0.461-0.42
		c0.096-0.242,0.237-0.444,0.488-0.549C40.346,69.611,41.23,69.509,42.109,69.602z"/>
	<path fill-rule="evenodd" clip-rule="evenodd" fill="#DE6B40" d="M58.363,37.478c0.117-0.243,0.235-0.485,0.353-0.729
		c0.269-0.081,0.342,0.149,0.444,0.296c0.485,0.699,0.875,1.455,1.302,2.188c0.179,0.307,0.156,0.594-0.023,0.885
		c-0.072,0.192-0.168,0.369-0.36,0.47C59.676,39.458,59.063,38.443,58.363,37.478z"/>
	<path fill-rule="evenodd" clip-rule="evenodd" fill="#5B589F" d="M63.68,69.146c0.083,0.388-0.182,0.678-0.345,0.956
		c-0.429,0.73-0.868,1.454-1.253,2.212c-0.106,0.21-0.267,0.279-0.488,0.19c-0.13-0.082-0.196-0.207-0.237-0.349
		c0.456-0.191,0.535-0.665,0.74-1.03c0.373-0.662,0.861-1.264,1.103-2C63.359,69.132,63.521,69.139,63.68,69.146z"/>
	<path fill-rule="evenodd" clip-rule="evenodd" fill="#DF3420" d="M62.687,34.267c-1.242-0.291-1.872-1.533-1.403-2.769
		c0.17-0.058,0.273,0.051,0.34,0.17c0.452,0.797,0.948,1.569,1.348,2.395c0.036,0.076,0.028,0.154-0.021,0.225
		C62.86,34.317,62.772,34.311,62.687,34.267z"/>
	<path fill-rule="evenodd" clip-rule="evenodd" fill="#D89D6F" d="M55.734,42.998c0.205-0.103,0.342-0.066,0.485,0.14
		c0.371,0.531,0.704,1.081,0.986,1.664c-0.199,0.392-0.379,0.796-0.712,1.102c0.009-0.854-0.674-1.425-0.9-2.183
		c-0.072,0.033-0.146,0.05-0.219-0.004C55.439,43.449,55.559,43.209,55.734,42.998z"/>
	<path fill-rule="evenodd" clip-rule="evenodd" fill="#7CA6C3" d="M46.169,59.646c0.026,0.119,0.064,0.25,0.207,0.245
		c0.739-0.021,1.484,0.133,2.213-0.101c-0.047,0.274-0.171,0.512-0.346,0.724c-0.122,0.13-0.255,0.247-0.372,0.381l0.008-0.008
		c-0.423,0.207-0.847,0.19-1.27-0.004C46.199,60.564,45.958,60.187,46.169,59.646z"/>
	<path fill-rule="evenodd" clip-rule="evenodd" fill="#8CB2C5" d="M49.042,58.828c-0.552,0-1.105-0.005-1.658,0.002
		c-0.269,0.003-0.469-0.066-0.494-0.376c0.145-0.325,0.352-0.611,0.586-0.875c0.34,0.195,0.707,0.247,1.095,0.24
		c0.292-0.006,0.604-0.057,0.855,0.17C49.469,58.347,49.138,58.533,49.042,58.828z"/>
	<path fill-rule="evenodd" clip-rule="evenodd" fill="#A1205C" d="M73.717,53.686c0.373,0.033,0.527-0.106,0.52-0.508
		c-0.024-1.152-0.01-2.305-0.01-3.457c0.354-0.049,0.494,0.087,0.486,0.461c-0.02,1.011-0.033,2.024,0.006,3.035
		c0.019,0.498-0.178,0.635-0.618,0.58C73.959,53.809,73.822,53.802,73.717,53.686z"/>
	<path fill-rule="evenodd" clip-rule="evenodd" fill="#A32B61" d="M73.376,49.947c0.157,0.028,0.25,0.11,0.25,0.279
		c-0.005,1.053-0.006,2.107-0.019,3.16c-0.001,0.063-0.084,0.126-0.129,0.189c-0.149-0.021-0.261-0.099-0.338-0.226
		c-0.231-0.248-0.293-0.549-0.293-0.875c0-0.474,0.018-0.948-0.005-1.422c-0.023-0.479,0.139-0.847,0.541-1.106L73.376,49.947z"/>
	<path fill-rule="evenodd" clip-rule="evenodd" fill="#1771B6" d="M42.837,71.022c-0.035,0.269-0.229,0.274-0.439,0.273
		c-1.064-0.003-2.13-0.013-3.195,0.006c-0.374,0.006-0.508-0.135-0.449-0.488c0.228-0.205,0.514-0.177,0.787-0.18
		c0.75-0.007,1.499-0.002,2.25-0.002c0.317,0,0.63-0.023,0.915-0.188C42.862,70.61,42.843,70.817,42.837,71.022z"/>
	<path fill-rule="evenodd" clip-rule="evenodd" fill="#DE613A" d="M58.845,36.524c0.08-0.327,0.367-0.444,0.609-0.607
		c0.237-0.069,0.323,0.124,0.399,0.266c0.393,0.733,0.854,1.426,1.279,2.139c0.204,0.338,0.053,0.603-0.077,0.89
		c-0.029,0.151-0.116,0.263-0.241,0.348c-0.419-0.943-1.057-1.762-1.504-2.688C59.212,36.668,58.998,36.643,58.845,36.524z"/>
	<path fill-rule="evenodd" clip-rule="evenodd" fill="#DE5B35" d="M61.056,39.211c0.26-0.538-0.127-0.89-0.368-1.283
		c-0.412-0.671-0.823-1.341-1.233-2.012c0.057-0.091,0.146-0.114,0.244-0.114c0.363-0.04,0.575,0.12,0.739,0.452
		c0.252,0.514,0.554,1.003,0.855,1.491c0.188,0.307,0.246,0.612,0.11,0.949C61.333,38.898,61.223,39.074,61.056,39.211z"/>
	<path fill-rule="evenodd" clip-rule="evenodd" fill="#DBD194" d="M47.838,46.401c0.019-0.789,0.527-1.359,0.904-1.985
		c0.018-0.027,0.144,0.012,0.22,0.021c0.225,0.286,0.359,0.618,0.466,0.961c-0.474,0.506-0.807,1.105-1.111,1.721
		C48.12,46.905,47.945,46.676,47.838,46.401z"/>
	<path fill-rule="evenodd" clip-rule="evenodd" fill="#1E75B8" d="M42.706,70.444c0.026,0.395-0.244,0.373-0.513,0.373
		c-1.146-0.005-2.292-0.002-3.438-0.004c-0.007-0.049-0.015-0.096-0.023-0.144c-0.003-0.232,0.075-0.428,0.248-0.586
		c0.022,0.16,0.107,0.251,0.276,0.249c1.059-0.003,2.115-0.006,3.172-0.015c0.051-0.002,0.1-0.06,0.148-0.092
		C42.7,70.251,42.704,70.347,42.706,70.444z"/>
	<path fill-rule="evenodd" clip-rule="evenodd" fill="#AAC1C2" d="M55.768,56.547c-0.234,0.388-0.479,0.771-0.699,1.165
		c-0.127,0.227-0.256,0.405-0.551,0.291c-0.157-0.321-0.314-0.643-0.47-0.963c0.672-0.41,0.879-0.907,0.699-1.688
		c-0.023-0.102-0.017-0.193,0.07-0.263C55.23,55.512,55.495,56.033,55.768,56.547z"/>
	<path fill-rule="evenodd" clip-rule="evenodd" fill="#BBB0A9" d="M56.328,52.489c-0.482-0.005-0.97,0.042-1.44-0.115
		c0.088-0.132,0.227-0.157,0.368-0.178c0.168-0.02,0.338-0.013,0.507-0.009c0.394,0.026,0.561-0.158,0.563-0.553
		c0-0.237-0.056-0.522,0.249-0.656c0.081,0,0.159,0,0.237,0c1.085-0.003,1.341,0.421,0.902,1.5
		C57.252,52.57,56.791,52.557,56.328,52.489z"/>
	<path fill-rule="evenodd" clip-rule="evenodd" fill="#DD7045" d="M58.363,37.478c0.648,0.154,0.688,0.809,0.968,1.246
		c0.218,0.342,0.374,0.752,0.628,1.063c0.232,0.282,0.238,0.511,0.119,0.802c-0.051,0.093-0.113,0.168-0.235,0.137
		c-0.468-0.605-0.895-1.236-1.224-1.929c-0.146-0.31-0.336-0.502-0.704-0.348C58.018,38.103,58.172,37.782,58.363,37.478z"/>
	<path fill-rule="evenodd" clip-rule="evenodd" fill="#E21016" d="M62.475,30.296c0.321-0.042,0.442,0.173,0.577,0.414
		c0.566,1,1.149,1.991,1.725,2.985c-0.087,0.153-0.208,0.264-0.38,0.316c-0.548-0.435-0.75-1.111-1.13-1.663
		c-0.346-0.503-0.634-1.062-0.881-1.63c-0.055-0.126-0.142-0.249-0.025-0.387C62.398,30.319,62.437,30.308,62.475,30.296z"/>
	<path fill-rule="evenodd" clip-rule="evenodd" fill="#A0CEA6" d="M47.857,51.047c-0.08-0.003-0.16-0.006-0.24-0.008
		c-0.75,0.095-1.029,0.543-0.96,1.263c0.007,0.074-0.057,0.143-0.115,0.199c-0.213,0.063-0.432,0.02-0.647,0.032
		c-0.433,0.064-0.614-0.152-0.613-0.556c0.001-0.364-0.087-0.742,0.155-1.072c0.421-0.079,0.842-0.067,1.264-0.004
		c0.559,0,1.121-0.02,1.67,0.118C48.207,51.145,48.033,51.107,47.857,51.047z"/>
	<path fill-rule="evenodd" clip-rule="evenodd" fill="#8694B6" d="M58.622,62.535c0.682,0.032,0.747,0.102,0.354,0.63
		c-0.373,0.499-0.518,1.153-1.052,1.537c-0.096-0.052-0.116-0.141-0.12-0.24c-0.356-0.44-0.157-0.882-0.002-1.323
		C57.971,62.794,58.234,62.581,58.622,62.535z"/>
	<path fill-rule="evenodd" clip-rule="evenodd" fill="#AEC5C2" d="M54.817,55.089c0.448,0.689,0.118,1.249-0.282,1.815
		c-0.149,0.215-0.29,0.218-0.487,0.136c-0.147-0.322-0.295-0.646-0.442-0.968c0.123,0.034,0.251,0.17,0.362-0.016
		c0.061-0.103,0.095-0.229,0.175-0.31c0.45-0.451,0.549-0.901,0.057-1.393c-0.073-0.073-0.073-0.22-0.106-0.332
		C54.396,54.337,54.633,54.693,54.817,55.089z"/>
	<path fill-rule="evenodd" clip-rule="evenodd" fill="#6798C0" d="M43.773,63.01c0.728-0.785,1.72-0.782,2.284,0.005
		c0.144,0.301,0.003,0.474-0.282,0.514c-0.554,0.079-1.116,0.09-1.669-0.012C43.859,63.472,43.648,63.332,43.773,63.01z"/>
	<path fill-rule="evenodd" clip-rule="evenodd" fill="#98ABBD" d="M57.324,58.83c0.357,0.143,0.306,0.542,0.496,0.788
		c0.049,0.209,0.088,0.416-0.018,0.62c-0.038,0.09-0.077,0.179-0.115,0.268c-0.48,0.577-0.894,0.673-1.597,0.374
		c-0.044-0.039-0.089-0.077-0.132-0.115C56.588,60.242,56.813,59.435,57.324,58.83z"/>
	<path fill-rule="evenodd" clip-rule="evenodd" fill="#6396C2" d="M43.773,63.01c0.008,0.038,0.002,0.086,0.024,0.114
		c0.216,0.299,1.981,0.397,2.224,0.117c0.043-0.049,0.025-0.15,0.036-0.227c0.191,0.043,0.139,0.19,0.133,0.316
		c0.146,0.199,0.243,0.407,0.107,0.652h-0.001c-0.862,0.352-1.745,0.213-2.619,0.083c-0.226-0.033-0.382-0.217-0.275-0.491
		C43.476,63.354,43.612,63.173,43.773,63.01z"/>
	<path fill-rule="evenodd" clip-rule="evenodd" fill="#DE663D" d="M58.845,36.524c0.218-0.087,0.388-0.117,0.535,0.15
		c0.446,0.804,0.906,1.601,1.392,2.381c0.116,0.188,0.011,0.339,0.043,0.504c-0.071,0.222-0.2,0.407-0.376,0.559
		c0.179-0.619-0.251-1.032-0.512-1.5c-0.361-0.65-0.683-1.326-1.211-1.869C58.759,36.674,58.802,36.599,58.845,36.524z"/>
	<path fill-rule="evenodd" clip-rule="evenodd" fill="#5A90C0" d="M45.937,64.941c-0.911,0-1.822-0.014-2.733,0.008
		c-0.403,0.009-0.476-0.169-0.39-0.505c0.106-0.274,0.259-0.518,0.483-0.712c0.048,0.475,0.321,0.603,0.772,0.567
		c0.495-0.038,0.995-0.015,1.492-0.005c0.219,0.003,0.444-0.005,0.616,0.167C46.157,64.652,46.092,64.82,45.937,64.941z"/>
	<path fill-rule="evenodd" clip-rule="evenodd" fill="#AE6A80" d="M65.836,53.072c0-0.657-0.029-1.316,0.01-1.972
		c0.032-0.519-0.087-0.763-0.642-0.556c0.123-0.159,0.288-0.234,0.488-0.24c0.262-0.065,0.522-0.09,0.781,0.017
		c0.247,0.912,0.226,1.824,0.016,2.739C66.275,53.25,66.057,53.19,65.836,53.072z"/>
	<path fill-rule="evenodd" clip-rule="evenodd" fill="#E4C472" d="M44.984,40.987c0.055-0.518,0.413-0.892,0.657-1.309
		c0.282-0.481,0.568-0.919,0.306-1.495c0.235,0.301,0.396,0.638,0.477,1.008C46.639,40.157,46.005,40.941,44.984,40.987z"/>
	<path fill-rule="evenodd" clip-rule="evenodd" fill="#DD7549" d="M57.915,38.448c0.225-0.236,0.489-0.375,0.661,0.008
		c0.355,0.796,0.995,1.429,1.267,2.269c-0.146,0.106-0.261,0.278-0.479,0.235c-0.297-0.78-0.833-1.427-1.217-2.161
		c-0.226-0.431-0.269,0.193-0.457,0.13C57.706,38.742,57.777,38.579,57.915,38.448z"/>
	<path fill-rule="evenodd" clip-rule="evenodd" fill="#E11918" d="M62.36,30.331c0.557,1.294,1.411,2.424,2.036,3.68
		c-0.123,0.15-0.285,0.221-0.477,0.233c-0.659-1.209-1.359-2.395-2.045-3.589C61.988,30.474,62.161,30.383,62.36,30.331z"/>
	<path fill-rule="evenodd" clip-rule="evenodd" fill="#D7A476" d="M55.375,43.717c0.107-0.012,0.212-0.09,0.303,0.062
		c0.28,0.467,0.577,0.925,0.866,1.388c0.16,0.256-0.056,0.49-0.05,0.737c-0.035,0.148-0.108,0.273-0.24,0.357
		c-0.454-0.354-0.56-0.924-0.858-1.375c-0.11-0.168-0.14-0.409-0.393-0.454C55.127,44.193,55.252,43.955,55.375,43.717z"/>
	<path fill-rule="evenodd" clip-rule="evenodd" fill="#B8A3A2" d="M56.328,52.489c0.452-0.005,0.903-0.011,1.355-0.015
		c0.458-0.174,0.605-0.512,0.558-0.981c-0.02-0.212-0.014-0.442,0.169-0.61c0.213-0.043,0.433-0.016,0.646-0.058
		c0.272,0.041,0.34,0.251,0.349,0.47c0.018,0.441,0.122,0.896-0.139,1.309c-0.458,0.079-0.914,0.076-1.373,0.003
		C57.37,52.601,56.842,52.643,56.328,52.489z"/>
	<path fill-rule="evenodd" clip-rule="evenodd" fill="#A12F61" d="M73.384,49.946c-0.301,0.325-0.401,0.703-0.36,1.146
		c0.069,0.75-0.11,1.514,0.117,2.258C71.963,52.402,72.088,50.651,73.384,49.946z"/>
	<path fill-rule="evenodd" clip-rule="evenodd" fill="#A1B6C0" d="M55.113,59.211c0.652-0.508,0.866-1.269,1.15-1.991
		c0.17,0.134,0.288,0.301,0.351,0.507c0.101,0.174,0.195,0.359,0.099,0.556c-0.258,0.529-0.601,1.009-0.897,1.516
		c-0.118,0.2-0.294,0.142-0.442,0.001C55.214,59.635,55.189,59.411,55.113,59.211z"/>
	<path fill-rule="evenodd" clip-rule="evenodd" fill="#5E93C1" d="M46.176,64.462c-0.775,0-1.552,0-2.329,0
		c-0.768,0-0.768-0.001-0.551-0.729c0.036-0.053,0.07-0.105,0.106-0.157c0.074,0.398,0.382,0.405,0.687,0.406
		c0.736,0.004,1.471,0.002,2.208,0.002C46.316,64.158,46.258,64.313,46.176,64.462z"/>
	<path fill-rule="evenodd" clip-rule="evenodd" fill="#91B6C5" d="M49.428,57.989c-0.474,0-0.947-0.008-1.42,0.003
		c-0.3,0.006-0.502-0.084-0.53-0.413c0.167-0.233,0.251-0.523,0.483-0.714c0.302,0.24,0.658,0.231,1.017,0.238
		c0.287,0.006,0.61-0.051,0.784,0.284C49.65,57.589,49.539,57.788,49.428,57.989z"/>
	<path fill-rule="evenodd" clip-rule="evenodd" fill="#767FAF" d="M60.936,64.068c0.202,0.439,0.06,0.79-0.203,1.173
		c-0.38,0.552-0.67,1.166-1.019,1.741c-0.137,0.227-0.301,0.559-0.591,0.117c0.513-0.864,1.015-1.734,1.544-2.589
		c0.174-0.28,0.055-0.529,0.024-0.794C60.822,63.8,60.906,63.916,60.936,64.068z"/>
	<path fill-rule="evenodd" clip-rule="evenodd" fill="#D8D199" d="M48.317,47.119c-0.024-0.528,0.601-1.497,1.111-1.721
		c0.178,0.21,0.292,0.45,0.335,0.724c-0.386,0.535-0.757,1.078-0.961,1.714C48.626,47.606,48.399,47.413,48.317,47.119z"/>
	<path fill-rule="evenodd" clip-rule="evenodd" fill="#D5AE81" d="M54.336,45.882c0.105-0.243,0.211-0.486,0.318-0.73
		c0.127-0.109,0.291-0.219,0.413-0.053c0.366,0.504,0.858,0.949,0.844,1.649l0.009-0.011c-0.23,0.118-0.197,0.493-0.514,0.528
		C54.839,46.967,54.743,46.303,54.336,45.882z"/>
	<path fill-rule="evenodd" clip-rule="evenodd" fill="#9ABDC5" d="M49.182,55.231c-0.042,0.079-0.083,0.159-0.126,0.239
		c0.15,0.258,0.394,0.213,0.634,0.21c0.273-0.002,0.563-0.063,0.798,0.15c0.045,0.319-0.298,0.448-0.352,0.72
		c-0.528,0.346-1.097,0.179-1.639,0.088c-0.317-0.054-0.106-0.304-0.051-0.473c0.192-0.388,0.421-0.752,0.724-1.063
		c0.037,0.026,0.05,0.053,0.042,0.083S49.194,55.231,49.182,55.231z"/>
	<path fill-rule="evenodd" clip-rule="evenodd" fill="#95B9C5" d="M48.446,56.166c0.013,0.167-0.133,0.407,0.23,0.391
		c0.485-0.023,0.973-0.006,1.459-0.006c0.042,0.353-0.354,0.511-0.375,0.837c-0.423-0.223-0.88-0.099-1.322-0.109
		c-0.299-0.009-0.496-0.067-0.479-0.411C48.123,56.633,48.204,56.345,48.446,56.166z"/>
	<path fill-rule="evenodd" clip-rule="evenodd" fill="#D6D39D" d="M48.802,47.836c-0.081-0.508,0.434-1.425,0.961-1.714
		c0.071,0.265,0.367,0.416,0.361,0.719c-0.447,0.116-0.481,0.58-0.732,0.856c-0.393,0.433-0.048,0.706,0.156,1.018
		c0.068,0.105,0.102,0.21,0.088,0.333C49.301,48.684,49.044,48.265,48.802,47.836z"/>
	<path fill-rule="evenodd" clip-rule="evenodd" fill="#BDBEB1" d="M55.766,52.354c-0.16-0.002-0.319-0.004-0.479-0.005
		c-0.197-0.125-0.436,0.005-0.637-0.099c-0.385-0.476-0.361-0.739,0.104-1.112c0.342-0.06,0.686-0.063,1.028-0.004
		C56.017,51.543,56.025,51.95,55.766,52.354z"/>
	<path fill-rule="evenodd" clip-rule="evenodd" fill="#E1201A" d="M61.875,30.655c0.5,0.321,0.651,0.887,0.94,1.355
		c0.352,0.572,0.688,1.155,1.026,1.736c0.089,0.152,0.198,0.31,0.078,0.498c-0.146,0.086-0.297,0.146-0.474,0.102
		c-0.007-0.308-0.132-0.571-0.291-0.828c-0.532-0.859-1.042-1.732-1.521-2.623C61.672,30.772,61.752,30.692,61.875,30.655z"/>
	<path fill-rule="evenodd" clip-rule="evenodd" fill="#E0261C" d="M61.635,30.896c0.328,0.139,0.408,0.473,0.567,0.739
		c0.451,0.759,0.873,1.536,1.343,2.284c0.146,0.23,0.042,0.311-0.099,0.428c-0.26,0.051-0.52,0.073-0.76-0.08
		c0.091-0.006,0.181-0.011,0.271-0.018c0.159-0.159,0.034-0.309-0.041-0.431c-0.523-0.846-0.924-1.763-1.523-2.563
		C61.413,31.094,61.496,30.976,61.635,30.896z"/>
	<path fill-rule="evenodd" clip-rule="evenodd" fill="#D5A87C" d="M55.911,46.748c-0.268-0.482-0.533-0.966-0.805-1.447
		c-0.104-0.183-0.258-0.231-0.452-0.149c0.115-0.24,0.232-0.479,0.349-0.719c0.266-0.123,0.36,0.096,0.446,0.253
		c0.28,0.518,0.538,1.049,0.805,1.575C56.196,46.463,56.084,46.627,55.911,46.748z"/>
	<path fill-rule="evenodd" clip-rule="evenodd" fill="#B9A9A5" d="M58.404,50.917c0,0.273-0.03,0.55,0.006,0.818
		c0.079,0.58-0.115,0.855-0.727,0.739c0.001-0.079,0.001-0.157,0.001-0.236c0.002-1.205,0.002-1.205-1.198-1.2
		c-0.179,0.149-0.38,0.173-0.598,0.116c-0.089-0.052-0.207-0.046-0.278-0.135c0.551-0.141,1.111-0.113,1.67-0.119
		C57.656,50.842,58.031,50.815,58.404,50.917z"/>
	<path fill-rule="evenodd" clip-rule="evenodd" fill="#2D78B8" d="M42.109,69.602c-0.886,0.184-1.771,0.303-2.643-0.066
		C40.298,68.901,41.327,68.928,42.109,69.602z"/>
	<path fill-rule="evenodd" clip-rule="evenodd" fill="#9DB2BE" d="M55.373,59.799c0.077,0.014,0.215,0.056,0.224,0.038
		c0.322-0.712,1.089-1.21,1.018-2.11c0.268,0.181,0.271,0.528,0.469,0.751c-0.115,0.688-0.567,1.2-0.93,1.755
		c-0.131,0.201-0.347,0.261-0.551,0.048C55.526,60.12,55.45,59.959,55.373,59.799z"/>
	<path fill-rule="evenodd" clip-rule="evenodd" fill="#CEC19A" d="M53.73,49.709c-0.727,0.056-1.05-0.338-0.805-0.997
		c0.074-0.198,0.195-0.378,0.294-0.566c0.59,0.014,0.688,0.535,0.885,0.912C54.273,49.384,53.955,49.546,53.73,49.709z"/>
	<path fill-rule="evenodd" clip-rule="evenodd" fill="#D1D6A9" d="M49.874,49.417c0.334-0.367,0.409-0.952,0.959-1.138
		c0.069,0.12,0.144,0.238,0.204,0.361c0.186,0.378,0.201,0.751-0.186,1.001C50.477,49.885,50.136,49.773,49.874,49.417z"/>
	<path fill-rule="evenodd" clip-rule="evenodd" fill="#9BAFBE" d="M55.603,60.28c0.392,0.122,0.516-0.177,0.667-0.427
		c0.274-0.457,0.542-0.917,0.813-1.376c0.211,0.029,0.083,0.289,0.241,0.353c-0.339,0.726-0.513,1.57-1.365,1.935
		C55.755,60.666,55.684,60.47,55.603,60.28z"/>
	<path fill-rule="evenodd" clip-rule="evenodd" fill="#D4B388" d="M54.336,45.882c0.447,0.02,0.427,0.46,0.624,0.703
		c0.159,0.196,0.299,0.409,0.447,0.615c0.074,0.082,0.067,0.163,0,0.245c-0.188,0.228-0.193,0.57-0.468,0.745
		c-0.2-0.628-0.586-1.161-0.902-1.729C54.108,46.254,54.172,46.042,54.336,45.882z"/>
	<path fill-rule="evenodd" clip-rule="evenodd" fill="#E12D1E" d="M61.394,31.255c0.124,0.008,0.245,0.037,0.309,0.15
		c0.489,0.874,0.972,1.751,1.464,2.623c0.188,0.333-0.099,0.186-0.208,0.222c-0.442-0.765-0.884-1.529-1.326-2.293
		c-0.098-0.168-0.142-0.375-0.349-0.458C61.274,31.396,61.302,31.312,61.394,31.255z"/>
	<path fill-rule="evenodd" clip-rule="evenodd" fill="#B18891" d="M60.524,50.658c0.318-0.146,0.662-0.103,0.992-0.097
		c0.646,0.012,1.113,0.51,1.121,1.144c0.009,0.67-0.459,1.23-1.126,1.198c-0.646-0.029-1.304,0.002-1.94-0.172
		c0.118-0.16,0.296-0.162,0.469-0.18c0.135-0.012,0.269-0.006,0.403-0.002c0.224-0.004,0.447-0.002,0.67,0.002
		c0.896-0.012,1.022-0.141,0.967-0.979c-0.036-0.552-0.191-0.676-0.921-0.731c-0.064,0.001-0.127,0-0.19-0.003
		C60.802,50.823,60.633,50.814,60.524,50.658z"/>
	<path fill-rule="evenodd" clip-rule="evenodd" fill="#D2BA91" d="M53.453,47.666c0.117-0.242,0.235-0.482,0.352-0.724
		c0.078-0.039,0.154-0.04,0.227,0.007c0.423,0.276,0.802,1.184,0.656,1.567c-0.204,0.218-0.198,0.57-0.47,0.746
		C54.183,48.625,53.804,48.151,53.453,47.666z"/>
	<path fill-rule="evenodd" clip-rule="evenodd" fill="#DDCD8A" d="M48.567,43.603c-0.246-0.16-0.374-0.054-0.505,0.178
		c-0.299,0.527-0.629,1.035-0.947,1.551c-0.174-0.137-0.289-0.314-0.357-0.523c0.112,0.024,0.25,0.116,0.324-0.022
		c0.358-0.668,0.918-1.237,1.021-2.034C48.381,42.969,48.458,43.295,48.567,43.603z"/>
	<path fill-rule="evenodd" clip-rule="evenodd" fill="#D2B58B" d="M54.688,48.516c-0.101-0.633-0.365-1.174-0.883-1.574
		c0.078-0.16,0.155-0.32,0.232-0.48c0.53,0.457,0.919,0.986,0.902,1.729C54.903,48.335,54.859,48.475,54.688,48.516z"/>
	<path fill-rule="evenodd" clip-rule="evenodd" fill="#D0BD95" d="M53.453,47.666c0.556,0.388,0.99,0.833,0.765,1.596
		c-0.077,0.243-0.215,0.418-0.487,0.448c0.421-0.535,0.275-0.979-0.511-1.563C53.299,47.986,53.376,47.826,53.453,47.666z"/>
	<path fill-rule="evenodd" clip-rule="evenodd" fill="#6B70A7" d="M59.831,67.703c1.137-0.019,1.655-0.353,2.021-1.358
		c0.155-0.421-0.193-0.794-0.196-1.208c0.452,0.64,0.458,1.39,0.015,1.981C61.233,67.702,60.543,67.922,59.831,67.703z"/>
	<path fill-rule="evenodd" clip-rule="evenodd" fill="#9EBFC4" d="M50.488,55.831c-0.409,0-0.818-0.005-1.229,0.002
		c-0.306,0.005-0.327-0.135-0.204-0.362c0.516,0.001,1.034,0.001,1.55,0.001C50.566,55.592,50.527,55.712,50.488,55.831z"/>
	<path fill-rule="evenodd" clip-rule="evenodd" fill="#D48D60" d="M57.813,43.866c-0.116-1.001-0.483-1.31-1.604-1.354
		c0.47-0.316,0.922-0.206,1.299,0.134C57.861,42.963,58.058,43.373,57.813,43.866z"/>
	<path fill-rule="evenodd" clip-rule="evenodd" fill="#427EB6" d="M42.213,66.861c0.365,0.19,0.57,0.58,0.993,0.719
		c0.508,0.163,0.959-0.038,1.432-0.104C43.957,68.153,42.488,67.746,42.213,66.861z"/>
	<path fill-rule="evenodd" clip-rule="evenodd" fill="#DEC880" d="M48.108,42.757c-0.688-0.43-1.294-0.206-1.874,0.231
		C46.757,42.207,47.465,42.119,48.108,42.757z"/>
	<path fill-rule="evenodd" clip-rule="evenodd" fill="#87C192" d="M43.463,50.662c-0.735-0.044-1.44,0.014-1.981,0.606
		C41.662,50.604,42.395,50.395,43.463,50.662z"/>
	<path fill-rule="evenodd" clip-rule="evenodd" fill="#91A3B8" d="M56.091,60.88c0.609,0.206,1.138,0.061,1.597-0.374
		C57.333,61.159,56.757,61.295,56.091,60.88z"/>
	<path fill-rule="evenodd" clip-rule="evenodd" fill="#87C192" d="M41.49,51.26c-0.095,0.633,0.163,1.125,0.613,1.539
		C41.393,52.457,41.208,51.993,41.49,51.26z"/>
	<path fill-rule="evenodd" clip-rule="evenodd" fill="#B58F96" d="M60.524,50.658c0.172,0.008,0.344,0.017,0.515,0.025
		c-0.084,0.356-0.384,0.244-0.615,0.282c-0.466,0.034-0.928,0.008-1.382-0.111c-0.075,0.005-0.139-0.02-0.191-0.075
		C59.401,50.636,59.964,50.668,60.524,50.658z"/>
	<path fill-rule="evenodd" clip-rule="evenodd" fill="#B49498" d="M60.082,52.707c-0.17,0.008-0.341,0.016-0.511,0.023
		c-0.562-0.008-1.126,0.028-1.678-0.123c0.449-0.005,0.898-0.01,1.349-0.014C59.549,52.434,59.855,52.268,60.082,52.707z"/>
	<path fill-rule="evenodd" clip-rule="evenodd" fill="#AA5574" d="M67.991,53.303c-0.126,0.008-0.253,0.016-0.381,0.023
		c-0.558-0.018-1.121,0.042-1.668-0.124c0.147-0.122,0.325-0.038,0.486-0.075c0.188-0.092,0.389-0.105,0.592-0.098
		c0.235-0.002,0.472-0.011,0.704,0.025C67.854,53.094,67.998,53.118,67.991,53.303z"/>
	<path fill-rule="evenodd" clip-rule="evenodd" fill="#D44C2C" d="M61.775,38.127c0.17-0.592,0.048-1.165-0.12-1.734
		C62.099,36.944,62.132,37.522,61.775,38.127z"/>
	<path fill-rule="evenodd" clip-rule="evenodd" fill="#93C89C" d="M46.701,50.9c-0.414,0.006-0.829,0.012-1.243,0.018
		c-0.306,0.16-0.613,0.325-0.839-0.113c0.17-0.008,0.34-0.015,0.51-0.023C45.655,50.789,46.186,50.744,46.701,50.9z"/>
	<path fill-rule="evenodd" clip-rule="evenodd" fill="#749FBD" d="M46.609,60.884c0.423,0.055,0.847,0.083,1.27,0.004
		C47.455,61.226,47.031,61.191,46.609,60.884z"/>
	<path fill-rule="evenodd" clip-rule="evenodd" fill="#B49498" d="M58.851,50.779c0.054,0.012,0.105,0.025,0.159,0.037
		c0.035,0.025,0.044,0.048,0.031,0.069c-0.013,0.021-0.025,0.031-0.038,0.031c-0.2,0-0.398,0-0.599,0.001
		c-0.374-0.006-0.749-0.012-1.122-0.018C57.796,50.744,58.325,50.789,58.851,50.779z"/>
	<path fill-rule="evenodd" clip-rule="evenodd" fill="#9ACCA2" d="M47.615,52.355c0.519-0.001,1.037-0.001,1.556-0.001
		c-0.49,0.196-1.005,0.122-1.51,0.138c-0.056,0.023-0.113,0.026-0.17,0.006C47.462,52.389,47.493,52.332,47.615,52.355z"/>
	<path fill-rule="evenodd" clip-rule="evenodd" fill="#93C89C" d="M47.494,52.454c0.056,0.013,0.11,0.025,0.165,0.038
		c-0.515,0.147-1.045,0.112-1.572,0.119c-0.052-0.014-0.104-0.026-0.157-0.039c-0.034-0.024-0.043-0.047-0.03-0.067
		c0.013-0.021,0.025-0.029,0.037-0.029c0.2-0.001,0.401-0.001,0.6-0.003C46.852,52.254,47.172,52.238,47.494,52.454z"/>
	<path fill-rule="evenodd" clip-rule="evenodd" fill="#8390B6" d="M57.802,63.139c-0.03,0.441-0.265,0.883,0.002,1.323
		c-0.049,0.004-0.096,0.007-0.144,0.009C57.461,64.001,57.474,63.553,57.802,63.139z"/>
	<path fill-rule="evenodd" clip-rule="evenodd" fill="#A4D0AA" d="M47.857,51.047c0.171-0.01,0.342-0.019,0.514-0.028
		c0.311,0.013,0.636-0.083,0.913,0.141C48.81,51.098,48.317,51.276,47.857,51.047z"/>
	<path fill-rule="evenodd" clip-rule="evenodd" fill="#9EBFC4" d="M49.182,55.231c-0.003-0.043-0.007-0.086-0.012-0.129
		c0.136-0.33,0.339-0.616,0.589-0.871C49.716,54.65,49.402,54.915,49.182,55.231z"/>
	<path fill-rule="evenodd" clip-rule="evenodd" fill="#AA5574" d="M66.436,50.319c-0.248-0.005-0.496-0.01-0.743-0.014
		c0.387-0.184,0.797-0.111,1.201-0.121c0.049,0.01,0.098,0.021,0.146,0.031c0.028,0.07,0.011,0.125-0.054,0.166
		C66.79,50.479,66.605,50.46,66.436,50.319z"/>
	<path fill-rule="evenodd" clip-rule="evenodd" fill="#BBB0A9" d="M55.61,51.019c0.092,0.012,0.184,0.023,0.273,0.036
		c0.013,0.091-0.014,0.142-0.117,0.102c-0.337-0.006-0.675-0.012-1.013-0.019C55.02,50.952,55.32,51.023,55.61,51.019z"/>
	<path fill-rule="evenodd" clip-rule="evenodd" fill="#D5A87C" d="M55.407,47.446c0-0.082,0-0.164,0-0.245
		c0.249-0.069,0.228-0.436,0.513-0.464C55.807,47.015,55.684,47.285,55.407,47.446z"/>
	<path fill-rule="evenodd" clip-rule="evenodd" fill="#AD617B" d="M66.437,53.184c-0.164,0.007-0.329,0.014-0.494,0.019
		c-0.169,0.009-0.34,0.019-0.468-0.126c0.035-0.049,0.076-0.051,0.12-0.012c0.081,0.002,0.16,0.006,0.241,0.008
		c0.2,0.002,0.399,0.002,0.6,0.002c0.028,0.024,0.038,0.049,0.029,0.073S66.446,53.184,66.437,53.184z"/>
	<path fill-rule="evenodd" clip-rule="evenodd" fill="#68B97E" d="M38.046,53.206c-0.165-0.007-0.332-0.015-0.498-0.022
		c0.008-0.188,0.103-0.191,0.238-0.109c0.2-0.002,0.401-0.006,0.601-0.008c0.051-0.043,0.096-0.037,0.136,0.016
		C38.389,53.222,38.219,53.217,38.046,53.206z"/>
	<path fill-rule="evenodd" clip-rule="evenodd" fill="#767FAF" d="M58.633,66.503c0.257,0.128,0.347,0.349,0.352,0.62
		C58.775,66.969,58.692,66.742,58.633,66.503z"/>
	<path fill-rule="evenodd" clip-rule="evenodd" fill="#427EB6" d="M44.631,67.482c0.088-0.238,0.261-0.395,0.488-0.497
		C45.042,67.236,44.88,67.402,44.631,67.482z"/>
	<path fill-rule="evenodd" clip-rule="evenodd" fill="#578EC0" d="M46.297,63.983c-0.036-0.218-0.071-0.436-0.107-0.652
		c0.286,0.075,0.239,0.305,0.238,0.513C46.386,63.891,46.341,63.936,46.297,63.983z"/>
	<path fill-rule="evenodd" clip-rule="evenodd" fill="#749FBD" d="M47.871,60.896c0.049-0.2,0.18-0.32,0.372-0.381
		C48.196,60.717,48.07,60.843,47.871,60.896z"/>
	<path fill-rule="evenodd" clip-rule="evenodd" fill="#AD667E" d="M65.595,53.064c-0.04,0.004-0.08,0.008-0.12,0.012
		c-0.164-0.014-0.285-0.093-0.361-0.239C65.305,52.849,65.468,52.92,65.595,53.064z"/>
	<path fill-rule="evenodd" clip-rule="evenodd" fill="#91A3B8" d="M57.803,60.238c0.006-0.207,0.012-0.413,0.018-0.62
		C57.945,59.828,57.986,60.036,57.803,60.238z"/>
	<path fill-rule="evenodd" clip-rule="evenodd" fill="#BCB7AD" d="M54.649,52.25c0.217,0.009,0.448-0.093,0.637,0.099
		c-0.132,0.009-0.266,0.017-0.398,0.025C54.785,52.379,54.697,52.354,54.649,52.25z"/>
	<path fill-rule="evenodd" clip-rule="evenodd" fill="#D44C2C" d="M61.662,36.401c-0.187-0.049-0.295-0.186-0.382-0.346
		C61.519,36.048,61.6,36.215,61.662,36.401z"/>
	<path fill-rule="evenodd" clip-rule="evenodd" fill="#6EBB83" d="M38.522,53.082c-0.045-0.006-0.091-0.011-0.136-0.016
		c0.132-0.148,0.298-0.225,0.497-0.225C38.804,52.982,38.687,53.066,38.522,53.082z"/>
	<path fill-rule="evenodd" clip-rule="evenodd" fill="#6EBB83" d="M37.786,53.074c-0.095,0.002-0.183,0.02-0.238,0.109
		c-0.281,0.004-0.561,0.007-0.84,0.009c0-0.729,0.03-1.459-0.012-2.186c-0.029-0.527,0.114-0.785,0.678-0.693
		c0.134,0.023,0.275,0.005,0.413,0.007C37.787,51.238,37.786,52.156,37.786,53.074z"/>
	<path fill-rule="evenodd" clip-rule="evenodd" fill="#60B77A" d="M35.511,53.309c-0.778-0.043-0.866-0.139-0.845-0.852
		c0.015-0.474,0.007-0.948,0.002-1.422c-0.009-0.824-0.012-0.824,0.841-0.836C35.509,51.236,35.511,52.272,35.511,53.309z"/>
	<path fill-rule="evenodd" clip-rule="evenodd" fill="#93C89C" d="M44.14,52.595c-0.113,0.038-0.222,0.097-0.337,0.111
		c-0.933,0.114-0.981,0.068-0.981-0.859c0-1.213-0.083-1.042,1.32-1.048C44.425,51.398,44.425,51.997,44.14,52.595z"/>
	<path fill-rule="evenodd" clip-rule="evenodd" fill="#9ACCA2" d="M44.14,52.595c0-0.599,0-1.197,0.001-1.796
		c0.158,0.002,0.319,0.004,0.478,0.006c0.256,0.215,0.561,0.067,0.839,0.113c0,0.369,0.02,0.74-0.005,1.108
		c-0.026,0.377,0.15,0.487,0.484,0.449c0,0.032-0.002,0.064-0.006,0.097C45.333,52.58,44.737,52.587,44.14,52.595z"/>
	<path fill-rule="evenodd" clip-rule="evenodd" fill="#AA5574" d="M68.353,50.199c0.199,0.005,0.405-0.02,0.594,0.023
		c0.258,0.06,0.439,0.157,0.389,0.53c-0.069,0.527-0.021,1.071-0.022,1.607c-0.001,0.863-0.082,0.943-0.961,0.949
		c-0.13-0.137-0.171-0.309-0.177-0.489c-0.021-0.71-0.021-1.42,0-2.131C68.181,50.507,68.227,50.337,68.353,50.199z"/>
	<path fill-rule="evenodd" clip-rule="evenodd" fill="#AD617B" d="M67.035,50.317c0-0.035,0.001-0.068,0.005-0.102
		c0.237-0.004,0.476-0.009,0.714-0.014c0.128,0.137,0.188,0.31,0.177,0.489c-0.056,0.835,0.209,1.693-0.177,2.503
		c-0.239-0.001-0.479-0.002-0.72-0.002c-0.219-0.247-0.207-0.555-0.184-0.845C66.905,51.669,66.665,50.964,67.035,50.317z"/>
	<path fill-rule="evenodd" clip-rule="evenodd" fill="#AB5B78" d="M67.754,53.193c0-0.998,0-1.995,0-2.992
		c0.199,0,0.399-0.001,0.599-0.002c0,1.037-0.001,2.073-0.001,3.11c-0.12-0.002-0.24-0.004-0.36-0.005
		C67.937,53.213,67.849,53.197,67.754,53.193z"/>
	<path fill-rule="evenodd" clip-rule="evenodd" fill="#A4D0AA" d="M47.494,52.454c-0.319,0.006-0.638,0.013-0.958,0.019
		c0-0.117,0-0.234,0-0.352c0-1.088,0-1.088,1.08-1.083c0,0.439-0.001,0.878-0.001,1.317C47.575,52.388,47.536,52.42,47.494,52.454z"
		/>
	<path fill-rule="evenodd" clip-rule="evenodd" fill="#BCB7AD" d="M55.767,51.156c0.04-0.034,0.079-0.068,0.117-0.102
		c0.201-0.005,0.401-0.011,0.603-0.016c0,0.194-0.025,0.393,0.005,0.583c0.088,0.582-0.12,0.848-0.726,0.733
		C55.766,51.955,55.767,51.555,55.767,51.156z"/>
	<path fill-rule="evenodd" clip-rule="evenodd" fill="#AD667E" d="M67.035,50.317c0,0.957,0,1.916-0.001,2.874
		c-0.199-0.002-0.397-0.005-0.598-0.006c-0.001-0.037-0.001-0.074-0.001-0.111c0-0.918,0-1.836,0-2.755
		C66.636,50.318,66.835,50.318,67.035,50.317z"/>
	<path fill-rule="evenodd" clip-rule="evenodd" fill="#B89C9E" d="M59.003,50.916c0-0.033,0.002-0.067,0.007-0.1
		c0.478-0.006,0.954-0.012,1.432-0.019c0.285,0.638,0.287,1.276-0.002,1.914c-0.119-0.002-0.239-0.003-0.357-0.004
		c-0.256-0.216-0.561-0.066-0.84-0.113c0.001-0.41,0.003-0.819,0-1.228C59.239,51.178,59.289,50.956,59.003,50.916z"/>
	<path fill-rule="evenodd" clip-rule="evenodd" fill="#B58F96" d="M61.16,50.68c0.933,0.012,1.086,0.183,1.08,1.198
		c-0.005,0.753-0.109,0.834-1.08,0.837C60.857,52.035,60.887,51.358,61.16,50.68z"/>
	<path fill-rule="evenodd" clip-rule="evenodd" fill="#B49498" d="M61.16,50.68c0,0.678,0,1.355,0,2.035
		c-0.24-0.002-0.48-0.003-0.721-0.004c0.002-0.638,0.002-1.276,0.002-1.914c0.2-0.029,0.429,0.078,0.598-0.114
		C61.08,50.682,61.12,50.681,61.16,50.68z"/>
</g>
</svg>
