<?xml version="1.0" encoding="UTF-8"?>
<svg width="527px" height="541px" viewBox="0 0 527 541" version="1.1" xmlns="http://www.w3.org/2000/svg" xmlns:xlink="http://www.w3.org/1999/xlink">
    <!-- Generator: Sketch 49.3 (51167) - http://www.bohemiancoding.com/sketch -->
    <title>BlockParty</title>
    <desc>Created with Sketch.</desc>
    <defs>
        <polygon id="path-1" points="1.15254483 2.472 478.989 2.472 478.989 542.998155 1.15254483 542.998155"></polygon>
    </defs>
    <g id="Page-1" stroke="none" stroke-width="1" fill="none" fill-rule="evenodd">
        <g id="Achain-Bootcamp-Page" transform="translate(-140.000000, -2778.000000)">
            <g id="Group-18" transform="translate(140.000000, 2775.000000)">
                <g id="BlockParty">
                    <g id="Page-1">
                        <g id="Group-3" transform="translate(48.000000, 0.528000)">
                            <mask id="mask-2" fill="white">
                                <use xlink:href="#path-1"></use>
                            </mask>
                            <g id="Clip-2"></g>
                            <path d="M98.6055,13.6308 C152.7315,-45.6792 464.1105,144.5718 478.5255,274.2798 C492.9405,403.9938 168.1155,609.4458 74.9175,521.9598 C-5.9565,446.0478 -48.4275,174.7758 98.6055,13.6308" id="Fill-1" fill-opacity="0.2" fill="#000000" mask="url(#mask-2)"></path>
                        </g>
                        <path d="M262.9815,529.236 C184.9575,542.832 -31.5825,278.064 3.8955,169.182 C39.3705,60.3 284.8455,14.187 439.5525,107.337 C605.6115,207.321 395.1705,506.211 262.9815,529.236" id="Fill-4" fill="#1F2435"></path>
                        <path d="M389.8428,155.9412 C477.2478,193.6422 427.3098,394.9842 363.5868,444.8592 C296.4618,497.3862 74.6628,474.0402 65.5038,278.0172 C61.3308,189.0042 200.2248,74.1432 389.8428,155.9412" id="Fill-6" fill="#231F20"></path>
                        <path d="M389.8428,146.9469 C477.2478,184.6509 427.3098,385.9899 363.5868,435.8649 C296.4618,488.3949 74.6628,465.0459 65.5038,269.0259 C61.3308,180.0099 200.2248,65.1519 389.8428,146.9469" id="Fill-8" fill="#231F20"></path>
                        <path d="M389.8428,136.0779 C477.2478,173.7789 427.3098,375.1179 363.5868,424.9929 C296.4618,477.5229 74.6628,454.1739 65.5038,258.1539 C61.3308,169.1409 200.2248,54.2799 389.8428,136.0779" id="Fill-10" fill="#FFFFFF"></path>
                        <path d="M389.8428,130.3941 C477.2478,168.0951 427.3098,369.4341 363.5868,419.3121 C296.4618,471.8391 74.6628,448.4901 65.5038,252.4701 C61.3308,163.4571 200.2248,48.5961 389.8428,130.3941" id="Fill-12" fill="#FFFFFF"></path>
                        <path d="M262.9932,103.116 C199.9302,103.116 141.8772,126.048 103.7202,166.032 C78.5472,192.414 64.8762,223.908 66.2112,252.435 C72.3582,383.937 175.2162,442.8 274.4322,442.8 C311.2872,442.8 343.6212,434.034 363.1482,418.752 C408.6072,383.175 443.9592,276.522 434.5242,203.439 C429.7842,166.722 414.2352,141.684 389.5632,131.046 C346.6002,112.515 304.0182,103.116 262.9932,103.116 M274.4322,444.216 C224.7192,444.216 175.1682,428.325 138.4782,400.611 C93.2022,366.417 67.7232,315.201 64.7922,252.504 C63.4392,223.587 77.2542,191.712 102.6942,165.051 C141.1152,124.791 199.5462,101.697 262.9932,101.697 C304.2102,101.697 346.9842,111.132 390.1242,129.741 C415.2822,140.595 431.1222,166.017 435.9312,203.259 C445.4232,276.747 409.8042,384.039 364.0242,419.871 C344.2512,435.342 311.5962,444.216 274.4322,444.216" id="Fill-14" fill="#FFFFFF"></path>
                        <path d="M122.3916,252.0318 L118.9806,252.8808 L121.6476,263.6088 L124.3086,274.2918 L134.5746,271.7418 C137.4156,271.0338 139.5816,269.3868 141.0816,266.8038 C142.5816,264.2178 142.9626,261.4548 142.2246,258.4938 C141.4926,255.5418 139.8576,253.2618 137.3166,251.6628 C134.7786,250.0638 132.0876,249.6228 129.2466,250.3278 L122.3916,252.0318 Z M118.8306,237.7188 C121.1316,237.1428 121.9866,235.6728 121.3956,233.3118 C120.8046,230.9148 119.3556,230.0058 117.0546,230.5758 L113.6436,231.4248 L114.5406,235.0158 L115.4196,238.5618 L118.8306,237.7188 Z M148.4136,242.1708 C152.1876,245.6268 154.7046,249.9288 155.9886,255.0678 C157.7016,261.9588 156.8106,268.4388 153.3126,274.4958 C149.8146,280.5618 144.7566,284.4168 138.1356,286.0638 L114.1056,292.0398 L107.8896,267.0318 L105.2226,256.3038 L101.6616,241.9878 L100.7766,238.4388 L96.3336,220.5738 L113.5026,216.3018 C118.2186,215.1288 122.6916,215.8728 126.9336,218.5398 C131.1696,221.2068 133.8936,224.9898 135.1116,229.9008 C135.5916,231.8238 135.7746,233.7498 135.6516,235.6968 C140.3916,236.5578 144.6456,238.7148 148.4136,242.1708 Z" id="Fill-16" fill="#A9D800"></path>
                        <polygon id="Fill-18" fill="#A9D800" points="162.8856 204.0201 177.0996 261.1671 204.5406 254.3391 208.0956 268.6611 166.9056 278.9091 149.1276 207.4431"></polygon>
                        <path d="M220.9053,211.4556 C217.9353,216.6696 217.1793,222.2136 218.6433,228.0966 C220.1133,234.0096 223.3773,238.5546 228.4413,241.7376 C233.4963,244.9176 238.8633,245.8026 244.5483,244.3926 C250.1973,242.9856 254.5263,239.6856 257.5383,234.5016 C260.5443,229.3086 261.3123,223.7616 259.8423,217.8486 C258.3753,211.9656 255.0993,207.4236 250.0023,204.2196 C244.9113,201.0156 239.5383,200.1126 233.8833,201.5166 C228.2073,202.9296 223.8753,206.2476 220.9053,211.4556 M257.1873,191.7216 C265.6593,197.0526 271.1193,204.6246 273.5583,214.4376 C276.0063,224.2806 274.7343,233.5326 269.7423,242.1936 C264.7503,250.8606 257.5383,256.3626 248.1093,258.7116 C238.6533,261.0606 229.6953,259.5786 221.2383,254.2596 C212.7843,248.9376 207.3303,241.3626 204.8853,231.5166 C202.4433,221.7036 203.7093,212.4576 208.6893,203.7846 C213.6633,195.1086 220.8753,189.5946 230.3343,187.2456 C239.7603,184.8936 248.7153,186.3906 257.1873,191.7216" id="Fill-20" fill="#A9D800"></path>
                        <path d="M316.5303,168.7935 C321.1593,169.6365 325.4493,171.2775 329.4033,173.7165 L322.2033,186.2355 C317.0703,183.0555 311.6913,182.1645 306.0723,183.5655 C300.3873,184.9785 296.0643,188.2935 293.0943,193.5015 C290.1213,198.7185 289.3653,204.2595 290.8323,210.1425 C292.3023,216.0555 295.5663,220.6035 300.6213,223.7835 C305.6853,226.9665 311.0523,227.8515 316.7283,226.4385 C322.4133,225.0255 326.7423,221.7165 329.7363,216.5175 L341.9613,224.2125 C339.6153,228.2475 336.5973,231.7185 332.9073,234.6345 C329.2113,237.5415 325.0083,239.5875 320.2923,240.7575 C310.8363,243.1065 301.8813,241.6245 293.4213,236.3055 C284.9673,230.9835 279.5163,223.4085 277.0683,213.5655 C274.6293,203.7495 275.8953,194.5035 280.8693,185.8335 C285.8433,177.1545 293.0643,171.6405 302.5203,169.2915 C307.2303,168.1185 311.9013,167.9565 316.5303,168.7935" id="Fill-22" fill="#A9D800"></path>
                        <polygon id="Fill-24" fill="#A9D800" points="344.9598 158.733 351.7098 185.868 360.0888 154.971 375.9738 151.023 364.7298 192.372 397.0308 221.67 380.2848 225.834 356.2098 203.955 362.7378 230.199 348.9798 233.622 331.2018 162.156"></polygon>
                        <path d="M153.2295,334.1043 C156.0705,333.3963 158.2395,331.7433 159.7335,329.1483 C161.2275,326.5443 161.6085,323.7693 160.8765,320.8143 C160.1445,317.8863 158.5095,315.6183 155.9655,314.0073 C153.4275,312.3963 150.7335,311.9373 147.8925,312.6483 L137.6265,315.2013 L140.2965,325.9293 L142.9635,336.6603 L153.2295,334.1043 Z M132.7575,354.3603 L126.5355,329.3523 L120.3165,304.3503 L134.0745,300.9273 L144.3405,298.3743 C150.9615,296.7273 157.2375,297.7713 163.1715,301.5033 C169.1085,305.2353 172.9275,310.5333 174.6345,317.3943 C176.3445,324.2793 175.4535,330.7533 171.9555,336.8163 C168.4575,342.8823 163.4025,346.7373 156.7815,348.3843 L146.5155,350.9373 L151.8525,372.3963 L138.0885,375.8163 L132.7575,354.3603 Z" id="Fill-26" fill="#A9D800"></path>
                        <path d="M219.9384,328.9068 L211.4604,317.7378 L209.1624,331.5918 L219.9384,328.9068 Z M206.4564,347.9838 L204.5574,359.2818 L202.2144,359.8668 L201.6624,360.0018 L192.8034,362.2068 L189.9024,362.9268 L202.3494,287.4738 L202.9764,283.7898 L205.3014,286.7898 L251.6784,347.5638 L248.7774,348.2838 L239.9184,350.4918 L239.3214,350.6388 L236.9784,351.2178 L230.0454,342.0738 L229.7124,341.6328 L206.5374,347.3988 L206.4564,347.9838 Z" id="Fill-28" fill="#A9D800"></path>
                        <path d="M269.046,305.2995 C271.887,304.5915 274.05,302.9385 275.55,300.3435 C277.044,297.7395 277.425,294.9645 276.687,292.0095 C275.961,289.0815 274.326,286.8135 271.782,285.2025 C269.238,283.5915 266.55,283.1325 263.709,283.8435 L253.443,286.3965 L256.11,297.1245 L258.78,307.8555 L269.046,305.2995 Z M248.568,325.5555 L242.352,300.5475 L236.133,275.5455 L249.891,272.1225 L260.157,269.5695 C266.778,267.9225 273.054,268.9665 278.985,272.6985 C284.919,276.4305 288.738,281.7285 290.451,288.5895 C291.768,293.9025 291.504,299.0535 289.647,304.0155 C287.79,308.9805 284.826,312.9105 280.752,315.8055 L302.004,335.0475 L285.219,339.2265 L261.159,317.4345 L267.663,343.5915 L253.905,347.0115 L248.568,325.5555 Z" id="Fill-30" fill="#A9D800"></path>
                        <polygon id="Fill-32" fill="#A9D800" points="320.919 254.4576 338.088 250.1856 341.637 264.4596 324.471 268.7316 338.691 325.9236 324.933 329.3466 310.707 272.1516 293.538 276.4236 289.986 262.1496 307.155 257.8806"></polygon>
                        <polygon id="Fill-34" fill="#A9D800" points="359.3565 244.8951 376.8285 264.6051 383.0415 239.0061 398.6775 235.1151 387.8565 279.6591 395.8305 311.7141 382.1145 315.1251 374.1405 283.0701 343.7595 248.7741"></polygon>
                    </g>
                </g>
            </g>
        </g>
    </g>
</svg>