<?xml version="1.0" encoding="UTF-8"?>
<svg width="27px" height="30px" viewBox="0 0 27 30" version="1.1" xmlns="http://www.w3.org/2000/svg" xmlns:xlink="http://www.w3.org/1999/xlink">
    <!-- Generator: Sketch 48.2 (47327) - http://www.bohemiancoding.com/sketch -->
    <title>university - FontAwesome</title>
    <desc>Created with Sketch.</desc>
    <defs></defs>
    <g id="Homepage" stroke="none" stroke-width="1" fill="none" fill-rule="evenodd" transform="translate(-351.000000, -2839.000000)">
        <g id="Group-20" transform="translate(340.000000, 2837.000000)" fill="#374D61">
            <path d="M24.125,2 L37.25,8.42857143 L37.25,10.5714286 L35.5,10.5714286 C35.5,10.8616086 35.4065765,11.1127222 35.2197266,11.3247768 C35.0328767,11.5368314 34.8118502,11.6428571 34.5566406,11.6428571 L13.6933594,11.6428571 C13.4381498,11.6428571 13.2171233,11.5368314 13.0302734,11.3247768 C12.8434235,11.1127222 12.75,10.8616086 12.75,10.5714286 L11,10.5714286 L11,8.42857143 L24.125,2 Z M14.5,12.7142857 L18,12.7142857 L18,25.5714286 L19.75,25.5714286 L19.75,12.7142857 L23.25,12.7142857 L23.25,25.5714286 L25,25.5714286 L25,12.7142857 L28.5,12.7142857 L28.5,25.5714286 L30.25,25.5714286 L30.25,12.7142857 L33.75,12.7142857 L33.75,25.5714286 L34.5566406,25.5714286 C34.8118502,25.5714286 35.0328767,25.6774543 35.2197266,25.8895089 C35.4065765,26.1015636 35.5,26.3526771 35.5,26.6428571 L35.5,27.7142857 L12.75,27.7142857 L12.75,26.6428571 C12.75,26.3526771 12.8434235,26.1015636 13.0302734,25.8895089 C13.2171233,25.6774543 13.4381498,25.5714286 13.6933594,25.5714286 L14.5,25.5714286 L14.5,12.7142857 Z M36.3066406,28.7857143 C36.5618502,28.7857143 36.7828767,28.89174 36.9697266,29.1037946 C37.1565765,29.3158493 37.25,29.5669628 37.25,29.8571429 L37.25,32 L11,32 L11,29.8571429 C11,29.5669628 11.0934235,29.3158493 11.2802734,29.1037946 C11.4671233,28.89174 11.6881498,28.7857143 11.9433594,28.7857143 L36.3066406,28.7857143 Z" id="university---FontAwesome"></path>
        </g>
    </g>
</svg>